<svg xmlns="http://www.w3.org/2000/svg" xmlns:xlink="http://www.w3.org/1999/xlink" width="500" zoomAndPan="magnify" viewBox="0 0 375 374.999991" height="500" preserveAspectRatio="xMidYMid meet" version="1.0"><defs><clipPath id="d54467928f"><path d="M 40.308594 320.921875 L 81.582031 320.921875 L 81.582031 362.195312 L 40.308594 362.195312 Z M 40.308594 320.921875 " clip-rule="nonzero"/></clipPath><clipPath id="a98a5f61fa"><path d="M 60.945312 320.921875 C 49.550781 320.921875 40.308594 330.164062 40.308594 341.558594 C 40.308594 352.957031 49.550781 362.195312 60.945312 362.195312 C 72.34375 362.195312 81.582031 352.957031 81.582031 341.558594 C 81.582031 330.164062 72.34375 320.921875 60.945312 320.921875 Z M 60.945312 320.921875 " clip-rule="nonzero"/></clipPath><clipPath id="40f189ed76"><path d="M 0.308594 0.921875 L 41.582031 0.921875 L 41.582031 42.195312 L 0.308594 42.195312 Z M 0.308594 0.921875 " clip-rule="nonzero"/></clipPath><clipPath id="be988f4b3a"><path d="M 20.945312 0.921875 C 9.550781 0.921875 0.308594 10.164062 0.308594 21.558594 C 0.308594 32.957031 9.550781 42.195312 20.945312 42.195312 C 32.34375 42.195312 41.582031 32.957031 41.582031 21.558594 C 41.582031 10.164062 32.34375 0.921875 20.945312 0.921875 Z M 20.945312 0.921875 " clip-rule="nonzero"/></clipPath><clipPath id="b43a1d0ad8"><rect x="0" width="42" y="0" height="43"/></clipPath><clipPath id="4656ff35f3"><path d="M 80.125 340.101562 L 115.023438 340.101562 L 115.023438 375 L 80.125 375 Z M 80.125 340.101562 " clip-rule="nonzero"/></clipPath><clipPath id="6078028f44"><path d="M 97.574219 340.101562 C 87.9375 340.101562 80.125 347.914062 80.125 357.550781 C 80.125 367.1875 87.9375 375 97.574219 375 C 107.210938 375 115.023438 367.1875 115.023438 357.550781 C 115.023438 347.914062 107.210938 340.101562 97.574219 340.101562 Z M 97.574219 340.101562 " clip-rule="nonzero"/></clipPath><clipPath id="31e8fb89c4"><path d="M 0.125 0.101562 L 35.023438 0.101562 L 35.023438 35 L 0.125 35 Z M 0.125 0.101562 " clip-rule="nonzero"/></clipPath><clipPath id="ea08174e5b"><path d="M 17.574219 0.101562 C 7.9375 0.101562 0.125 7.914062 0.125 17.550781 C 0.125 27.1875 7.9375 35 17.574219 35 C 27.210938 35 35.023438 27.1875 35.023438 17.550781 C 35.023438 7.914062 27.210938 0.101562 17.574219 0.101562 Z M 17.574219 0.101562 " clip-rule="nonzero"/></clipPath><clipPath id="305892a89a"><rect x="0" width="36" y="0" height="35"/></clipPath><clipPath id="7cff087813"><path d="M 118.398438 348.054688 L 145.339844 348.054688 L 145.339844 375 L 118.398438 375 Z M 118.398438 348.054688 " clip-rule="nonzero"/></clipPath><clipPath id="84d46164d7"><path d="M 131.867188 348.054688 C 124.429688 348.054688 118.398438 354.085938 118.398438 361.527344 C 118.398438 368.96875 124.429688 375 131.867188 375 C 139.308594 375 145.339844 368.96875 145.339844 361.527344 C 145.339844 354.085938 139.308594 348.054688 131.867188 348.054688 Z M 131.867188 348.054688 " clip-rule="nonzero"/></clipPath><clipPath id="a8eafc089e"><path d="M 0.398438 0.0546875 L 27.339844 0.0546875 L 27.339844 27 L 0.398438 27 Z M 0.398438 0.0546875 " clip-rule="nonzero"/></clipPath><clipPath id="9d128a209e"><path d="M 13.867188 0.0546875 C 6.429688 0.0546875 0.398438 6.085938 0.398438 13.527344 C 0.398438 20.96875 6.429688 27 13.867188 27 C 21.308594 27 27.339844 20.96875 27.339844 13.527344 C 27.339844 6.085938 21.308594 0.0546875 13.867188 0.0546875 Z M 13.867188 0.0546875 " clip-rule="nonzero"/></clipPath><clipPath id="ebcf12b737"><rect x="0" width="28" y="0" height="27"/></clipPath><clipPath id="7599cdd219"><path d="M 172.261719 311.929688 L 205.472656 311.929688 L 205.472656 345.140625 L 172.261719 345.140625 Z M 172.261719 311.929688 " clip-rule="nonzero"/></clipPath><clipPath id="7bf3a45b1e"><path d="M 188.867188 311.929688 C 179.695312 311.929688 172.261719 319.363281 172.261719 328.535156 C 172.261719 337.707031 179.695312 345.140625 188.867188 345.140625 C 198.039062 345.140625 205.472656 337.707031 205.472656 328.535156 C 205.472656 319.363281 198.039062 311.929688 188.867188 311.929688 Z M 188.867188 311.929688 " clip-rule="nonzero"/></clipPath><clipPath id="acdfefd75c"><path d="M 0.261719 0.929688 L 33.472656 0.929688 L 33.472656 34.140625 L 0.261719 34.140625 Z M 0.261719 0.929688 " clip-rule="nonzero"/></clipPath><clipPath id="1aeba3fac7"><path d="M 16.867188 0.929688 C 7.695312 0.929688 0.261719 8.363281 0.261719 17.535156 C 0.261719 26.707031 7.695312 34.140625 16.867188 34.140625 C 26.039062 34.140625 33.472656 26.707031 33.472656 17.535156 C 33.472656 8.363281 26.039062 0.929688 16.867188 0.929688 Z M 16.867188 0.929688 " clip-rule="nonzero"/></clipPath><clipPath id="061d2f0f23"><rect x="0" width="34" y="0" height="35"/></clipPath><clipPath id="4b022e4c1b"><path d="M 145.339844 336.875 L 175.175781 336.875 L 175.175781 366.714844 L 145.339844 366.714844 Z M 145.339844 336.875 " clip-rule="nonzero"/></clipPath><clipPath id="6a7ab69865"><path d="M 160.257812 336.875 C 152.019531 336.875 145.339844 343.554688 145.339844 351.792969 C 145.339844 360.035156 152.019531 366.714844 160.257812 366.714844 C 168.5 366.714844 175.175781 360.035156 175.175781 351.792969 C 175.175781 343.554688 168.5 336.875 160.257812 336.875 Z M 160.257812 336.875 " clip-rule="nonzero"/></clipPath><clipPath id="b20fe07afa"><path d="M 0.339844 0.875 L 30.175781 0.875 L 30.175781 30.714844 L 0.339844 30.714844 Z M 0.339844 0.875 " clip-rule="nonzero"/></clipPath><clipPath id="5fdecb4feb"><path d="M 15.257812 0.875 C 7.019531 0.875 0.339844 7.554688 0.339844 15.792969 C 0.339844 24.035156 7.019531 30.714844 15.257812 30.714844 C 23.5 30.714844 30.175781 24.035156 30.175781 15.792969 C 30.175781 7.554688 23.5 0.875 15.257812 0.875 Z M 15.257812 0.875 " clip-rule="nonzero"/></clipPath><clipPath id="c97bdb83a3"><rect x="0" width="31" y="0" height="31"/></clipPath><clipPath id="46a5dfad32"><path d="M 196.792969 284.261719 L 224.460938 284.261719 L 224.460938 311.929688 L 196.792969 311.929688 Z M 196.792969 284.261719 " clip-rule="nonzero"/></clipPath><clipPath id="5d7615a120"><path d="M 210.628906 284.261719 C 202.988281 284.261719 196.792969 290.457031 196.792969 298.09375 C 196.792969 305.734375 202.988281 311.929688 210.628906 311.929688 C 218.269531 311.929688 224.460938 305.734375 224.460938 298.09375 C 224.460938 290.457031 218.269531 284.261719 210.628906 284.261719 Z M 210.628906 284.261719 " clip-rule="nonzero"/></clipPath><clipPath id="1d6eeb8997"><path d="M 0.792969 0.261719 L 28.460938 0.261719 L 28.460938 27.929688 L 0.792969 27.929688 Z M 0.792969 0.261719 " clip-rule="nonzero"/></clipPath><clipPath id="7c64deeee6"><path d="M 14.628906 0.261719 C 6.988281 0.261719 0.792969 6.457031 0.792969 14.09375 C 0.792969 21.734375 6.988281 27.929688 14.628906 27.929688 C 22.269531 27.929688 28.460938 21.734375 28.460938 14.09375 C 28.460938 6.457031 22.269531 0.261719 14.628906 0.261719 Z M 14.628906 0.261719 " clip-rule="nonzero"/></clipPath><clipPath id="5eb8b42953"><rect x="0" width="29" y="0" height="28"/></clipPath><clipPath id="569dda5ca4"><path d="M 213.667969 259.246094 L 238.683594 259.246094 L 238.683594 284.261719 L 213.667969 284.261719 Z M 213.667969 259.246094 " clip-rule="nonzero"/></clipPath><clipPath id="8597bd5af0"><path d="M 226.175781 259.246094 C 219.269531 259.246094 213.667969 264.847656 213.667969 271.753906 C 213.667969 278.660156 219.269531 284.261719 226.175781 284.261719 C 233.085938 284.261719 238.683594 278.660156 238.683594 271.753906 C 238.683594 264.847656 233.085938 259.246094 226.175781 259.246094 Z M 226.175781 259.246094 " clip-rule="nonzero"/></clipPath><clipPath id="86eba04db1"><path d="M 0.667969 0.246094 L 25.683594 0.246094 L 25.683594 25.261719 L 0.667969 25.261719 Z M 0.667969 0.246094 " clip-rule="nonzero"/></clipPath><clipPath id="6d39ebdb3c"><path d="M 13.175781 0.246094 C 6.269531 0.246094 0.667969 5.847656 0.667969 12.753906 C 0.667969 19.660156 6.269531 25.261719 13.175781 25.261719 C 20.085938 25.261719 25.683594 19.660156 25.683594 12.753906 C 25.683594 5.847656 20.085938 0.246094 13.175781 0.246094 Z M 13.175781 0.246094 " clip-rule="nonzero"/></clipPath><clipPath id="a4fab681b6"><rect x="0" width="26" y="0" height="26"/></clipPath><clipPath id="da510d484d"><path d="M 213.667969 231.972656 L 236.96875 231.972656 L 236.96875 255.269531 L 213.667969 255.269531 Z M 213.667969 231.972656 " clip-rule="nonzero"/></clipPath><clipPath id="b604f059a4"><path d="M 225.320312 231.972656 C 218.886719 231.972656 213.667969 237.1875 213.667969 243.621094 C 213.667969 250.054688 218.886719 255.269531 225.320312 255.269531 C 231.753906 255.269531 236.96875 250.054688 236.96875 243.621094 C 236.96875 237.1875 231.753906 231.972656 225.320312 231.972656 Z M 225.320312 231.972656 " clip-rule="nonzero"/></clipPath><clipPath id="c847d431a6"><path d="M 0.667969 0.972656 L 23.96875 0.972656 L 23.96875 24.269531 L 0.667969 24.269531 Z M 0.667969 0.972656 " clip-rule="nonzero"/></clipPath><clipPath id="42b68357e7"><path d="M 12.320312 0.972656 C 5.886719 0.972656 0.667969 6.1875 0.667969 12.621094 C 0.667969 19.054688 5.886719 24.269531 12.320312 24.269531 C 18.753906 24.269531 23.96875 19.054688 23.96875 12.621094 C 23.96875 6.1875 18.753906 0.972656 12.320312 0.972656 Z M 12.320312 0.972656 " clip-rule="nonzero"/></clipPath><clipPath id="a0d70b34a1"><rect x="0" width="24" y="0" height="25"/></clipPath><clipPath id="b5e7229477"><path d="M 181.773438 259.246094 L 202.558594 259.246094 L 202.558594 280.027344 L 181.773438 280.027344 Z M 181.773438 259.246094 " clip-rule="nonzero"/></clipPath><clipPath id="2b411bee2b"><path d="M 192.167969 259.246094 C 186.425781 259.246094 181.773438 263.898438 181.773438 269.636719 C 181.773438 275.375 186.425781 280.027344 192.167969 280.027344 C 197.90625 280.027344 202.558594 275.375 202.558594 269.636719 C 202.558594 263.898438 197.90625 259.246094 192.167969 259.246094 Z M 192.167969 259.246094 " clip-rule="nonzero"/></clipPath><clipPath id="85a1298368"><path d="M 0.773438 0.246094 L 21.558594 0.246094 L 21.558594 21.027344 L 0.773438 21.027344 Z M 0.773438 0.246094 " clip-rule="nonzero"/></clipPath><clipPath id="cf756f04e1"><path d="M 11.167969 0.246094 C 5.425781 0.246094 0.773438 4.898438 0.773438 10.636719 C 0.773438 16.375 5.425781 21.027344 11.167969 21.027344 C 16.90625 21.027344 21.558594 16.375 21.558594 10.636719 C 21.558594 4.898438 16.90625 0.246094 11.167969 0.246094 Z M 11.167969 0.246094 " clip-rule="nonzero"/></clipPath><clipPath id="488c4a1052"><rect x="0" width="22" y="0" height="22"/></clipPath><clipPath id="4d6f72553a"><path d="M 163.851562 280.027344 L 188.867188 280.027344 L 188.867188 305.042969 L 163.851562 305.042969 Z M 163.851562 280.027344 " clip-rule="nonzero"/></clipPath><clipPath id="26848e97ae"><path d="M 176.359375 280.027344 C 169.453125 280.027344 163.851562 285.628906 163.851562 292.535156 C 163.851562 299.445312 169.453125 305.042969 176.359375 305.042969 C 183.265625 305.042969 188.867188 299.445312 188.867188 292.535156 C 188.867188 285.628906 183.265625 280.027344 176.359375 280.027344 Z M 176.359375 280.027344 " clip-rule="nonzero"/></clipPath><clipPath id="14f51e7cbb"><path d="M 0.851562 0.0273438 L 25.867188 0.0273438 L 25.867188 25.042969 L 0.851562 25.042969 Z M 0.851562 0.0273438 " clip-rule="nonzero"/></clipPath><clipPath id="41f20fca22"><path d="M 13.359375 0.0273438 C 6.453125 0.0273438 0.851562 5.628906 0.851562 12.535156 C 0.851562 19.445312 6.453125 25.042969 13.359375 25.042969 C 20.265625 25.042969 25.867188 19.445312 25.867188 12.535156 C 25.867188 5.628906 20.265625 0.0273438 13.359375 0.0273438 Z M 13.359375 0.0273438 " clip-rule="nonzero"/></clipPath><clipPath id="5c4f96c24e"><rect x="0" width="26" y="0" height="26"/></clipPath><clipPath id="0d20179ddf"><path d="M 137.871094 302.554688 L 163.851562 302.554688 L 163.851562 328.535156 L 137.871094 328.535156 Z M 137.871094 302.554688 " clip-rule="nonzero"/></clipPath><clipPath id="59b31f5d87"><path d="M 150.863281 302.554688 C 143.6875 302.554688 137.871094 308.371094 137.871094 315.542969 C 137.871094 322.71875 143.6875 328.535156 150.863281 328.535156 C 158.035156 328.535156 163.851562 322.71875 163.851562 315.542969 C 163.851562 308.371094 158.035156 302.554688 150.863281 302.554688 Z M 150.863281 302.554688 " clip-rule="nonzero"/></clipPath><clipPath id="0e8de82a17"><path d="M 0.871094 0.554688 L 26.851562 0.554688 L 26.851562 26.535156 L 0.871094 26.535156 Z M 0.871094 0.554688 " clip-rule="nonzero"/></clipPath><clipPath id="a8b3ad8782"><path d="M 13.863281 0.554688 C 6.6875 0.554688 0.871094 6.371094 0.871094 13.542969 C 0.871094 20.71875 6.6875 26.535156 13.863281 26.535156 C 21.035156 26.535156 26.851562 20.71875 26.851562 13.542969 C 26.851562 6.371094 21.035156 0.554688 13.863281 0.554688 Z M 13.863281 0.554688 " clip-rule="nonzero"/></clipPath><clipPath id="fcb04beb6e"><rect x="0" width="27" y="0" height="27"/></clipPath><clipPath id="f3d9050a67"><path d="M 111.039062 318.03125 L 139.910156 318.03125 L 139.910156 346.902344 L 111.039062 346.902344 Z M 111.039062 318.03125 " clip-rule="nonzero"/></clipPath><clipPath id="df5e5feb63"><path d="M 125.476562 318.03125 C 117.503906 318.03125 111.039062 324.492188 111.039062 332.464844 C 111.039062 340.441406 117.503906 346.902344 125.476562 346.902344 C 133.449219 346.902344 139.910156 340.441406 139.910156 332.464844 C 139.910156 324.492188 133.449219 318.03125 125.476562 318.03125 Z M 125.476562 318.03125 " clip-rule="nonzero"/></clipPath><clipPath id="b78ff992b8"><path d="M 0.0390625 0.03125 L 28.910156 0.03125 L 28.910156 28.902344 L 0.0390625 28.902344 Z M 0.0390625 0.03125 " clip-rule="nonzero"/></clipPath><clipPath id="8686f28172"><path d="M 14.476562 0.03125 C 6.503906 0.03125 0.0390625 6.492188 0.0390625 14.464844 C 0.0390625 22.441406 6.503906 28.902344 14.476562 28.902344 C 22.449219 28.902344 28.910156 22.441406 28.910156 14.464844 C 28.910156 6.492188 22.449219 0.03125 14.476562 0.03125 Z M 14.476562 0.03125 " clip-rule="nonzero"/></clipPath><clipPath id="24add2fa72"><rect x="0" width="29" y="0" height="29"/></clipPath><clipPath id="1c3dfaf059"><path d="M 81.953125 311.929688 L 105.382812 311.929688 L 105.382812 335.359375 L 81.953125 335.359375 Z M 81.953125 311.929688 " clip-rule="nonzero"/></clipPath><clipPath id="b48200f63c"><path d="M 93.667969 311.929688 C 87.195312 311.929688 81.953125 317.175781 81.953125 323.644531 C 81.953125 330.113281 87.195312 335.359375 93.667969 335.359375 C 100.136719 335.359375 105.382812 330.113281 105.382812 323.644531 C 105.382812 317.175781 100.136719 311.929688 93.667969 311.929688 Z M 93.667969 311.929688 " clip-rule="nonzero"/></clipPath><clipPath id="dfaa9a1d73"><path d="M 0.953125 0.929688 L 24.382812 0.929688 L 24.382812 24.359375 L 0.953125 24.359375 Z M 0.953125 0.929688 " clip-rule="nonzero"/></clipPath><clipPath id="3c5b3c3a9c"><path d="M 12.667969 0.929688 C 6.195312 0.929688 0.953125 6.175781 0.953125 12.644531 C 0.953125 19.113281 6.195312 24.359375 12.667969 24.359375 C 19.136719 24.359375 24.382812 19.113281 24.382812 12.644531 C 24.382812 6.175781 19.136719 0.929688 12.667969 0.929688 Z M 12.667969 0.929688 " clip-rule="nonzero"/></clipPath><clipPath id="ae909b9c3a"><rect x="0" width="25" y="0" height="25"/></clipPath><clipPath id="d737b2c3ab"><path d="M 100.414062 290.433594 L 126.738281 290.433594 L 126.738281 316.757812 L 100.414062 316.757812 Z M 100.414062 290.433594 " clip-rule="nonzero"/></clipPath><clipPath id="bd8f54689f"><path d="M 113.574219 290.433594 C 106.308594 290.433594 100.414062 296.328125 100.414062 303.597656 C 100.414062 310.867188 106.308594 316.757812 113.574219 316.757812 C 120.84375 316.757812 126.738281 310.867188 126.738281 303.597656 C 126.738281 296.328125 120.84375 290.433594 113.574219 290.433594 Z M 113.574219 290.433594 " clip-rule="nonzero"/></clipPath><clipPath id="81c0da5b51"><path d="M 0.414062 0.433594 L 26.738281 0.433594 L 26.738281 26.757812 L 0.414062 26.757812 Z M 0.414062 0.433594 " clip-rule="nonzero"/></clipPath><clipPath id="148e098b1d"><path d="M 13.574219 0.433594 C 6.308594 0.433594 0.414062 6.328125 0.414062 13.597656 C 0.414062 20.867188 6.308594 26.757812 13.574219 26.757812 C 20.84375 26.757812 26.738281 20.867188 26.738281 13.597656 C 26.738281 6.328125 20.84375 0.433594 13.574219 0.433594 Z M 13.574219 0.433594 " clip-rule="nonzero"/></clipPath><clipPath id="8bd965d76f"><rect x="0" width="27" y="0" height="27"/></clipPath><clipPath id="ee3cc2af0c"><path d="M 66.359375 280.027344 L 93.886719 280.027344 L 93.886719 307.554688 L 66.359375 307.554688 Z M 66.359375 280.027344 " clip-rule="nonzero"/></clipPath><clipPath id="41f4678dfb"><path d="M 80.125 280.027344 C 72.523438 280.027344 66.359375 286.191406 66.359375 293.792969 C 66.359375 301.394531 72.523438 307.554688 80.125 307.554688 C 87.722656 307.554688 93.886719 301.394531 93.886719 293.792969 C 93.886719 286.191406 87.722656 280.027344 80.125 280.027344 Z M 80.125 280.027344 " clip-rule="nonzero"/></clipPath><clipPath id="c613dd1380"><path d="M 0.359375 0.0273438 L 27.886719 0.0273438 L 27.886719 27.554688 L 0.359375 27.554688 Z M 0.359375 0.0273438 " clip-rule="nonzero"/></clipPath><clipPath id="080c36d4c6"><path d="M 14.125 0.0273438 C 6.523438 0.0273438 0.359375 6.191406 0.359375 13.792969 C 0.359375 21.394531 6.523438 27.554688 14.125 27.554688 C 21.722656 27.554688 27.886719 21.394531 27.886719 13.792969 C 27.886719 6.191406 21.722656 0.0273438 14.125 0.0273438 Z M 14.125 0.0273438 " clip-rule="nonzero"/></clipPath><clipPath id="d5e01acdb2"><rect x="0" width="28" y="0" height="28"/></clipPath><clipPath id="b3a1c23d52"><path d="M 44.734375 294.945312 L 67.816406 294.945312 L 67.816406 318.03125 L 44.734375 318.03125 Z M 44.734375 294.945312 " clip-rule="nonzero"/></clipPath><clipPath id="fbfcc884a9"><path d="M 56.277344 294.945312 C 49.902344 294.945312 44.734375 300.113281 44.734375 306.488281 C 44.734375 312.863281 49.902344 318.03125 56.277344 318.03125 C 62.652344 318.03125 67.816406 312.863281 67.816406 306.488281 C 67.816406 300.113281 62.652344 294.945312 56.277344 294.945312 Z M 56.277344 294.945312 " clip-rule="nonzero"/></clipPath><clipPath id="35a395232d"><path d="M 0.734375 0.945312 L 23.816406 0.945312 L 23.816406 24.03125 L 0.734375 24.03125 Z M 0.734375 0.945312 " clip-rule="nonzero"/></clipPath><clipPath id="55c5661605"><path d="M 12.277344 0.945312 C 5.902344 0.945312 0.734375 6.113281 0.734375 12.488281 C 0.734375 18.863281 5.902344 24.03125 12.277344 24.03125 C 18.652344 24.03125 23.816406 18.863281 23.816406 12.488281 C 23.816406 6.113281 18.652344 0.945312 12.277344 0.945312 Z M 12.277344 0.945312 " clip-rule="nonzero"/></clipPath><clipPath id="30578589f2"><rect x="0" width="24" y="0" height="25"/></clipPath><clipPath id="365d72da44"><path d="M 17.691406 303.597656 L 44.734375 303.597656 L 44.734375 330.636719 L 17.691406 330.636719 Z M 17.691406 303.597656 " clip-rule="nonzero"/></clipPath><clipPath id="468f2c62af"><path d="M 31.214844 303.597656 C 23.746094 303.597656 17.691406 309.652344 17.691406 317.117188 C 17.691406 324.585938 23.746094 330.636719 31.214844 330.636719 C 38.679688 330.636719 44.734375 324.585938 44.734375 317.117188 C 44.734375 309.652344 38.679688 303.597656 31.214844 303.597656 Z M 31.214844 303.597656 " clip-rule="nonzero"/></clipPath><clipPath id="98db078912"><path d="M 0.691406 0.597656 L 27.734375 0.597656 L 27.734375 27.636719 L 0.691406 27.636719 Z M 0.691406 0.597656 " clip-rule="nonzero"/></clipPath><clipPath id="9c25f5db1e"><path d="M 14.214844 0.597656 C 6.746094 0.597656 0.691406 6.652344 0.691406 14.117188 C 0.691406 21.585938 6.746094 27.636719 14.214844 27.636719 C 21.679688 27.636719 27.734375 21.585938 27.734375 14.117188 C 27.734375 6.652344 21.679688 0.597656 14.214844 0.597656 Z M 14.214844 0.597656 " clip-rule="nonzero"/></clipPath><clipPath id="fe110eff18"><rect x="0" width="28" y="0" height="28"/></clipPath><clipPath id="a81772cd3c"><path d="M 0.316406 264.796875 L 35.070312 264.796875 L 35.070312 299.554688 L 0.316406 299.554688 Z M 0.316406 264.796875 " clip-rule="nonzero"/></clipPath><clipPath id="ecaa34bc13"><path d="M 17.691406 264.796875 C 8.09375 264.796875 0.316406 272.578125 0.316406 282.175781 C 0.316406 291.773438 8.09375 299.554688 17.691406 299.554688 C 27.289062 299.554688 35.070312 291.773438 35.070312 282.175781 C 35.070312 272.578125 27.289062 264.796875 17.691406 264.796875 Z M 17.691406 264.796875 " clip-rule="nonzero"/></clipPath><clipPath id="83a3d20a9b"><path d="M 0.316406 0.796875 L 35.070312 0.796875 L 35.070312 35.554688 L 0.316406 35.554688 Z M 0.316406 0.796875 " clip-rule="nonzero"/></clipPath><clipPath id="936631c0d4"><path d="M 17.691406 0.796875 C 8.09375 0.796875 0.316406 8.578125 0.316406 18.175781 C 0.316406 27.773438 8.09375 35.554688 17.691406 35.554688 C 27.289062 35.554688 35.070312 27.773438 35.070312 18.175781 C 35.070312 8.578125 27.289062 0.796875 17.691406 0.796875 Z M 17.691406 0.796875 " clip-rule="nonzero"/></clipPath><clipPath id="68deee7d71"><rect x="0" width="36" y="0" height="36"/></clipPath><clipPath id="5e466b8b6f"><path d="M 0.316406 224.492188 L 35.070312 224.492188 L 35.070312 259.246094 L 0.316406 259.246094 Z M 0.316406 224.492188 " clip-rule="nonzero"/></clipPath><clipPath id="1d6712886d"><path d="M 17.691406 224.492188 C 8.09375 224.492188 0.316406 232.269531 0.316406 241.867188 C 0.316406 251.464844 8.09375 259.246094 17.691406 259.246094 C 27.289062 259.246094 35.070312 251.464844 35.070312 241.867188 C 35.070312 232.269531 27.289062 224.492188 17.691406 224.492188 Z M 17.691406 224.492188 " clip-rule="nonzero"/></clipPath><clipPath id="336bf26dbd"><path d="M 0.316406 0.492188 L 35.070312 0.492188 L 35.070312 35.246094 L 0.316406 35.246094 Z M 0.316406 0.492188 " clip-rule="nonzero"/></clipPath><clipPath id="3acb1fb7ff"><path d="M 17.691406 0.492188 C 8.09375 0.492188 0.316406 8.269531 0.316406 17.867188 C 0.316406 27.464844 8.09375 35.246094 17.691406 35.246094 C 27.289062 35.246094 35.070312 27.464844 35.070312 17.867188 C 35.070312 8.269531 27.289062 0.492188 17.691406 0.492188 Z M 17.691406 0.492188 " clip-rule="nonzero"/></clipPath><clipPath id="62aebac4cf"><rect x="0" width="36" y="0" height="36"/></clipPath><clipPath id="0e6ac4c1cf"><path d="M 37.863281 261.9375 L 66.359375 261.9375 L 66.359375 290.433594 L 37.863281 290.433594 Z M 37.863281 261.9375 " clip-rule="nonzero"/></clipPath><clipPath id="2e6dafd579"><path d="M 52.109375 261.9375 C 44.242188 261.9375 37.863281 268.316406 37.863281 276.1875 C 37.863281 284.054688 44.242188 290.433594 52.109375 290.433594 C 59.980469 290.433594 66.359375 284.054688 66.359375 276.1875 C 66.359375 268.316406 59.980469 261.9375 52.109375 261.9375 Z M 52.109375 261.9375 " clip-rule="nonzero"/></clipPath><clipPath id="fb7c888449"><path d="M 0.863281 0.9375 L 29.359375 0.9375 L 29.359375 29.433594 L 0.863281 29.433594 Z M 0.863281 0.9375 " clip-rule="nonzero"/></clipPath><clipPath id="80d0bcaf45"><path d="M 15.109375 0.9375 C 7.242188 0.9375 0.863281 7.316406 0.863281 15.1875 C 0.863281 23.054688 7.242188 29.433594 15.109375 29.433594 C 22.980469 29.433594 29.359375 23.054688 29.359375 15.1875 C 29.359375 7.316406 22.980469 0.9375 15.109375 0.9375 Z M 15.109375 0.9375 " clip-rule="nonzero"/></clipPath><clipPath id="2c385d20d9"><rect x="0" width="30" y="0" height="30"/></clipPath><clipPath id="46a156bf35"><path d="M 93.886719 265.332031 L 113.574219 265.332031 L 113.574219 285.019531 L 93.886719 285.019531 Z M 93.886719 265.332031 " clip-rule="nonzero"/></clipPath><clipPath id="6e0f4bc59d"><path d="M 103.730469 265.332031 C 98.292969 265.332031 93.886719 269.738281 93.886719 275.175781 C 93.886719 280.613281 98.292969 285.019531 103.730469 285.019531 C 109.167969 285.019531 113.574219 280.613281 113.574219 275.175781 C 113.574219 269.738281 109.167969 265.332031 103.730469 265.332031 Z M 103.730469 265.332031 " clip-rule="nonzero"/></clipPath><clipPath id="8d62be7756"><path d="M 0.886719 0.332031 L 20.574219 0.332031 L 20.574219 20.019531 L 0.886719 20.019531 Z M 0.886719 0.332031 " clip-rule="nonzero"/></clipPath><clipPath id="db2894b17f"><path d="M 10.730469 0.332031 C 5.292969 0.332031 0.886719 4.738281 0.886719 10.175781 C 0.886719 15.613281 5.292969 20.019531 10.730469 20.019531 C 16.167969 20.019531 20.574219 15.613281 20.574219 10.175781 C 20.574219 4.738281 16.167969 0.332031 10.730469 0.332031 Z M 10.730469 0.332031 " clip-rule="nonzero"/></clipPath><clipPath id="aa73f14e86"><rect x="0" width="21" y="0" height="21"/></clipPath><clipPath id="8c53b3c141"><path d="M 66.359375 248.175781 L 89.96875 248.175781 L 89.96875 271.78125 L 66.359375 271.78125 Z M 66.359375 248.175781 " clip-rule="nonzero"/></clipPath><clipPath id="fdcaae1aa1"><path d="M 78.164062 248.175781 C 71.644531 248.175781 66.359375 253.460938 66.359375 259.976562 C 66.359375 266.496094 71.644531 271.78125 78.164062 271.78125 C 84.683594 271.78125 89.96875 266.496094 89.96875 259.976562 C 89.96875 253.460938 84.683594 248.175781 78.164062 248.175781 Z M 78.164062 248.175781 " clip-rule="nonzero"/></clipPath><clipPath id="8305fd8099"><path d="M 0.359375 0.175781 L 23.96875 0.175781 L 23.96875 23.78125 L 0.359375 23.78125 Z M 0.359375 0.175781 " clip-rule="nonzero"/></clipPath><clipPath id="573e50f865"><path d="M 12.164062 0.175781 C 5.644531 0.175781 0.359375 5.460938 0.359375 11.976562 C 0.359375 18.496094 5.644531 23.78125 12.164062 23.78125 C 18.683594 23.78125 23.96875 18.496094 23.96875 11.976562 C 23.96875 5.460938 18.683594 0.175781 12.164062 0.175781 Z M 12.164062 0.175781 " clip-rule="nonzero"/></clipPath><clipPath id="25fa723b55"><rect x="0" width="24" y="0" height="24"/></clipPath><clipPath id="0e9ca92f7c"><path d="M 131.171875 276.1875 L 153.082031 276.1875 L 153.082031 298.09375 L 131.171875 298.09375 Z M 131.171875 276.1875 " clip-rule="nonzero"/></clipPath><clipPath id="23400a4dae"><path d="M 142.128906 276.1875 C 136.078125 276.1875 131.171875 281.089844 131.171875 287.140625 C 131.171875 293.191406 136.078125 298.09375 142.128906 298.09375 C 148.175781 298.09375 153.082031 293.191406 153.082031 287.140625 C 153.082031 281.089844 148.175781 276.1875 142.128906 276.1875 Z M 142.128906 276.1875 " clip-rule="nonzero"/></clipPath><clipPath id="548aebfc5b"><path d="M 0.171875 0.1875 L 22.082031 0.1875 L 22.082031 22.09375 L 0.171875 22.09375 Z M 0.171875 0.1875 " clip-rule="nonzero"/></clipPath><clipPath id="33509810c6"><path d="M 11.128906 0.1875 C 5.078125 0.1875 0.171875 5.089844 0.171875 11.140625 C 0.171875 17.191406 5.078125 22.09375 11.128906 22.09375 C 17.175781 22.09375 22.082031 17.191406 22.082031 11.140625 C 22.082031 5.089844 17.175781 0.1875 11.128906 0.1875 Z M 11.128906 0.1875 " clip-rule="nonzero"/></clipPath><clipPath id="aaf15da3fa"><rect x="0" width="23" y="0" height="23"/></clipPath><clipPath id="130713b7f3"><path d="M 152.667969 251.398438 L 174.578125 251.398438 L 174.578125 273.308594 L 152.667969 273.308594 Z M 152.667969 251.398438 " clip-rule="nonzero"/></clipPath><clipPath id="d79181073b"><path d="M 163.621094 251.398438 C 157.574219 251.398438 152.667969 256.304688 152.667969 262.355469 C 152.667969 268.402344 157.574219 273.308594 163.621094 273.308594 C 169.671875 273.308594 174.578125 268.402344 174.578125 262.355469 C 174.578125 256.304688 169.671875 251.398438 163.621094 251.398438 Z M 163.621094 251.398438 " clip-rule="nonzero"/></clipPath><clipPath id="e256a31d62"><path d="M 0.667969 0.398438 L 22.578125 0.398438 L 22.578125 22.308594 L 0.667969 22.308594 Z M 0.667969 0.398438 " clip-rule="nonzero"/></clipPath><clipPath id="aaef3cd085"><path d="M 11.621094 0.398438 C 5.574219 0.398438 0.667969 5.304688 0.667969 11.355469 C 0.667969 17.402344 5.574219 22.308594 11.621094 22.308594 C 17.671875 22.308594 22.578125 17.402344 22.578125 11.355469 C 22.578125 5.304688 17.671875 0.398438 11.621094 0.398438 Z M 11.621094 0.398438 " clip-rule="nonzero"/></clipPath><clipPath id="a971d537f1"><rect x="0" width="23" y="0" height="23"/></clipPath><clipPath id="ca39495be1"><path d="M 170.804688 231.570312 L 187.410156 231.570312 L 187.410156 248.175781 L 170.804688 248.175781 Z M 170.804688 231.570312 " clip-rule="nonzero"/></clipPath><clipPath id="ecfcfc9a72"><path d="M 179.105469 231.570312 C 174.519531 231.570312 170.804688 235.285156 170.804688 239.871094 C 170.804688 244.457031 174.519531 248.175781 179.105469 248.175781 C 183.691406 248.175781 187.410156 244.457031 187.410156 239.871094 C 187.410156 235.285156 183.691406 231.570312 179.105469 231.570312 Z M 179.105469 231.570312 " clip-rule="nonzero"/></clipPath><clipPath id="ea21cc620b"><path d="M 0.804688 0.570312 L 17.410156 0.570312 L 17.410156 17.175781 L 0.804688 17.175781 Z M 0.804688 0.570312 " clip-rule="nonzero"/></clipPath><clipPath id="508bfedcc3"><path d="M 9.105469 0.570312 C 4.519531 0.570312 0.804688 4.285156 0.804688 8.871094 C 0.804688 13.457031 4.519531 17.175781 9.105469 17.175781 C 13.691406 17.175781 17.410156 13.457031 17.410156 8.871094 C 17.410156 4.285156 13.691406 0.570312 9.105469 0.570312 Z M 9.105469 0.570312 " clip-rule="nonzero"/></clipPath><clipPath id="6621e37e6c"><rect x="0" width="18" y="0" height="18"/></clipPath><clipPath id="981c6bffe5"><path d="M 196.792969 241.4375 L 210.628906 241.4375 L 210.628906 255.269531 L 196.792969 255.269531 Z M 196.792969 241.4375 " clip-rule="nonzero"/></clipPath><clipPath id="745fc0a5fe"><path d="M 203.710938 241.4375 C 199.890625 241.4375 196.792969 244.535156 196.792969 248.355469 C 196.792969 252.175781 199.890625 255.269531 203.710938 255.269531 C 207.53125 255.269531 210.628906 252.175781 210.628906 248.355469 C 210.628906 244.535156 207.53125 241.4375 203.710938 241.4375 Z M 203.710938 241.4375 " clip-rule="nonzero"/></clipPath><clipPath id="b4280b879e"><path d="M 0.792969 0.4375 L 14.628906 0.4375 L 14.628906 14.269531 L 0.792969 14.269531 Z M 0.792969 0.4375 " clip-rule="nonzero"/></clipPath><clipPath id="be2f85af73"><path d="M 7.710938 0.4375 C 3.890625 0.4375 0.792969 3.535156 0.792969 7.355469 C 0.792969 11.175781 3.890625 14.269531 7.710938 14.269531 C 11.53125 14.269531 14.628906 11.175781 14.628906 7.355469 C 14.628906 3.535156 11.53125 0.4375 7.710938 0.4375 Z M 7.710938 0.4375 " clip-rule="nonzero"/></clipPath><clipPath id="7f01b47f62"><rect x="0" width="15" y="0" height="15"/></clipPath><clipPath id="22b63e5022"><path d="M 202.558594 216.347656 L 217.777344 216.347656 L 217.777344 231.570312 L 202.558594 231.570312 Z M 202.558594 216.347656 " clip-rule="nonzero"/></clipPath><clipPath id="132ec6a72f"><path d="M 210.167969 216.347656 C 205.964844 216.347656 202.558594 219.757812 202.558594 223.957031 C 202.558594 228.160156 205.964844 231.570312 210.167969 231.570312 C 214.371094 231.570312 217.777344 228.160156 217.777344 223.957031 C 217.777344 219.757812 214.371094 216.347656 210.167969 216.347656 Z M 210.167969 216.347656 " clip-rule="nonzero"/></clipPath><clipPath id="22531d6de8"><path d="M 0.558594 0.347656 L 15.777344 0.347656 L 15.777344 15.570312 L 0.558594 15.570312 Z M 0.558594 0.347656 " clip-rule="nonzero"/></clipPath><clipPath id="45249460d5"><path d="M 8.167969 0.347656 C 3.964844 0.347656 0.558594 3.757812 0.558594 7.957031 C 0.558594 12.160156 3.964844 15.570312 8.167969 15.570312 C 12.371094 15.570312 15.777344 12.160156 15.777344 7.957031 C 15.777344 3.757812 12.371094 0.347656 8.167969 0.347656 Z M 8.167969 0.347656 " clip-rule="nonzero"/></clipPath><clipPath id="80a4f1429b"><rect x="0" width="16" y="0" height="16"/></clipPath><clipPath id="f66ae4bc76"><path d="M 222.804688 214.890625 L 235.511719 214.890625 L 235.511719 227.597656 L 222.804688 227.597656 Z M 222.804688 214.890625 " clip-rule="nonzero"/></clipPath><clipPath id="7288933e94"><path d="M 229.15625 214.890625 C 225.648438 214.890625 222.804688 217.734375 222.804688 221.242188 C 222.804688 224.753906 225.648438 227.597656 229.15625 227.597656 C 232.667969 227.597656 235.511719 224.753906 235.511719 221.242188 C 235.511719 217.734375 232.667969 214.890625 229.15625 214.890625 Z M 229.15625 214.890625 " clip-rule="nonzero"/></clipPath><clipPath id="c68e1f6137"><path d="M 0.804688 0.890625 L 13.511719 0.890625 L 13.511719 13.597656 L 0.804688 13.597656 Z M 0.804688 0.890625 " clip-rule="nonzero"/></clipPath><clipPath id="3f1643be41"><path d="M 7.15625 0.890625 C 3.648438 0.890625 0.804688 3.734375 0.804688 7.242188 C 0.804688 10.753906 3.648438 13.597656 7.15625 13.597656 C 10.667969 13.597656 13.511719 10.753906 13.511719 7.242188 C 13.511719 3.734375 10.667969 0.890625 7.15625 0.890625 Z M 7.15625 0.890625 " clip-rule="nonzero"/></clipPath><clipPath id="589361909c"><rect x="0" width="14" y="0" height="14"/></clipPath><clipPath id="b54103c649"><path d="M 203.710938 191.257812 L 221.277344 191.257812 L 221.277344 208.824219 L 203.710938 208.824219 Z M 203.710938 191.257812 " clip-rule="nonzero"/></clipPath><clipPath id="4425669fad"><path d="M 212.496094 191.257812 C 207.644531 191.257812 203.710938 195.1875 203.710938 200.039062 C 203.710938 204.890625 207.644531 208.824219 212.496094 208.824219 C 217.347656 208.824219 221.277344 204.890625 221.277344 200.039062 C 221.277344 195.1875 217.347656 191.257812 212.496094 191.257812 Z M 212.496094 191.257812 " clip-rule="nonzero"/></clipPath><clipPath id="5cd3868ce3"><path d="M 0.710938 0.257812 L 18.277344 0.257812 L 18.277344 17.824219 L 0.710938 17.824219 Z M 0.710938 0.257812 " clip-rule="nonzero"/></clipPath><clipPath id="70e932f8f3"><path d="M 9.496094 0.257812 C 4.644531 0.257812 0.710938 4.1875 0.710938 9.039062 C 0.710938 13.890625 4.644531 17.824219 9.496094 17.824219 C 14.347656 17.824219 18.277344 13.890625 18.277344 9.039062 C 18.277344 4.1875 14.347656 0.257812 9.496094 0.257812 Z M 9.496094 0.257812 " clip-rule="nonzero"/></clipPath><clipPath id="0e819f9bdf"><rect x="0" width="19" y="0" height="18"/></clipPath><clipPath id="ba3050b828"><path d="M 170.804688 198.773438 L 182.710938 198.773438 L 182.710938 210.683594 L 170.804688 210.683594 Z M 170.804688 198.773438 " clip-rule="nonzero"/></clipPath><clipPath id="287e718032"><path d="M 176.757812 198.773438 C 173.46875 198.773438 170.804688 201.441406 170.804688 204.730469 C 170.804688 208.019531 173.46875 210.683594 176.757812 210.683594 C 180.046875 210.683594 182.710938 208.019531 182.710938 204.730469 C 182.710938 201.441406 180.046875 198.773438 176.757812 198.773438 Z M 176.757812 198.773438 " clip-rule="nonzero"/></clipPath><clipPath id="003cc66f42"><path d="M 0.804688 0.773438 L 12.710938 0.773438 L 12.710938 12.683594 L 0.804688 12.683594 Z M 0.804688 0.773438 " clip-rule="nonzero"/></clipPath><clipPath id="7e1d402e51"><path d="M 6.757812 0.773438 C 3.46875 0.773438 0.804688 3.441406 0.804688 6.730469 C 0.804688 10.019531 3.46875 12.683594 6.757812 12.683594 C 10.046875 12.683594 12.710938 10.019531 12.710938 6.730469 C 12.710938 3.441406 10.046875 0.773438 6.757812 0.773438 Z M 6.757812 0.773438 " clip-rule="nonzero"/></clipPath><clipPath id="ee781197ea"><rect x="0" width="13" y="0" height="13"/></clipPath><clipPath id="147dcc9bb1"><path d="M 203.710938 172.640625 L 215.039062 172.640625 L 215.039062 183.964844 L 203.710938 183.964844 Z M 203.710938 172.640625 " clip-rule="nonzero"/></clipPath><clipPath id="c4c6b3c904"><path d="M 209.375 172.640625 C 206.246094 172.640625 203.710938 175.175781 203.710938 178.304688 C 203.710938 181.429688 206.246094 183.964844 209.375 183.964844 C 212.5 183.964844 215.039062 181.429688 215.039062 178.304688 C 215.039062 175.175781 212.5 172.640625 209.375 172.640625 Z M 209.375 172.640625 " clip-rule="nonzero"/></clipPath><clipPath id="1203908972"><path d="M 0.710938 0.640625 L 12.039062 0.640625 L 12.039062 11.964844 L 0.710938 11.964844 Z M 0.710938 0.640625 " clip-rule="nonzero"/></clipPath><clipPath id="5398c6d6f9"><path d="M 6.375 0.640625 C 3.246094 0.640625 0.710938 3.175781 0.710938 6.304688 C 0.710938 9.429688 3.246094 11.964844 6.375 11.964844 C 9.5 11.964844 12.039062 9.429688 12.039062 6.304688 C 12.039062 3.175781 9.5 0.640625 6.375 0.640625 Z M 6.375 0.640625 " clip-rule="nonzero"/></clipPath><clipPath id="620eb013ea"><rect x="0" width="13" y="0" height="12"/></clipPath><clipPath id="fd0b964a55"><path d="M 97.574219 232.640625 L 118.398438 232.640625 L 118.398438 253.464844 L 97.574219 253.464844 Z M 97.574219 232.640625 " clip-rule="nonzero"/></clipPath><clipPath id="c7826532bc"><path d="M 107.984375 232.640625 C 102.234375 232.640625 97.574219 237.304688 97.574219 243.054688 C 97.574219 248.804688 102.234375 253.464844 107.984375 253.464844 C 113.734375 253.464844 118.398438 248.804688 118.398438 243.054688 C 118.398438 237.304688 113.734375 232.640625 107.984375 232.640625 Z M 107.984375 232.640625 " clip-rule="nonzero"/></clipPath><clipPath id="c2f44894a6"><path d="M 0.574219 0.640625 L 21.398438 0.640625 L 21.398438 21.464844 L 0.574219 21.464844 Z M 0.574219 0.640625 " clip-rule="nonzero"/></clipPath><clipPath id="bbc99b06b6"><path d="M 10.984375 0.640625 C 5.234375 0.640625 0.574219 5.304688 0.574219 11.054688 C 0.574219 16.804688 5.234375 21.464844 10.984375 21.464844 C 16.734375 21.464844 21.398438 16.804688 21.398438 11.054688 C 21.398438 5.304688 16.734375 0.640625 10.984375 0.640625 Z M 10.984375 0.640625 " clip-rule="nonzero"/></clipPath><clipPath id="901335a8c2"><rect x="0" width="22" y="0" height="22"/></clipPath><clipPath id="e37cef7504"><path d="M 40.308594 232.640625 L 65.230469 232.640625 L 65.230469 257.5625 L 40.308594 257.5625 Z M 40.308594 232.640625 " clip-rule="nonzero"/></clipPath><clipPath id="4e33c77565"><path d="M 52.769531 232.640625 C 45.890625 232.640625 40.308594 238.21875 40.308594 245.101562 C 40.308594 251.984375 45.890625 257.5625 52.769531 257.5625 C 59.652344 257.5625 65.230469 251.984375 65.230469 245.101562 C 65.230469 238.21875 59.652344 232.640625 52.769531 232.640625 Z M 52.769531 232.640625 " clip-rule="nonzero"/></clipPath><clipPath id="cd734eff20"><path d="M 0.308594 0.640625 L 25.230469 0.640625 L 25.230469 25.5625 L 0.308594 25.5625 Z M 0.308594 0.640625 " clip-rule="nonzero"/></clipPath><clipPath id="e757d2825c"><path d="M 12.769531 0.640625 C 5.890625 0.640625 0.308594 6.21875 0.308594 13.101562 C 0.308594 19.984375 5.890625 25.5625 12.769531 25.5625 C 19.652344 25.5625 25.230469 19.984375 25.230469 13.101562 C 25.230469 6.21875 19.652344 0.640625 12.769531 0.640625 Z M 12.769531 0.640625 " clip-rule="nonzero"/></clipPath><clipPath id="60ba770980"><rect x="0" width="26" y="0" height="26"/></clipPath><clipPath id="43ba114e4c"><path d="M 67.75 221.40625 L 89.96875 221.40625 L 89.96875 243.621094 L 67.75 243.621094 Z M 67.75 221.40625 " clip-rule="nonzero"/></clipPath><clipPath id="efc4ef6cbb"><path d="M 78.859375 221.40625 C 72.726562 221.40625 67.75 226.378906 67.75 232.511719 C 67.75 238.648438 72.726562 243.621094 78.859375 243.621094 C 84.996094 243.621094 89.96875 238.648438 89.96875 232.511719 C 89.96875 226.378906 84.996094 221.40625 78.859375 221.40625 Z M 78.859375 221.40625 " clip-rule="nonzero"/></clipPath><clipPath id="f8098d8fd4"><path d="M 0.75 0.40625 L 22.96875 0.40625 L 22.96875 22.621094 L 0.75 22.621094 Z M 0.75 0.40625 " clip-rule="nonzero"/></clipPath><clipPath id="28cad45792"><path d="M 11.859375 0.40625 C 5.726562 0.40625 0.75 5.378906 0.75 11.511719 C 0.75 17.648438 5.726562 22.621094 11.859375 22.621094 C 17.996094 22.621094 22.96875 17.648438 22.96875 11.511719 C 22.96875 5.378906 17.996094 0.40625 11.859375 0.40625 Z M 11.859375 0.40625 " clip-rule="nonzero"/></clipPath><clipPath id="a96225ba63"><rect x="0" width="23" y="0" height="23"/></clipPath><clipPath id="deed5b410b"><path d="M 43.015625 200.613281 L 66.359375 200.613281 L 66.359375 223.957031 L 43.015625 223.957031 Z M 43.015625 200.613281 " clip-rule="nonzero"/></clipPath><clipPath id="0cf7a2c38a"><path d="M 54.6875 200.613281 C 48.242188 200.613281 43.015625 205.839844 43.015625 212.285156 C 43.015625 218.734375 48.242188 223.957031 54.6875 223.957031 C 61.132812 223.957031 66.359375 218.734375 66.359375 212.285156 C 66.359375 205.839844 61.132812 200.613281 54.6875 200.613281 Z M 54.6875 200.613281 " clip-rule="nonzero"/></clipPath><clipPath id="0ee776a611"><path d="M 0.015625 0.613281 L 23.359375 0.613281 L 23.359375 23.957031 L 0.015625 23.957031 Z M 0.015625 0.613281 " clip-rule="nonzero"/></clipPath><clipPath id="1e5b8ddfcf"><path d="M 11.6875 0.613281 C 5.242188 0.613281 0.015625 5.839844 0.015625 12.285156 C 0.015625 18.734375 5.242188 23.957031 11.6875 23.957031 C 18.132812 23.957031 23.359375 18.734375 23.359375 12.285156 C 23.359375 5.839844 18.132812 0.613281 11.6875 0.613281 Z M 11.6875 0.613281 " clip-rule="nonzero"/></clipPath><clipPath id="44e5cc4eb1"><rect x="0" width="24" y="0" height="24"/></clipPath><clipPath id="64bab0cd9c"><path d="M 11.726562 189.433594 L 38.640625 189.433594 L 38.640625 216.347656 L 11.726562 216.347656 Z M 11.726562 189.433594 " clip-rule="nonzero"/></clipPath><clipPath id="d00d3625c3"><path d="M 25.183594 189.433594 C 17.753906 189.433594 11.726562 195.457031 11.726562 202.890625 C 11.726562 210.324219 17.753906 216.347656 25.183594 216.347656 C 32.617188 216.347656 38.640625 210.324219 38.640625 202.890625 C 38.640625 195.457031 32.617188 189.433594 25.183594 189.433594 Z M 25.183594 189.433594 " clip-rule="nonzero"/></clipPath><clipPath id="fb9fb7e40d"><path d="M 0.726562 0.433594 L 27.640625 0.433594 L 27.640625 27.347656 L 0.726562 27.347656 Z M 0.726562 0.433594 " clip-rule="nonzero"/></clipPath><clipPath id="c0e2349fe3"><path d="M 14.183594 0.433594 C 6.753906 0.433594 0.726562 6.457031 0.726562 13.890625 C 0.726562 21.324219 6.753906 27.347656 14.183594 27.347656 C 21.617188 27.347656 27.640625 21.324219 27.640625 13.890625 C 27.640625 6.457031 21.617188 0.433594 14.183594 0.433594 Z M 14.183594 0.433594 " clip-rule="nonzero"/></clipPath><clipPath id="4fc0db4c05"><rect x="0" width="28" y="0" height="28"/></clipPath><clipPath id="3859a78a98"><path d="M 83.167969 196.273438 L 105.382812 196.273438 L 105.382812 218.488281 L 83.167969 218.488281 Z M 83.167969 196.273438 " clip-rule="nonzero"/></clipPath><clipPath id="95d0637adf"><path d="M 94.273438 196.273438 C 88.140625 196.273438 83.167969 201.246094 83.167969 207.378906 C 83.167969 213.515625 88.140625 218.488281 94.273438 218.488281 C 100.410156 218.488281 105.382812 213.515625 105.382812 207.378906 C 105.382812 201.246094 100.410156 196.273438 94.273438 196.273438 Z M 94.273438 196.273438 " clip-rule="nonzero"/></clipPath><clipPath id="0433943afb"><path d="M 0.167969 0.273438 L 22.382812 0.273438 L 22.382812 22.488281 L 0.167969 22.488281 Z M 0.167969 0.273438 " clip-rule="nonzero"/></clipPath><clipPath id="260655888c"><path d="M 11.273438 0.273438 C 5.140625 0.273438 0.167969 5.246094 0.167969 11.378906 C 0.167969 17.515625 5.140625 22.488281 11.273438 22.488281 C 17.410156 22.488281 22.382812 17.515625 22.382812 11.378906 C 22.382812 5.246094 17.410156 0.273438 11.273438 0.273438 Z M 11.273438 0.273438 " clip-rule="nonzero"/></clipPath><clipPath id="ec86ef41a6"><rect x="0" width="23" y="0" height="23"/></clipPath><clipPath id="bb25f97d93"><path d="M 113.574219 207.378906 L 139.09375 207.378906 L 139.09375 232.902344 L 113.574219 232.902344 Z M 113.574219 207.378906 " clip-rule="nonzero"/></clipPath><clipPath id="581e096ee3"><path d="M 126.335938 207.378906 C 119.289062 207.378906 113.574219 213.09375 113.574219 220.140625 C 113.574219 227.1875 119.289062 232.902344 126.335938 232.902344 C 133.382812 232.902344 139.09375 227.1875 139.09375 220.140625 C 139.09375 213.09375 133.382812 207.378906 126.335938 207.378906 Z M 126.335938 207.378906 " clip-rule="nonzero"/></clipPath><clipPath id="06b4f6e9e2"><path d="M 0.574219 0.378906 L 26.09375 0.378906 L 26.09375 25.902344 L 0.574219 25.902344 Z M 0.574219 0.378906 " clip-rule="nonzero"/></clipPath><clipPath id="6f2a167caa"><path d="M 13.335938 0.378906 C 6.289062 0.378906 0.574219 6.09375 0.574219 13.140625 C 0.574219 20.1875 6.289062 25.902344 13.335938 25.902344 C 20.382812 25.902344 26.09375 20.1875 26.09375 13.140625 C 26.09375 6.09375 20.382812 0.378906 13.335938 0.378906 Z M 13.335938 0.378906 " clip-rule="nonzero"/></clipPath><clipPath id="2a72532f41"><rect x="0" width="27" y="0" height="26"/></clipPath><clipPath id="4fbc4b189d"><path d="M 60.945312 175.09375 L 88.300781 175.09375 L 88.300781 202.449219 L 60.945312 202.449219 Z M 60.945312 175.09375 " clip-rule="nonzero"/></clipPath><clipPath id="996f497515"><path d="M 74.625 175.09375 C 67.070312 175.09375 60.945312 181.21875 60.945312 188.773438 C 60.945312 196.328125 67.070312 202.449219 74.625 202.449219 C 82.179688 202.449219 88.300781 196.328125 88.300781 188.773438 C 88.300781 181.21875 82.179688 175.09375 74.625 175.09375 Z M 74.625 175.09375 " clip-rule="nonzero"/></clipPath><clipPath id="d4b8a9b9ec"><path d="M 0.945312 0.09375 L 28.300781 0.09375 L 28.300781 27.449219 L 0.945312 27.449219 Z M 0.945312 0.09375 " clip-rule="nonzero"/></clipPath><clipPath id="b2c4df403c"><path d="M 14.625 0.09375 C 7.070312 0.09375 0.945312 6.21875 0.945312 13.773438 C 0.945312 21.328125 7.070312 27.449219 14.625 27.449219 C 22.179688 27.449219 28.300781 21.328125 28.300781 13.773438 C 28.300781 6.21875 22.179688 0.09375 14.625 0.09375 Z M 14.625 0.09375 " clip-rule="nonzero"/></clipPath><clipPath id="1ca399ea95"><rect x="0" width="29" y="0" height="28"/></clipPath><clipPath id="50f7e55ea0"><path d="M 32.472656 158.339844 L 56.277344 158.339844 L 56.277344 182.144531 L 32.472656 182.144531 Z M 32.472656 158.339844 " clip-rule="nonzero"/></clipPath><clipPath id="ae880b1460"><path d="M 44.375 158.339844 C 37.800781 158.339844 32.472656 163.667969 32.472656 170.242188 C 32.472656 176.816406 37.800781 182.144531 44.375 182.144531 C 50.949219 182.144531 56.277344 176.816406 56.277344 170.242188 C 56.277344 163.667969 50.949219 158.339844 44.375 158.339844 Z M 44.375 158.339844 " clip-rule="nonzero"/></clipPath><clipPath id="4fb2430444"><path d="M 0.472656 0.339844 L 24.277344 0.339844 L 24.277344 24.144531 L 0.472656 24.144531 Z M 0.472656 0.339844 " clip-rule="nonzero"/></clipPath><clipPath id="8e7d8cc432"><path d="M 12.375 0.339844 C 5.800781 0.339844 0.472656 5.667969 0.472656 12.242188 C 0.472656 18.816406 5.800781 24.144531 12.375 24.144531 C 18.949219 24.144531 24.277344 18.816406 24.277344 12.242188 C 24.277344 5.667969 18.949219 0.339844 12.375 0.339844 Z M 12.375 0.339844 " clip-rule="nonzero"/></clipPath><clipPath id="84e0c0ccdf"><rect x="0" width="25" y="0" height="25"/></clipPath><clipPath id="92f2d90ff0"><path d="M 134.898438 182.144531 L 157.113281 182.144531 L 157.113281 204.359375 L 134.898438 204.359375 Z M 134.898438 182.144531 " clip-rule="nonzero"/></clipPath><clipPath id="e355fcf12f"><path d="M 146.007812 182.144531 C 139.871094 182.144531 134.898438 187.117188 134.898438 193.25 C 134.898438 199.386719 139.871094 204.359375 146.007812 204.359375 C 152.140625 204.359375 157.113281 199.386719 157.113281 193.25 C 157.113281 187.117188 152.140625 182.144531 146.007812 182.144531 Z M 146.007812 182.144531 " clip-rule="nonzero"/></clipPath><clipPath id="85bf573ef3"><path d="M 0.898438 0.144531 L 23.113281 0.144531 L 23.113281 22.359375 L 0.898438 22.359375 Z M 0.898438 0.144531 " clip-rule="nonzero"/></clipPath><clipPath id="2cec90aa8b"><path d="M 12.007812 0.144531 C 5.871094 0.144531 0.898438 5.117188 0.898438 11.25 C 0.898438 17.386719 5.871094 22.359375 12.007812 22.359375 C 18.140625 22.359375 23.113281 17.386719 23.113281 11.25 C 23.113281 5.117188 18.140625 0.144531 12.007812 0.144531 Z M 12.007812 0.144531 " clip-rule="nonzero"/></clipPath><clipPath id="131c4a4e7a"><rect x="0" width="24" y="0" height="23"/></clipPath><clipPath id="110f680a93"><path d="M 98.253906 167.789062 L 126.738281 167.789062 L 126.738281 196.273438 L 98.253906 196.273438 Z M 98.253906 167.789062 " clip-rule="nonzero"/></clipPath><clipPath id="dca0410ed8"><path d="M 112.496094 167.789062 C 104.628906 167.789062 98.253906 174.164062 98.253906 182.03125 C 98.253906 189.894531 104.628906 196.273438 112.496094 196.273438 C 120.359375 196.273438 126.738281 189.894531 126.738281 182.03125 C 126.738281 174.164062 120.359375 167.789062 112.496094 167.789062 Z M 112.496094 167.789062 " clip-rule="nonzero"/></clipPath><clipPath id="bd5fd55121"><path d="M 0.253906 0.789062 L 28.738281 0.789062 L 28.738281 29.273438 L 0.253906 29.273438 Z M 0.253906 0.789062 " clip-rule="nonzero"/></clipPath><clipPath id="cd955b7e83"><path d="M 14.496094 0.789062 C 6.628906 0.789062 0.253906 7.164062 0.253906 15.03125 C 0.253906 22.894531 6.628906 29.273438 14.496094 29.273438 C 22.359375 29.273438 28.738281 22.894531 28.738281 15.03125 C 28.738281 7.164062 22.359375 0.789062 14.496094 0.789062 Z M 14.496094 0.789062 " clip-rule="nonzero"/></clipPath><clipPath id="2c55bbf935"><rect x="0" width="29" y="0" height="30"/></clipPath><clipPath id="ba9b15812d"><path d="M 152.667969 157.167969 L 181.152344 157.167969 L 181.152344 185.652344 L 152.667969 185.652344 Z M 152.667969 157.167969 " clip-rule="nonzero"/></clipPath><clipPath id="d7d89ad98a"><path d="M 166.910156 157.167969 C 159.042969 157.167969 152.667969 163.542969 152.667969 171.410156 C 152.667969 179.277344 159.042969 185.652344 166.910156 185.652344 C 174.777344 185.652344 181.152344 179.277344 181.152344 171.410156 C 181.152344 163.542969 174.777344 157.167969 166.910156 157.167969 Z M 166.910156 157.167969 " clip-rule="nonzero"/></clipPath><clipPath id="b9bbbc780d"><path d="M 0.667969 0.167969 L 29.152344 0.167969 L 29.152344 28.652344 L 0.667969 28.652344 Z M 0.667969 0.167969 " clip-rule="nonzero"/></clipPath><clipPath id="0f713a68ad"><path d="M 14.910156 0.167969 C 7.042969 0.167969 0.667969 6.542969 0.667969 14.410156 C 0.667969 22.277344 7.042969 28.652344 14.910156 28.652344 C 22.777344 28.652344 29.152344 22.277344 29.152344 14.410156 C 29.152344 6.542969 22.777344 0.167969 14.910156 0.167969 Z M 14.910156 0.167969 " clip-rule="nonzero"/></clipPath><clipPath id="2c547079f6"><rect x="0" width="30" y="0" height="29"/></clipPath><clipPath id="30897a9add"><path d="M 119.910156 150.425781 L 142.128906 150.425781 L 142.128906 172.640625 L 119.910156 172.640625 Z M 119.910156 150.425781 " clip-rule="nonzero"/></clipPath><clipPath id="a9a4c75e46"><path d="M 131.019531 150.425781 C 124.882812 150.425781 119.910156 155.398438 119.910156 161.53125 C 119.910156 167.667969 124.882812 172.640625 131.019531 172.640625 C 137.152344 172.640625 142.128906 167.667969 142.128906 161.53125 C 142.128906 155.398438 137.152344 150.425781 131.019531 150.425781 Z M 131.019531 150.425781 " clip-rule="nonzero"/></clipPath><clipPath id="3270f1beab"><path d="M 0.910156 0.425781 L 23.128906 0.425781 L 23.128906 22.640625 L 0.910156 22.640625 Z M 0.910156 0.425781 " clip-rule="nonzero"/></clipPath><clipPath id="75d3d60b65"><path d="M 12.019531 0.425781 C 5.882812 0.425781 0.910156 5.398438 0.910156 11.53125 C 0.910156 17.667969 5.882812 22.640625 12.019531 22.640625 C 18.152344 22.640625 23.128906 17.667969 23.128906 11.53125 C 23.128906 5.398438 18.152344 0.425781 12.019531 0.425781 Z M 12.019531 0.425781 " clip-rule="nonzero"/></clipPath><clipPath id="448f06cd7c"><rect x="0" width="24" y="0" height="23"/></clipPath><clipPath id="7c8ccd77a6"><path d="M 141.558594 132.035156 L 163.621094 132.035156 L 163.621094 154.097656 L 141.558594 154.097656 Z M 141.558594 132.035156 " clip-rule="nonzero"/></clipPath><clipPath id="0ce57bf090"><path d="M 152.589844 132.035156 C 146.5 132.035156 141.558594 136.976562 141.558594 143.066406 C 141.558594 149.160156 146.5 154.097656 152.589844 154.097656 C 158.683594 154.097656 163.621094 149.160156 163.621094 143.066406 C 163.621094 136.976562 158.683594 132.035156 152.589844 132.035156 Z M 152.589844 132.035156 " clip-rule="nonzero"/></clipPath><clipPath id="eb64f3edc9"><path d="M 0.558594 0.0351562 L 22.621094 0.0351562 L 22.621094 22.097656 L 0.558594 22.097656 Z M 0.558594 0.0351562 " clip-rule="nonzero"/></clipPath><clipPath id="43db718415"><path d="M 11.589844 0.0351562 C 5.5 0.0351562 0.558594 4.976562 0.558594 11.066406 C 0.558594 17.160156 5.5 22.097656 11.589844 22.097656 C 17.683594 22.097656 22.621094 17.160156 22.621094 11.066406 C 22.621094 4.976562 17.683594 0.0351562 11.589844 0.0351562 Z M 11.589844 0.0351562 " clip-rule="nonzero"/></clipPath><clipPath id="d2289df7e4"><rect x="0" width="23" y="0" height="23"/></clipPath><clipPath id="29e9953c16"><path d="M 171.679688 136.277344 L 193.742188 136.277344 L 193.742188 158.339844 L 171.679688 158.339844 Z M 171.679688 136.277344 " clip-rule="nonzero"/></clipPath><clipPath id="9cab4aac53"><path d="M 182.710938 136.277344 C 176.621094 136.277344 171.679688 141.214844 171.679688 147.308594 C 171.679688 153.402344 176.621094 158.339844 182.710938 158.339844 C 188.804688 158.339844 193.742188 153.402344 193.742188 147.308594 C 193.742188 141.214844 188.804688 136.277344 182.710938 136.277344 Z M 182.710938 136.277344 " clip-rule="nonzero"/></clipPath><clipPath id="1c750ad31f"><path d="M 0.679688 0.277344 L 22.742188 0.277344 L 22.742188 22.339844 L 0.679688 22.339844 Z M 0.679688 0.277344 " clip-rule="nonzero"/></clipPath><clipPath id="a59f320f65"><path d="M 11.710938 0.277344 C 5.621094 0.277344 0.679688 5.214844 0.679688 11.308594 C 0.679688 17.402344 5.621094 22.339844 11.710938 22.339844 C 17.804688 22.339844 22.742188 17.402344 22.742188 11.308594 C 22.742188 5.214844 17.804688 0.277344 11.710938 0.277344 Z M 11.710938 0.277344 " clip-rule="nonzero"/></clipPath><clipPath id="0c8b7221a8"><rect x="0" width="23" y="0" height="23"/></clipPath><clipPath id="a6df2a2ef0"><path d="M 80.125 154.097656 L 96.273438 154.097656 L 96.273438 170.25 L 80.125 170.25 Z M 80.125 154.097656 " clip-rule="nonzero"/></clipPath><clipPath id="34e6e6d153"><path d="M 88.199219 154.097656 C 83.738281 154.097656 80.125 157.714844 80.125 162.171875 C 80.125 166.632812 83.738281 170.25 88.199219 170.25 C 92.65625 170.25 96.273438 166.632812 96.273438 162.171875 C 96.273438 157.714844 92.65625 154.097656 88.199219 154.097656 Z M 88.199219 154.097656 " clip-rule="nonzero"/></clipPath><clipPath id="e8f7eb81dc"><path d="M 0.125 0.0976562 L 16.273438 0.0976562 L 16.273438 16.25 L 0.125 16.25 Z M 0.125 0.0976562 " clip-rule="nonzero"/></clipPath><clipPath id="61b34257b4"><path d="M 8.199219 0.0976562 C 3.738281 0.0976562 0.125 3.714844 0.125 8.171875 C 0.125 12.632812 3.738281 16.25 8.199219 16.25 C 12.65625 16.25 16.273438 12.632812 16.273438 8.171875 C 16.273438 3.714844 12.65625 0.0976562 8.199219 0.0976562 Z M 8.199219 0.0976562 " clip-rule="nonzero"/></clipPath><clipPath id="2acbb02831"><rect x="0" width="17" y="0" height="17"/></clipPath><clipPath id="e92f8bf2fe"><path d="M 94.351562 136.277344 L 115.023438 136.277344 L 115.023438 156.949219 L 94.351562 156.949219 Z M 94.351562 136.277344 " clip-rule="nonzero"/></clipPath><clipPath id="115361de1a"><path d="M 104.6875 136.277344 C 98.976562 136.277344 94.351562 140.90625 94.351562 146.613281 C 94.351562 152.320312 98.976562 156.949219 104.6875 156.949219 C 110.394531 156.949219 115.023438 152.320312 115.023438 146.613281 C 115.023438 140.90625 110.394531 136.277344 104.6875 136.277344 Z M 104.6875 136.277344 " clip-rule="nonzero"/></clipPath><clipPath id="865e9df1fe"><path d="M 0.351562 0.277344 L 21.023438 0.277344 L 21.023438 20.949219 L 0.351562 20.949219 Z M 0.351562 0.277344 " clip-rule="nonzero"/></clipPath><clipPath id="1b2bf2ebab"><path d="M 10.6875 0.277344 C 4.976562 0.277344 0.351562 4.90625 0.351562 10.613281 C 0.351562 16.320312 4.976562 20.949219 10.6875 20.949219 C 16.394531 20.949219 21.023438 16.320312 21.023438 10.613281 C 21.023438 4.90625 16.394531 0.277344 10.6875 0.277344 Z M 10.6875 0.277344 " clip-rule="nonzero"/></clipPath><clipPath id="fad176b924"><rect x="0" width="22" y="0" height="21"/></clipPath><clipPath id="fa03c52524"><path d="M 183.203125 114.773438 L 196.792969 114.773438 L 196.792969 128.363281 L 183.203125 128.363281 Z M 183.203125 114.773438 " clip-rule="nonzero"/></clipPath><clipPath id="ccfee42b1b"><path d="M 190 114.773438 C 186.246094 114.773438 183.203125 117.816406 183.203125 121.570312 C 183.203125 125.324219 186.246094 128.363281 190 128.363281 C 193.753906 128.363281 196.792969 125.324219 196.792969 121.570312 C 196.792969 117.816406 193.753906 114.773438 190 114.773438 Z M 190 114.773438 " clip-rule="nonzero"/></clipPath><clipPath id="b72793d596"><path d="M 0.203125 0.773438 L 13.792969 0.773438 L 13.792969 14.363281 L 0.203125 14.363281 Z M 0.203125 0.773438 " clip-rule="nonzero"/></clipPath><clipPath id="81e22f2283"><path d="M 7 0.773438 C 3.246094 0.773438 0.203125 3.816406 0.203125 7.570312 C 0.203125 11.324219 3.246094 14.363281 7 14.363281 C 10.753906 14.363281 13.792969 11.324219 13.792969 7.570312 C 13.792969 3.816406 10.753906 0.773438 7 0.773438 Z M 7 0.773438 " clip-rule="nonzero"/></clipPath><clipPath id="e99eeb6e5b"><rect x="0" width="14" y="0" height="15"/></clipPath><clipPath id="083ec71e1c"><path d="M 55.328125 134.808594 L 78.859375 134.808594 L 78.859375 158.339844 L 55.328125 158.339844 Z M 55.328125 134.808594 " clip-rule="nonzero"/></clipPath><clipPath id="0d84059444"><path d="M 67.09375 134.808594 C 60.597656 134.808594 55.328125 140.074219 55.328125 146.574219 C 55.328125 153.070312 60.597656 158.339844 67.09375 158.339844 C 73.59375 158.339844 78.859375 153.070312 78.859375 146.574219 C 78.859375 140.074219 73.59375 134.808594 67.09375 134.808594 Z M 67.09375 134.808594 " clip-rule="nonzero"/></clipPath><clipPath id="b017cefcbc"><path d="M 0.328125 0.808594 L 23.859375 0.808594 L 23.859375 24.339844 L 0.328125 24.339844 Z M 0.328125 0.808594 " clip-rule="nonzero"/></clipPath><clipPath id="5916b6f818"><path d="M 12.09375 0.808594 C 5.597656 0.808594 0.328125 6.074219 0.328125 12.574219 C 0.328125 19.070312 5.597656 24.339844 12.09375 24.339844 C 18.59375 24.339844 23.859375 19.070312 23.859375 12.574219 C 23.859375 6.074219 18.59375 0.808594 12.09375 0.808594 Z M 12.09375 0.808594 " clip-rule="nonzero"/></clipPath><clipPath id="0e7c90199d"><rect x="0" width="24" y="0" height="25"/></clipPath><clipPath id="bd658dc9b4"><path d="M 80.125 107.339844 L 104.6875 107.339844 L 104.6875 131.902344 L 80.125 131.902344 Z M 80.125 107.339844 " clip-rule="nonzero"/></clipPath><clipPath id="22c61375b3"><path d="M 92.40625 107.339844 C 85.621094 107.339844 80.125 112.839844 80.125 119.621094 C 80.125 126.40625 85.621094 131.902344 92.40625 131.902344 C 99.1875 131.902344 104.6875 126.40625 104.6875 119.621094 C 104.6875 112.839844 99.1875 107.339844 92.40625 107.339844 Z M 92.40625 107.339844 " clip-rule="nonzero"/></clipPath><clipPath id="6c93de0a38"><path d="M 0.125 0.339844 L 24.6875 0.339844 L 24.6875 24.902344 L 0.125 24.902344 Z M 0.125 0.339844 " clip-rule="nonzero"/></clipPath><clipPath id="86d1bad46a"><path d="M 12.40625 0.339844 C 5.621094 0.339844 0.125 5.839844 0.125 12.621094 C 0.125 19.40625 5.621094 24.902344 12.40625 24.902344 C 19.1875 24.902344 24.6875 19.40625 24.6875 12.621094 C 24.6875 5.839844 19.1875 0.339844 12.40625 0.339844 Z M 12.40625 0.339844 " clip-rule="nonzero"/></clipPath><clipPath id="9c3f912850"><rect x="0" width="25" y="0" height="25"/></clipPath><clipPath id="868361daa8"><path d="M 101.464844 84.46875 L 122.175781 84.46875 L 122.175781 105.183594 L 101.464844 105.183594 Z M 101.464844 84.46875 " clip-rule="nonzero"/></clipPath><clipPath id="9c4493acd1"><path d="M 111.820312 84.46875 C 106.101562 84.46875 101.464844 89.105469 101.464844 94.824219 C 101.464844 100.546875 106.101562 105.183594 111.820312 105.183594 C 117.539062 105.183594 122.175781 100.546875 122.175781 94.824219 C 122.175781 89.105469 117.539062 84.46875 111.820312 84.46875 Z M 111.820312 84.46875 " clip-rule="nonzero"/></clipPath><clipPath id="85bfeedf4b"><path d="M 0.464844 0.46875 L 21.175781 0.46875 L 21.175781 21.183594 L 0.464844 21.183594 Z M 0.464844 0.46875 " clip-rule="nonzero"/></clipPath><clipPath id="303a4c0d27"><path d="M 10.820312 0.46875 C 5.101562 0.46875 0.464844 5.105469 0.464844 10.824219 C 0.464844 16.546875 5.101562 21.183594 10.820312 21.183594 C 16.539062 21.183594 21.175781 16.546875 21.175781 10.824219 C 21.175781 5.105469 16.539062 0.46875 10.820312 0.46875 Z M 10.820312 0.46875 " clip-rule="nonzero"/></clipPath><clipPath id="ca0402965c"><rect x="0" width="22" y="0" height="22"/></clipPath><clipPath id="edc9828215"><path d="M 111.035156 108.816406 L 140.980469 108.816406 L 140.980469 138.761719 L 111.035156 138.761719 Z M 111.035156 108.816406 " clip-rule="nonzero"/></clipPath><clipPath id="79172c24cd"><path d="M 126.007812 108.816406 C 117.738281 108.816406 111.035156 115.519531 111.035156 123.789062 C 111.035156 132.058594 117.738281 138.761719 126.007812 138.761719 C 134.277344 138.761719 140.980469 132.058594 140.980469 123.789062 C 140.980469 115.519531 134.277344 108.816406 126.007812 108.816406 Z M 126.007812 108.816406 " clip-rule="nonzero"/></clipPath><clipPath id="9ce6ed70ae"><path d="M 0.0351562 0.816406 L 29.980469 0.816406 L 29.980469 30.761719 L 0.0351562 30.761719 Z M 0.0351562 0.816406 " clip-rule="nonzero"/></clipPath><clipPath id="2fa06df8f2"><path d="M 15.007812 0.816406 C 6.738281 0.816406 0.0351562 7.519531 0.0351562 15.789062 C 0.0351562 24.058594 6.738281 30.761719 15.007812 30.761719 C 23.277344 30.761719 29.980469 24.058594 29.980469 15.789062 C 29.980469 7.519531 23.277344 0.816406 15.007812 0.816406 Z M 15.007812 0.816406 " clip-rule="nonzero"/></clipPath><clipPath id="fab1923e70"><rect x="0" width="30" y="0" height="31"/></clipPath><clipPath id="395e2336d6"><path d="M 149.226562 104.210938 L 172.261719 104.210938 L 172.261719 127.246094 L 149.226562 127.246094 Z M 149.226562 104.210938 " clip-rule="nonzero"/></clipPath><clipPath id="728a46eca4"><path d="M 160.746094 104.210938 C 154.382812 104.210938 149.226562 109.367188 149.226562 115.726562 C 149.226562 122.089844 154.382812 127.246094 160.746094 127.246094 C 167.105469 127.246094 172.261719 122.089844 172.261719 115.726562 C 172.261719 109.367188 167.105469 104.210938 160.746094 104.210938 Z M 160.746094 104.210938 " clip-rule="nonzero"/></clipPath><clipPath id="ea46183796"><path d="M 0.226562 0.210938 L 23.261719 0.210938 L 23.261719 23.246094 L 0.226562 23.246094 Z M 0.226562 0.210938 " clip-rule="nonzero"/></clipPath><clipPath id="7f5a7c32ac"><path d="M 11.746094 0.210938 C 5.382812 0.210938 0.226562 5.367188 0.226562 11.726562 C 0.226562 18.089844 5.382812 23.246094 11.746094 23.246094 C 18.105469 23.246094 23.261719 18.089844 23.261719 11.726562 C 23.261719 5.367188 18.105469 0.210938 11.746094 0.210938 Z M 11.746094 0.210938 " clip-rule="nonzero"/></clipPath><clipPath id="d90431af3c"><rect x="0" width="24" y="0" height="24"/></clipPath><clipPath id="939da26b00"><path d="M 116.480469 61.414062 L 130.070312 61.414062 L 130.070312 75.003906 L 116.480469 75.003906 Z M 116.480469 61.414062 " clip-rule="nonzero"/></clipPath><clipPath id="237ad5f6d0"><path d="M 123.273438 61.414062 C 119.523438 61.414062 116.480469 64.453125 116.480469 68.207031 C 116.480469 71.960938 119.523438 75.003906 123.273438 75.003906 C 127.027344 75.003906 130.070312 71.960938 130.070312 68.207031 C 130.070312 64.453125 127.027344 61.414062 123.273438 61.414062 Z M 123.273438 61.414062 " clip-rule="nonzero"/></clipPath><clipPath id="a3ad1f0d7f"><path d="M 0.480469 0.414062 L 14.070312 0.414062 L 14.070312 14.003906 L 0.480469 14.003906 Z M 0.480469 0.414062 " clip-rule="nonzero"/></clipPath><clipPath id="ca9cb95d51"><path d="M 7.273438 0.414062 C 3.523438 0.414062 0.480469 3.453125 0.480469 7.207031 C 0.480469 10.960938 3.523438 14.003906 7.273438 14.003906 C 11.027344 14.003906 14.070312 10.960938 14.070312 7.207031 C 14.070312 3.453125 11.027344 0.414062 7.273438 0.414062 Z M 7.273438 0.414062 " clip-rule="nonzero"/></clipPath><clipPath id="2a9b1e6338"><rect x="0" width="15" y="0" height="15"/></clipPath><clipPath id="021fa76aeb"><path d="M 160.257812 81.234375 L 178.859375 81.234375 L 178.859375 99.835938 L 160.257812 99.835938 Z M 160.257812 81.234375 " clip-rule="nonzero"/></clipPath><clipPath id="8181123b0e"><path d="M 169.558594 81.234375 C 164.421875 81.234375 160.257812 85.398438 160.257812 90.535156 C 160.257812 95.671875 164.421875 99.835938 169.558594 99.835938 C 174.695312 99.835938 178.859375 95.671875 178.859375 90.535156 C 178.859375 85.398438 174.695312 81.234375 169.558594 81.234375 Z M 169.558594 81.234375 " clip-rule="nonzero"/></clipPath><clipPath id="fd58b722f8"><path d="M 0.257812 0.234375 L 18.859375 0.234375 L 18.859375 18.835938 L 0.257812 18.835938 Z M 0.257812 0.234375 " clip-rule="nonzero"/></clipPath><clipPath id="63823edf77"><path d="M 9.558594 0.234375 C 4.421875 0.234375 0.257812 4.398438 0.257812 9.535156 C 0.257812 14.671875 4.421875 18.835938 9.558594 18.835938 C 14.695312 18.835938 18.859375 14.671875 18.859375 9.535156 C 18.859375 4.398438 14.695312 0.234375 9.558594 0.234375 Z M 9.558594 0.234375 " clip-rule="nonzero"/></clipPath><clipPath id="4caabb4278"><rect x="0" width="19" y="0" height="19"/></clipPath><clipPath id="f90189ac29"><path d="M 129.792969 81.234375 L 148.398438 81.234375 L 148.398438 99.835938 L 129.792969 99.835938 Z M 129.792969 81.234375 " clip-rule="nonzero"/></clipPath><clipPath id="a72117c557"><path d="M 139.09375 81.234375 C 133.957031 81.234375 129.792969 85.398438 129.792969 90.535156 C 129.792969 95.671875 133.957031 99.835938 139.09375 99.835938 C 144.234375 99.835938 148.398438 95.671875 148.398438 90.535156 C 148.398438 85.398438 144.234375 81.234375 139.09375 81.234375 Z M 139.09375 81.234375 " clip-rule="nonzero"/></clipPath><clipPath id="c8b1903563"><path d="M 0.792969 0.234375 L 19.398438 0.234375 L 19.398438 18.835938 L 0.792969 18.835938 Z M 0.792969 0.234375 " clip-rule="nonzero"/></clipPath><clipPath id="bedc55cabf"><path d="M 10.09375 0.234375 C 4.957031 0.234375 0.792969 4.398438 0.792969 9.535156 C 0.792969 14.671875 4.957031 18.835938 10.09375 18.835938 C 15.234375 18.835938 19.398438 14.671875 19.398438 9.535156 C 19.398438 4.398438 15.234375 0.234375 10.09375 0.234375 Z M 10.09375 0.234375 " clip-rule="nonzero"/></clipPath><clipPath id="22d8d6ef97"><rect x="0" width="20" y="0" height="19"/></clipPath><clipPath id="254ca5ac83"><path d="M 150.863281 58.257812 L 170.046875 58.257812 L 170.046875 77.441406 L 150.863281 77.441406 Z M 150.863281 58.257812 " clip-rule="nonzero"/></clipPath><clipPath id="856fd9204b"><path d="M 160.453125 58.257812 C 155.15625 58.257812 150.863281 62.554688 150.863281 67.851562 C 150.863281 73.148438 155.15625 77.441406 160.453125 77.441406 C 165.75 77.441406 170.046875 73.148438 170.046875 67.851562 C 170.046875 62.554688 165.75 58.257812 160.453125 58.257812 Z M 160.453125 58.257812 " clip-rule="nonzero"/></clipPath><clipPath id="bc6d19ca1c"><path d="M 0.863281 0.257812 L 20.046875 0.257812 L 20.046875 19.441406 L 0.863281 19.441406 Z M 0.863281 0.257812 " clip-rule="nonzero"/></clipPath><clipPath id="a540a44e6a"><path d="M 10.453125 0.257812 C 5.15625 0.257812 0.863281 4.554688 0.863281 9.851562 C 0.863281 15.148438 5.15625 19.441406 10.453125 19.441406 C 15.75 19.441406 20.046875 15.148438 20.046875 9.851562 C 20.046875 4.554688 15.75 0.257812 10.453125 0.257812 Z M 10.453125 0.257812 " clip-rule="nonzero"/></clipPath><clipPath id="1586f3574c"><rect x="0" width="21" y="0" height="20"/></clipPath><clipPath id="46ac669c84"><path d="M 126.738281 41.988281 L 139.09375 41.988281 L 139.09375 54.347656 L 126.738281 54.347656 Z M 126.738281 41.988281 " clip-rule="nonzero"/></clipPath><clipPath id="496ff24698"><path d="M 132.917969 41.988281 C 129.503906 41.988281 126.738281 44.757812 126.738281 48.167969 C 126.738281 51.582031 129.503906 54.347656 132.917969 54.347656 C 136.328125 54.347656 139.09375 51.582031 139.09375 48.167969 C 139.09375 44.757812 136.328125 41.988281 132.917969 41.988281 Z M 132.917969 41.988281 " clip-rule="nonzero"/></clipPath><clipPath id="5575f92150"><path d="M 0.738281 0.988281 L 13.09375 0.988281 L 13.09375 13.347656 L 0.738281 13.347656 Z M 0.738281 0.988281 " clip-rule="nonzero"/></clipPath><clipPath id="9b414f3d29"><path d="M 6.917969 0.988281 C 3.503906 0.988281 0.738281 3.757812 0.738281 7.167969 C 0.738281 10.582031 3.503906 13.347656 6.917969 13.347656 C 10.328125 13.347656 13.09375 10.582031 13.09375 7.167969 C 13.09375 3.757812 10.328125 0.988281 6.917969 0.988281 Z M 6.917969 0.988281 " clip-rule="nonzero"/></clipPath><clipPath id="f230cb7f4d"><rect x="0" width="14" y="0" height="14"/></clipPath><clipPath id="6e1cba714a"><path d="M 109.816406 0 L 120.226562 0 L 120.226562 10.414062 L 109.816406 10.414062 Z M 109.816406 0 " clip-rule="nonzero"/></clipPath><clipPath id="e98b73a845"><path d="M 115.023438 0 C 112.148438 0 109.816406 2.332031 109.816406 5.207031 C 109.816406 8.082031 112.148438 10.414062 115.023438 10.414062 C 117.898438 10.414062 120.226562 8.082031 120.226562 5.207031 C 120.226562 2.332031 117.898438 0 115.023438 0 Z M 115.023438 0 " clip-rule="nonzero"/></clipPath><clipPath id="7ddaea8931"><path d="M 0.816406 0 L 11.226562 0 L 11.226562 10.414062 L 0.816406 10.414062 Z M 0.816406 0 " clip-rule="nonzero"/></clipPath><clipPath id="6d465599fb"><path d="M 6.023438 0 C 3.148438 0 0.816406 2.332031 0.816406 5.207031 C 0.816406 8.082031 3.148438 10.414062 6.023438 10.414062 C 8.898438 10.414062 11.226562 8.082031 11.226562 5.207031 C 11.226562 2.332031 8.898438 0 6.023438 0 Z M 6.023438 0 " clip-rule="nonzero"/></clipPath><clipPath id="bbc665ce0d"><rect x="0" width="12" y="0" height="11"/></clipPath><clipPath id="f1598328e6"><path d="M 120.699219 16.511719 L 137.433594 16.511719 L 137.433594 33.242188 L 120.699219 33.242188 Z M 120.699219 16.511719 " clip-rule="nonzero"/></clipPath><clipPath id="04938c4e8a"><path d="M 129.066406 16.511719 C 124.445312 16.511719 120.699219 20.253906 120.699219 24.875 C 120.699219 29.496094 124.445312 33.242188 129.066406 33.242188 C 133.6875 33.242188 137.433594 29.496094 137.433594 24.875 C 137.433594 20.253906 133.6875 16.511719 129.066406 16.511719 Z M 129.066406 16.511719 " clip-rule="nonzero"/></clipPath><clipPath id="6fdb311f4d"><path d="M 0.699219 0.511719 L 17.433594 0.511719 L 17.433594 17.242188 L 0.699219 17.242188 Z M 0.699219 0.511719 " clip-rule="nonzero"/></clipPath><clipPath id="31be04c43a"><path d="M 9.066406 0.511719 C 4.445312 0.511719 0.699219 4.253906 0.699219 8.875 C 0.699219 13.496094 4.445312 17.242188 9.066406 17.242188 C 13.6875 17.242188 17.433594 13.496094 17.433594 8.875 C 17.433594 4.253906 13.6875 0.511719 9.066406 0.511719 Z M 9.066406 0.511719 " clip-rule="nonzero"/></clipPath><clipPath id="f0d4a65516"><rect x="0" width="18" y="0" height="18"/></clipPath><clipPath id="37ac03ab13"><path d="M 142.128906 36.101562 L 157.984375 36.101562 L 157.984375 51.960938 L 142.128906 51.960938 Z M 142.128906 36.101562 " clip-rule="nonzero"/></clipPath><clipPath id="5553a4086f"><path d="M 150.054688 36.101562 C 145.675781 36.101562 142.128906 39.652344 142.128906 44.03125 C 142.128906 48.410156 145.675781 51.960938 150.054688 51.960938 C 154.433594 51.960938 157.984375 48.410156 157.984375 44.03125 C 157.984375 39.652344 154.433594 36.101562 150.054688 36.101562 Z M 150.054688 36.101562 " clip-rule="nonzero"/></clipPath><clipPath id="3f8c407b3f"><path d="M 0.128906 0.101562 L 15.984375 0.101562 L 15.984375 15.960938 L 0.128906 15.960938 Z M 0.128906 0.101562 " clip-rule="nonzero"/></clipPath><clipPath id="011491de95"><path d="M 8.054688 0.101562 C 3.675781 0.101562 0.128906 3.652344 0.128906 8.03125 C 0.128906 12.410156 3.675781 15.960938 8.054688 15.960938 C 12.433594 15.960938 15.984375 12.410156 15.984375 8.03125 C 15.984375 3.652344 12.433594 0.101562 8.054688 0.101562 Z M 8.054688 0.101562 " clip-rule="nonzero"/></clipPath><clipPath id="d2f98148e5"><rect x="0" width="16" y="0" height="16"/></clipPath><clipPath id="7f73c8fc2c"><rect x="0" width="239" y="0" height="375"/></clipPath></defs><g transform="matrix(1, 0, 0, 1, 68, 0)"><g clip-path="url(#7f73c8fc2c)"><g clip-path="url(#d54467928f)"><g clip-path="url(#a98a5f61fa)"><g transform="matrix(1, 0, 0, 1, 40, 320)"><g clip-path="url(#b43a1d0ad8)"><g clip-path="url(#40f189ed76)"><g clip-path="url(#be988f4b3a)"><path fill="#dc2625" d="M 0.308594 0.921875 L 41.582031 0.921875 L 41.582031 42.195312 L 0.308594 42.195312 Z M 0.308594 0.921875 " fill-opacity="1" fill-rule="nonzero"/></g></g></g></g></g></g><g clip-path="url(#4656ff35f3)"><g clip-path="url(#6078028f44)"><g transform="matrix(1, 0, 0, 1, 80, 340)"><g clip-path="url(#305892a89a)"><g clip-path="url(#31e8fb89c4)"><g clip-path="url(#ea08174e5b)"><path fill="#dc2625" d="M 0.125 0.101562 L 35.023438 0.101562 L 35.023438 35 L 0.125 35 Z M 0.125 0.101562 " fill-opacity="1" fill-rule="nonzero"/></g></g></g></g></g></g><g clip-path="url(#7cff087813)"><g clip-path="url(#84d46164d7)"><g transform="matrix(1, 0, 0, 1, 118, 348)"><g clip-path="url(#ebcf12b737)"><g clip-path="url(#a8eafc089e)"><g clip-path="url(#9d128a209e)"><path fill="#dc2625" d="M 0.398438 0.0546875 L 27.339844 0.0546875 L 27.339844 27 L 0.398438 27 Z M 0.398438 0.0546875 " fill-opacity="1" fill-rule="nonzero"/></g></g></g></g></g></g><g clip-path="url(#7599cdd219)"><g clip-path="url(#7bf3a45b1e)"><g transform="matrix(1, 0, 0, 1, 172, 311)"><g clip-path="url(#061d2f0f23)"><g clip-path="url(#acdfefd75c)"><g clip-path="url(#1aeba3fac7)"><path fill="#dc2625" d="M 0.261719 0.929688 L 33.472656 0.929688 L 33.472656 34.140625 L 0.261719 34.140625 Z M 0.261719 0.929688 " fill-opacity="1" fill-rule="nonzero"/></g></g></g></g></g></g><g clip-path="url(#4b022e4c1b)"><g clip-path="url(#6a7ab69865)"><g transform="matrix(1, 0, 0, 1, 145, 336)"><g clip-path="url(#c97bdb83a3)"><g clip-path="url(#b20fe07afa)"><g clip-path="url(#5fdecb4feb)"><path fill="#dc2625" d="M 0.339844 0.875 L 30.175781 0.875 L 30.175781 30.714844 L 0.339844 30.714844 Z M 0.339844 0.875 " fill-opacity="1" fill-rule="nonzero"/></g></g></g></g></g></g><g clip-path="url(#46a5dfad32)"><g clip-path="url(#5d7615a120)"><g transform="matrix(1, 0, 0, 1, 196, 284)"><g clip-path="url(#5eb8b42953)"><g clip-path="url(#1d6eeb8997)"><g clip-path="url(#7c64deeee6)"><path fill="#db6525" d="M 0.792969 0.261719 L 28.460938 0.261719 L 28.460938 27.929688 L 0.792969 27.929688 Z M 0.792969 0.261719 " fill-opacity="1" fill-rule="nonzero"/></g></g></g></g></g></g><g clip-path="url(#569dda5ca4)"><g clip-path="url(#8597bd5af0)"><g transform="matrix(1, 0, 0, 1, 213, 259)"><g clip-path="url(#a4fab681b6)"><g clip-path="url(#86eba04db1)"><g clip-path="url(#6d39ebdb3c)"><path fill="#dea22c" d="M 0.667969 0.246094 L 25.683594 0.246094 L 25.683594 25.261719 L 0.667969 25.261719 Z M 0.667969 0.246094 " fill-opacity="1" fill-rule="nonzero"/></g></g></g></g></g></g><g clip-path="url(#da510d484d)"><g clip-path="url(#b604f059a4)"><g transform="matrix(1, 0, 0, 1, 213, 231)"><g clip-path="url(#a0d70b34a1)"><g clip-path="url(#c847d431a6)"><g clip-path="url(#42b68357e7)"><path fill="#dea22c" d="M 0.667969 0.972656 L 23.96875 0.972656 L 23.96875 24.269531 L 0.667969 24.269531 Z M 0.667969 0.972656 " fill-opacity="1" fill-rule="nonzero"/></g></g></g></g></g></g><g clip-path="url(#b5e7229477)"><g clip-path="url(#2b411bee2b)"><g transform="matrix(1, 0, 0, 1, 181, 259)"><g clip-path="url(#488c4a1052)"><g clip-path="url(#85a1298368)"><g clip-path="url(#cf756f04e1)"><path fill="#dea22c" d="M 0.773438 0.246094 L 21.558594 0.246094 L 21.558594 21.027344 L 0.773438 21.027344 Z M 0.773438 0.246094 " fill-opacity="1" fill-rule="nonzero"/></g></g></g></g></g></g><g clip-path="url(#4d6f72553a)"><g clip-path="url(#26848e97ae)"><g transform="matrix(1, 0, 0, 1, 163, 280)"><g clip-path="url(#5c4f96c24e)"><g clip-path="url(#14f51e7cbb)"><g clip-path="url(#41f20fca22)"><path fill="#db6525" d="M 0.851562 0.0273438 L 25.867188 0.0273438 L 25.867188 25.042969 L 0.851562 25.042969 Z M 0.851562 0.0273438 " fill-opacity="1" fill-rule="nonzero"/></g></g></g></g></g></g><g clip-path="url(#0d20179ddf)"><g clip-path="url(#59b31f5d87)"><g transform="matrix(1, 0, 0, 1, 137, 302)"><g clip-path="url(#fcb04beb6e)"><g clip-path="url(#0e8de82a17)"><g clip-path="url(#a8b3ad8782)"><path fill="#db6525" d="M 0.871094 0.554688 L 26.851562 0.554688 L 26.851562 26.535156 L 0.871094 26.535156 Z M 0.871094 0.554688 " fill-opacity="1" fill-rule="nonzero"/></g></g></g></g></g></g><g clip-path="url(#f3d9050a67)"><g clip-path="url(#df5e5feb63)"><g transform="matrix(1, 0, 0, 1, 111, 318)"><g clip-path="url(#24add2fa72)"><g clip-path="url(#b78ff992b8)"><g clip-path="url(#8686f28172)"><path fill="#dc2625" d="M 0.0390625 0.03125 L 28.910156 0.03125 L 28.910156 28.902344 L 0.0390625 28.902344 Z M 0.0390625 0.03125 " fill-opacity="1" fill-rule="nonzero"/></g></g></g></g></g></g><g clip-path="url(#1c3dfaf059)"><g clip-path="url(#b48200f63c)"><g transform="matrix(1, 0, 0, 1, 81, 311)"><g clip-path="url(#ae909b9c3a)"><g clip-path="url(#dfaa9a1d73)"><g clip-path="url(#3c5b3c3a9c)"><path fill="#dc2625" d="M 0.953125 0.929688 L 24.382812 0.929688 L 24.382812 24.359375 L 0.953125 24.359375 Z M 0.953125 0.929688 " fill-opacity="1" fill-rule="nonzero"/></g></g></g></g></g></g><g clip-path="url(#d737b2c3ab)"><g clip-path="url(#bd8f54689f)"><g transform="matrix(1, 0, 0, 1, 100, 290)"><g clip-path="url(#8bd965d76f)"><g clip-path="url(#81c0da5b51)"><g clip-path="url(#148e098b1d)"><path fill="#db6525" d="M 0.414062 0.433594 L 26.738281 0.433594 L 26.738281 26.757812 L 0.414062 26.757812 Z M 0.414062 0.433594 " fill-opacity="1" fill-rule="nonzero"/></g></g></g></g></g></g><g clip-path="url(#ee3cc2af0c)"><g clip-path="url(#41f4678dfb)"><g transform="matrix(1, 0, 0, 1, 66, 280)"><g clip-path="url(#d5e01acdb2)"><g clip-path="url(#c613dd1380)"><g clip-path="url(#080c36d4c6)"><path fill="#db6525" d="M 0.359375 0.0273438 L 27.886719 0.0273438 L 27.886719 27.554688 L 0.359375 27.554688 Z M 0.359375 0.0273438 " fill-opacity="1" fill-rule="nonzero"/></g></g></g></g></g></g><g clip-path="url(#b3a1c23d52)"><g clip-path="url(#fbfcc884a9)"><g transform="matrix(1, 0, 0, 1, 44, 294)"><g clip-path="url(#30578589f2)"><g clip-path="url(#35a395232d)"><g clip-path="url(#55c5661605)"><path fill="#dc2625" d="M 0.734375 0.945312 L 23.816406 0.945312 L 23.816406 24.03125 L 0.734375 24.03125 Z M 0.734375 0.945312 " fill-opacity="1" fill-rule="nonzero"/></g></g></g></g></g></g><g clip-path="url(#365d72da44)"><g clip-path="url(#468f2c62af)"><g transform="matrix(1, 0, 0, 1, 17, 303)"><g clip-path="url(#fe110eff18)"><g clip-path="url(#98db078912)"><g clip-path="url(#9c25f5db1e)"><path fill="#dc2625" d="M 0.691406 0.597656 L 27.734375 0.597656 L 27.734375 27.636719 L 0.691406 27.636719 Z M 0.691406 0.597656 " fill-opacity="1" fill-rule="nonzero"/></g></g></g></g></g></g><g clip-path="url(#a81772cd3c)"><g clip-path="url(#ecaa34bc13)"><g transform="matrix(1, 0, 0, 1, 0, 264)"><g clip-path="url(#68deee7d71)"><g clip-path="url(#83a3d20a9b)"><g clip-path="url(#936631c0d4)"><path fill="#dc2625" d="M 0.316406 0.796875 L 35.070312 0.796875 L 35.070312 35.554688 L 0.316406 35.554688 Z M 0.316406 0.796875 " fill-opacity="1" fill-rule="nonzero"/></g></g></g></g></g></g><g clip-path="url(#5e466b8b6f)"><g clip-path="url(#1d6712886d)"><g transform="matrix(1, 0, 0, 1, 0, 224)"><g clip-path="url(#62aebac4cf)"><g clip-path="url(#336bf26dbd)"><g clip-path="url(#3acb1fb7ff)"><path fill="#dc2625" d="M 0.316406 0.492188 L 35.070312 0.492188 L 35.070312 35.246094 L 0.316406 35.246094 Z M 0.316406 0.492188 " fill-opacity="1" fill-rule="nonzero"/></g></g></g></g></g></g><g clip-path="url(#0e6ac4c1cf)"><g clip-path="url(#2e6dafd579)"><g transform="matrix(1, 0, 0, 1, 37, 261)"><g clip-path="url(#2c385d20d9)"><g clip-path="url(#fb7c888449)"><g clip-path="url(#80d0bcaf45)"><path fill="#dc2625" d="M 0.863281 0.9375 L 29.359375 0.9375 L 29.359375 29.433594 L 0.863281 29.433594 Z M 0.863281 0.9375 " fill-opacity="1" fill-rule="nonzero"/></g></g></g></g></g></g><g clip-path="url(#46a156bf35)"><g clip-path="url(#6e0f4bc59d)"><g transform="matrix(1, 0, 0, 1, 93, 265)"><g clip-path="url(#aa73f14e86)"><g clip-path="url(#8d62be7756)"><g clip-path="url(#db2894b17f)"><path fill="#db6525" d="M 0.886719 0.332031 L 20.574219 0.332031 L 20.574219 20.019531 L 0.886719 20.019531 Z M 0.886719 0.332031 " fill-opacity="1" fill-rule="nonzero"/></g></g></g></g></g></g><g clip-path="url(#8c53b3c141)"><g clip-path="url(#fdcaae1aa1)"><g transform="matrix(1, 0, 0, 1, 66, 248)"><g clip-path="url(#25fa723b55)"><g clip-path="url(#8305fd8099)"><g clip-path="url(#573e50f865)"><path fill="#db6525" d="M 0.359375 0.175781 L 23.96875 0.175781 L 23.96875 23.78125 L 0.359375 23.78125 Z M 0.359375 0.175781 " fill-opacity="1" fill-rule="nonzero"/></g></g></g></g></g></g><g clip-path="url(#0e9ca92f7c)"><g clip-path="url(#23400a4dae)"><g transform="matrix(1, 0, 0, 1, 131, 276)"><g clip-path="url(#aaf15da3fa)"><g clip-path="url(#548aebfc5b)"><g clip-path="url(#33509810c6)"><path fill="#db6525" d="M 0.171875 0.1875 L 22.082031 0.1875 L 22.082031 22.09375 L 0.171875 22.09375 Z M 0.171875 0.1875 " fill-opacity="1" fill-rule="nonzero"/></g></g></g></g></g></g><g clip-path="url(#130713b7f3)"><g clip-path="url(#d79181073b)"><g transform="matrix(1, 0, 0, 1, 152, 251)"><g clip-path="url(#a971d537f1)"><g clip-path="url(#e256a31d62)"><g clip-path="url(#aaef3cd085)"><path fill="#dea22c" d="M 0.667969 0.398438 L 22.578125 0.398438 L 22.578125 22.308594 L 0.667969 22.308594 Z M 0.667969 0.398438 " fill-opacity="1" fill-rule="nonzero"/></g></g></g></g></g></g><g clip-path="url(#ca39495be1)"><g clip-path="url(#ecfcfc9a72)"><g transform="matrix(1, 0, 0, 1, 170, 231)"><g clip-path="url(#6621e37e6c)"><g clip-path="url(#ea21cc620b)"><g clip-path="url(#508bfedcc3)"><path fill="#dea22c" d="M 0.804688 0.570312 L 17.410156 0.570312 L 17.410156 17.175781 L 0.804688 17.175781 Z M 0.804688 0.570312 " fill-opacity="1" fill-rule="nonzero"/></g></g></g></g></g></g><g clip-path="url(#981c6bffe5)"><g clip-path="url(#745fc0a5fe)"><g transform="matrix(1, 0, 0, 1, 196, 241)"><g clip-path="url(#7f01b47f62)"><g clip-path="url(#b4280b879e)"><g clip-path="url(#be2f85af73)"><path fill="#dea22c" d="M 0.792969 0.4375 L 14.628906 0.4375 L 14.628906 14.269531 L 0.792969 14.269531 Z M 0.792969 0.4375 " fill-opacity="1" fill-rule="nonzero"/></g></g></g></g></g></g><g clip-path="url(#22b63e5022)"><g clip-path="url(#132ec6a72f)"><g transform="matrix(1, 0, 0, 1, 202, 216)"><g clip-path="url(#80a4f1429b)"><g clip-path="url(#22531d6de8)"><g clip-path="url(#45249460d5)"><path fill="#dea22c" d="M 0.558594 0.347656 L 15.777344 0.347656 L 15.777344 15.570312 L 0.558594 15.570312 Z M 0.558594 0.347656 " fill-opacity="1" fill-rule="nonzero"/></g></g></g></g></g></g><g clip-path="url(#f66ae4bc76)"><g clip-path="url(#7288933e94)"><g transform="matrix(1, 0, 0, 1, 222, 214)"><g clip-path="url(#589361909c)"><g clip-path="url(#c68e1f6137)"><g clip-path="url(#3f1643be41)"><path fill="#dea22c" d="M 0.804688 0.890625 L 13.511719 0.890625 L 13.511719 13.597656 L 0.804688 13.597656 Z M 0.804688 0.890625 " fill-opacity="1" fill-rule="nonzero"/></g></g></g></g></g></g><g clip-path="url(#b54103c649)"><g clip-path="url(#4425669fad)"><g transform="matrix(1, 0, 0, 1, 203, 191)"><g clip-path="url(#0e819f9bdf)"><g clip-path="url(#5cd3868ce3)"><g clip-path="url(#70e932f8f3)"><path fill="#dea22c" d="M 0.710938 0.257812 L 18.277344 0.257812 L 18.277344 17.824219 L 0.710938 17.824219 Z M 0.710938 0.257812 " fill-opacity="1" fill-rule="nonzero"/></g></g></g></g></g></g><g clip-path="url(#ba3050b828)"><g clip-path="url(#287e718032)"><g transform="matrix(1, 0, 0, 1, 170, 198)"><g clip-path="url(#ee781197ea)"><g clip-path="url(#003cc66f42)"><g clip-path="url(#7e1d402e51)"><path fill="#dea22c" d="M 0.804688 0.773438 L 12.710938 0.773438 L 12.710938 12.683594 L 0.804688 12.683594 Z M 0.804688 0.773438 " fill-opacity="1" fill-rule="nonzero"/></g></g></g></g></g></g><g clip-path="url(#147dcc9bb1)"><g clip-path="url(#c4c6b3c904)"><g transform="matrix(1, 0, 0, 1, 203, 172)"><g clip-path="url(#620eb013ea)"><g clip-path="url(#1203908972)"><g clip-path="url(#5398c6d6f9)"><path fill="#dea22c" d="M 0.710938 0.640625 L 12.039062 0.640625 L 12.039062 11.964844 L 0.710938 11.964844 Z M 0.710938 0.640625 " fill-opacity="1" fill-rule="nonzero"/></g></g></g></g></g></g><g clip-path="url(#fd0b964a55)"><g clip-path="url(#c7826532bc)"><g transform="matrix(1, 0, 0, 1, 97, 232)"><g clip-path="url(#901335a8c2)"><g clip-path="url(#c2f44894a6)"><g clip-path="url(#bbc99b06b6)"><path fill="#db6525" d="M 0.574219 0.640625 L 21.398438 0.640625 L 21.398438 21.464844 L 0.574219 21.464844 Z M 0.574219 0.640625 " fill-opacity="1" fill-rule="nonzero"/></g></g></g></g></g></g><g clip-path="url(#e37cef7504)"><g clip-path="url(#4e33c77565)"><g transform="matrix(1, 0, 0, 1, 40, 232)"><g clip-path="url(#60ba770980)"><g clip-path="url(#cd734eff20)"><g clip-path="url(#e757d2825c)"><path fill="#dc2625" d="M 0.308594 0.640625 L 25.230469 0.640625 L 25.230469 25.5625 L 0.308594 25.5625 Z M 0.308594 0.640625 " fill-opacity="1" fill-rule="nonzero"/></g></g></g></g></g></g><g clip-path="url(#43ba114e4c)"><g clip-path="url(#efc4ef6cbb)"><g transform="matrix(1, 0, 0, 1, 67, 221)"><g clip-path="url(#a96225ba63)"><g clip-path="url(#f8098d8fd4)"><g clip-path="url(#28cad45792)"><path fill="#db6525" d="M 0.75 0.40625 L 22.96875 0.40625 L 22.96875 22.621094 L 0.75 22.621094 Z M 0.75 0.40625 " fill-opacity="1" fill-rule="nonzero"/></g></g></g></g></g></g><g clip-path="url(#deed5b410b)"><g clip-path="url(#0cf7a2c38a)"><g transform="matrix(1, 0, 0, 1, 43, 200)"><g clip-path="url(#44e5cc4eb1)"><g clip-path="url(#0ee776a611)"><g clip-path="url(#1e5b8ddfcf)"><path fill="#db6525" d="M 0.015625 0.613281 L 23.359375 0.613281 L 23.359375 23.957031 L 0.015625 23.957031 Z M 0.015625 0.613281 " fill-opacity="1" fill-rule="nonzero"/></g></g></g></g></g></g><g clip-path="url(#64bab0cd9c)"><g clip-path="url(#d00d3625c3)"><g transform="matrix(1, 0, 0, 1, 11, 189)"><g clip-path="url(#4fc0db4c05)"><g clip-path="url(#fb9fb7e40d)"><g clip-path="url(#c0e2349fe3)"><path fill="#dc2625" d="M 0.726562 0.433594 L 27.640625 0.433594 L 27.640625 27.347656 L 0.726562 27.347656 Z M 0.726562 0.433594 " fill-opacity="1" fill-rule="nonzero"/></g></g></g></g></g></g><g clip-path="url(#3859a78a98)"><g clip-path="url(#95d0637adf)"><g transform="matrix(1, 0, 0, 1, 83, 196)"><g clip-path="url(#ec86ef41a6)"><g clip-path="url(#0433943afb)"><g clip-path="url(#260655888c)"><path fill="#db6525" d="M 0.167969 0.273438 L 22.382812 0.273438 L 22.382812 22.488281 L 0.167969 22.488281 Z M 0.167969 0.273438 " fill-opacity="1" fill-rule="nonzero"/></g></g></g></g></g></g><g clip-path="url(#bb25f97d93)"><g clip-path="url(#581e096ee3)"><g transform="matrix(1, 0, 0, 1, 113, 207)"><g clip-path="url(#2a72532f41)"><g clip-path="url(#06b4f6e9e2)"><g clip-path="url(#6f2a167caa)"><path fill="#dea22c" d="M 0.574219 0.378906 L 26.09375 0.378906 L 26.09375 25.902344 L 0.574219 25.902344 Z M 0.574219 0.378906 " fill-opacity="1" fill-rule="nonzero"/></g></g></g></g></g></g><g clip-path="url(#4fbc4b189d)"><g clip-path="url(#996f497515)"><g transform="matrix(1, 0, 0, 1, 60, 175)"><g clip-path="url(#1ca399ea95)"><g clip-path="url(#d4b8a9b9ec)"><g clip-path="url(#b2c4df403c)"><path fill="#db6525" d="M 0.945312 0.09375 L 28.300781 0.09375 L 28.300781 27.449219 L 0.945312 27.449219 Z M 0.945312 0.09375 " fill-opacity="1" fill-rule="nonzero"/></g></g></g></g></g></g><g clip-path="url(#50f7e55ea0)"><g clip-path="url(#ae880b1460)"><g transform="matrix(1, 0, 0, 1, 32, 158)"><g clip-path="url(#84e0c0ccdf)"><g clip-path="url(#4fb2430444)"><g clip-path="url(#8e7d8cc432)"><path fill="#dc2625" d="M 0.472656 0.339844 L 24.277344 0.339844 L 24.277344 24.144531 L 0.472656 24.144531 Z M 0.472656 0.339844 " fill-opacity="1" fill-rule="nonzero"/></g></g></g></g></g></g><g clip-path="url(#92f2d90ff0)"><g clip-path="url(#e355fcf12f)"><g transform="matrix(1, 0, 0, 1, 134, 182)"><g clip-path="url(#131c4a4e7a)"><g clip-path="url(#85bf573ef3)"><g clip-path="url(#2cec90aa8b)"><path fill="#dea22c" d="M 0.898438 0.144531 L 23.113281 0.144531 L 23.113281 22.359375 L 0.898438 22.359375 Z M 0.898438 0.144531 " fill-opacity="1" fill-rule="nonzero"/></g></g></g></g></g></g><g clip-path="url(#110f680a93)"><g clip-path="url(#dca0410ed8)"><g transform="matrix(1, 0, 0, 1, 98, 167)"><g clip-path="url(#2c55bbf935)"><g clip-path="url(#bd5fd55121)"><g clip-path="url(#cd955b7e83)"><path fill="#db6525" d="M 0.253906 0.789062 L 28.738281 0.789062 L 28.738281 29.273438 L 0.253906 29.273438 Z M 0.253906 0.789062 " fill-opacity="1" fill-rule="nonzero"/></g></g></g></g></g></g><g clip-path="url(#ba9b15812d)"><g clip-path="url(#d7d89ad98a)"><g transform="matrix(1, 0, 0, 1, 152, 157)"><g clip-path="url(#2c547079f6)"><g clip-path="url(#b9bbbc780d)"><g clip-path="url(#0f713a68ad)"><path fill="#dea22c" d="M 0.667969 0.167969 L 29.152344 0.167969 L 29.152344 28.652344 L 0.667969 28.652344 Z M 0.667969 0.167969 " fill-opacity="1" fill-rule="nonzero"/></g></g></g></g></g></g><g clip-path="url(#30897a9add)"><g clip-path="url(#a9a4c75e46)"><g transform="matrix(1, 0, 0, 1, 119, 150)"><g clip-path="url(#448f06cd7c)"><g clip-path="url(#3270f1beab)"><g clip-path="url(#75d3d60b65)"><path fill="#dea22c" d="M 0.910156 0.425781 L 23.128906 0.425781 L 23.128906 22.640625 L 0.910156 22.640625 Z M 0.910156 0.425781 " fill-opacity="1" fill-rule="nonzero"/></g></g></g></g></g></g><g clip-path="url(#7c8ccd77a6)"><g clip-path="url(#0ce57bf090)"><g transform="matrix(1, 0, 0, 1, 141, 132)"><g clip-path="url(#d2289df7e4)"><g clip-path="url(#eb64f3edc9)"><g clip-path="url(#43db718415)"><path fill="#dea22c" d="M 0.558594 0.0351562 L 22.621094 0.0351562 L 22.621094 22.097656 L 0.558594 22.097656 Z M 0.558594 0.0351562 " fill-opacity="1" fill-rule="nonzero"/></g></g></g></g></g></g><g clip-path="url(#29e9953c16)"><g clip-path="url(#9cab4aac53)"><g transform="matrix(1, 0, 0, 1, 171, 136)"><g clip-path="url(#0c8b7221a8)"><g clip-path="url(#1c750ad31f)"><g clip-path="url(#a59f320f65)"><path fill="#dea22c" d="M 0.679688 0.277344 L 22.742188 0.277344 L 22.742188 22.339844 L 0.679688 22.339844 Z M 0.679688 0.277344 " fill-opacity="1" fill-rule="nonzero"/></g></g></g></g></g></g><g clip-path="url(#a6df2a2ef0)"><g clip-path="url(#34e6e6d153)"><g transform="matrix(1, 0, 0, 1, 80, 154)"><g clip-path="url(#2acbb02831)"><g clip-path="url(#e8f7eb81dc)"><g clip-path="url(#61b34257b4)"><path fill="#db6525" d="M 0.125 0.0976562 L 16.273438 0.0976562 L 16.273438 16.25 L 0.125 16.25 Z M 0.125 0.0976562 " fill-opacity="1" fill-rule="nonzero"/></g></g></g></g></g></g><g clip-path="url(#e92f8bf2fe)"><g clip-path="url(#115361de1a)"><g transform="matrix(1, 0, 0, 1, 94, 136)"><g clip-path="url(#fad176b924)"><g clip-path="url(#865e9df1fe)"><g clip-path="url(#1b2bf2ebab)"><path fill="#db6525" d="M 0.351562 0.277344 L 21.023438 0.277344 L 21.023438 20.949219 L 0.351562 20.949219 Z M 0.351562 0.277344 " fill-opacity="1" fill-rule="nonzero"/></g></g></g></g></g></g><g clip-path="url(#fa03c52524)"><g clip-path="url(#ccfee42b1b)"><g transform="matrix(1, 0, 0, 1, 183, 114)"><g clip-path="url(#e99eeb6e5b)"><g clip-path="url(#b72793d596)"><g clip-path="url(#81e22f2283)"><path fill="#dea22c" d="M 0.203125 0.773438 L 13.792969 0.773438 L 13.792969 14.363281 L 0.203125 14.363281 Z M 0.203125 0.773438 " fill-opacity="1" fill-rule="nonzero"/></g></g></g></g></g></g><g clip-path="url(#083ec71e1c)"><g clip-path="url(#0d84059444)"><g transform="matrix(1, 0, 0, 1, 55, 134)"><g clip-path="url(#0e7c90199d)"><g clip-path="url(#b017cefcbc)"><g clip-path="url(#5916b6f818)"><path fill="#db6525" d="M 0.328125 0.808594 L 23.859375 0.808594 L 23.859375 24.339844 L 0.328125 24.339844 Z M 0.328125 0.808594 " fill-opacity="1" fill-rule="nonzero"/></g></g></g></g></g></g><g clip-path="url(#bd658dc9b4)"><g clip-path="url(#22c61375b3)"><g transform="matrix(1, 0, 0, 1, 80, 107)"><g clip-path="url(#9c3f912850)"><g clip-path="url(#6c93de0a38)"><g clip-path="url(#86d1bad46a)"><path fill="#db6525" d="M 0.125 0.339844 L 24.6875 0.339844 L 24.6875 24.902344 L 0.125 24.902344 Z M 0.125 0.339844 " fill-opacity="1" fill-rule="nonzero"/></g></g></g></g></g></g><g clip-path="url(#868361daa8)"><g clip-path="url(#9c4493acd1)"><g transform="matrix(1, 0, 0, 1, 101, 84)"><g clip-path="url(#ca0402965c)"><g clip-path="url(#85bfeedf4b)"><g clip-path="url(#303a4c0d27)"><path fill="#dea22c" d="M 0.464844 0.46875 L 21.175781 0.46875 L 21.175781 21.183594 L 0.464844 21.183594 Z M 0.464844 0.46875 " fill-opacity="1" fill-rule="nonzero"/></g></g></g></g></g></g><g clip-path="url(#edc9828215)"><g clip-path="url(#79172c24cd)"><g transform="matrix(1, 0, 0, 1, 111, 108)"><g clip-path="url(#fab1923e70)"><g clip-path="url(#9ce6ed70ae)"><g clip-path="url(#2fa06df8f2)"><path fill="#dea22c" d="M 0.0351562 0.816406 L 29.980469 0.816406 L 29.980469 30.761719 L 0.0351562 30.761719 Z M 0.0351562 0.816406 " fill-opacity="1" fill-rule="nonzero"/></g></g></g></g></g></g><g clip-path="url(#395e2336d6)"><g clip-path="url(#728a46eca4)"><g transform="matrix(1, 0, 0, 1, 149, 104)"><g clip-path="url(#d90431af3c)"><g clip-path="url(#ea46183796)"><g clip-path="url(#7f5a7c32ac)"><path fill="#dea22c" d="M 0.226562 0.210938 L 23.261719 0.210938 L 23.261719 23.246094 L 0.226562 23.246094 Z M 0.226562 0.210938 " fill-opacity="1" fill-rule="nonzero"/></g></g></g></g></g></g><g clip-path="url(#939da26b00)"><g clip-path="url(#237ad5f6d0)"><g transform="matrix(1, 0, 0, 1, 116, 61)"><g clip-path="url(#2a9b1e6338)"><g clip-path="url(#a3ad1f0d7f)"><g clip-path="url(#ca9cb95d51)"><path fill="#dea22c" d="M 0.480469 0.414062 L 14.070312 0.414062 L 14.070312 14.003906 L 0.480469 14.003906 Z M 0.480469 0.414062 " fill-opacity="1" fill-rule="nonzero"/></g></g></g></g></g></g><g clip-path="url(#021fa76aeb)"><g clip-path="url(#8181123b0e)"><g transform="matrix(1, 0, 0, 1, 160, 81)"><g clip-path="url(#4caabb4278)"><g clip-path="url(#fd58b722f8)"><g clip-path="url(#63823edf77)"><path fill="#dea22c" d="M 0.257812 0.234375 L 18.859375 0.234375 L 18.859375 18.835938 L 0.257812 18.835938 Z M 0.257812 0.234375 " fill-opacity="1" fill-rule="nonzero"/></g></g></g></g></g></g><g clip-path="url(#f90189ac29)"><g clip-path="url(#a72117c557)"><g transform="matrix(1, 0, 0, 1, 129, 81)"><g clip-path="url(#22d8d6ef97)"><g clip-path="url(#c8b1903563)"><g clip-path="url(#bedc55cabf)"><path fill="#dea22c" d="M 0.792969 0.234375 L 19.398438 0.234375 L 19.398438 18.835938 L 0.792969 18.835938 Z M 0.792969 0.234375 " fill-opacity="1" fill-rule="nonzero"/></g></g></g></g></g></g><g clip-path="url(#254ca5ac83)"><g clip-path="url(#856fd9204b)"><g transform="matrix(1, 0, 0, 1, 150, 58)"><g clip-path="url(#1586f3574c)"><g clip-path="url(#bc6d19ca1c)"><g clip-path="url(#a540a44e6a)"><path fill="#dea22c" d="M 0.863281 0.257812 L 20.046875 0.257812 L 20.046875 19.441406 L 0.863281 19.441406 Z M 0.863281 0.257812 " fill-opacity="1" fill-rule="nonzero"/></g></g></g></g></g></g><g clip-path="url(#46ac669c84)"><g clip-path="url(#496ff24698)"><g transform="matrix(1, 0, 0, 1, 126, 41)"><g clip-path="url(#f230cb7f4d)"><g clip-path="url(#5575f92150)"><g clip-path="url(#9b414f3d29)"><path fill="#dea22c" d="M 0.738281 0.988281 L 13.09375 0.988281 L 13.09375 13.347656 L 0.738281 13.347656 Z M 0.738281 0.988281 " fill-opacity="1" fill-rule="nonzero"/></g></g></g></g></g></g><g clip-path="url(#6e1cba714a)"><g clip-path="url(#e98b73a845)"><g transform="matrix(1, 0, 0, 1, 109, 0)"><g clip-path="url(#bbc665ce0d)"><g clip-path="url(#7ddaea8931)"><g clip-path="url(#6d465599fb)"><path fill="#dea22c" d="M 0.816406 0 L 11.226562 0 L 11.226562 10.414062 L 0.816406 10.414062 Z M 0.816406 0 " fill-opacity="1" fill-rule="nonzero"/></g></g></g></g></g></g><g clip-path="url(#f1598328e6)"><g clip-path="url(#04938c4e8a)"><g transform="matrix(1, 0, 0, 1, 120, 16)"><g clip-path="url(#f0d4a65516)"><g clip-path="url(#6fdb311f4d)"><g clip-path="url(#31be04c43a)"><path fill="#dea22c" d="M 0.699219 0.511719 L 17.433594 0.511719 L 17.433594 17.242188 L 0.699219 17.242188 Z M 0.699219 0.511719 " fill-opacity="1" fill-rule="nonzero"/></g></g></g></g></g></g><g clip-path="url(#37ac03ab13)"><g clip-path="url(#5553a4086f)"><g transform="matrix(1, 0, 0, 1, 142, 36)"><g clip-path="url(#d2f98148e5)"><g clip-path="url(#3f8c407b3f)"><g clip-path="url(#011491de95)"><path fill="#dea22c" d="M 0.128906 0.101562 L 15.984375 0.101562 L 15.984375 15.960938 L 0.128906 15.960938 Z M 0.128906 0.101562 " fill-opacity="1" fill-rule="nonzero"/></g></g></g></g></g></g></g></g></svg>