<svg xmlns="http://www.w3.org/2000/svg" xmlns:xlink="http://www.w3.org/1999/xlink" width="164" zoomAndPan="magnify" viewBox="0 0 123 193.499995" height="258" preserveAspectRatio="xMidYMid meet" version="1.0"><defs><clipPath id="703122bd4b"><path d="M 0.160156 0 L 122.839844 0 L 122.839844 193 L 0.160156 193 Z M 0.160156 0 " clip-rule="nonzero"/></clipPath><clipPath id="637c403b91"><path d="M 20.679688 164.660156 L 41.855469 164.660156 L 41.855469 185.835938 L 20.679688 185.835938 Z M 20.679688 164.660156 " clip-rule="nonzero"/></clipPath><clipPath id="b71ee6ec09"><path d="M 31.265625 164.660156 C 25.417969 164.660156 20.679688 169.402344 20.679688 175.25 C 20.679688 181.097656 25.417969 185.835938 31.265625 185.835938 C 37.113281 185.835938 41.855469 181.097656 41.855469 175.25 C 41.855469 169.402344 37.113281 164.660156 31.265625 164.660156 Z M 31.265625 164.660156 " clip-rule="nonzero"/></clipPath><clipPath id="3a8008b240"><path d="M 0.679688 0.660156 L 21.855469 0.660156 L 21.855469 21.835938 L 0.679688 21.835938 Z M 0.679688 0.660156 " clip-rule="nonzero"/></clipPath><clipPath id="c998a72294"><path d="M 11.265625 0.660156 C 5.417969 0.660156 0.679688 5.402344 0.679688 11.25 C 0.679688 17.097656 5.417969 21.835938 11.265625 21.835938 C 17.113281 21.835938 21.855469 17.097656 21.855469 11.25 C 21.855469 5.402344 17.113281 0.660156 11.265625 0.660156 Z M 11.265625 0.660156 " clip-rule="nonzero"/></clipPath><clipPath id="8837499ceb"><rect x="0" width="22" y="0" height="22"/></clipPath><clipPath id="5f6b8f0fb0"><path d="M 41.105469 174.5 L 59.011719 174.5 L 59.011719 192.40625 L 41.105469 192.40625 Z M 41.105469 174.5 " clip-rule="nonzero"/></clipPath><clipPath id="e5c0d7a439"><path d="M 50.058594 174.5 C 45.113281 174.5 41.105469 178.507812 41.105469 183.453125 C 41.105469 188.398438 45.113281 192.40625 50.058594 192.40625 C 55.003906 192.40625 59.011719 188.398438 59.011719 183.453125 C 59.011719 178.507812 55.003906 174.5 50.058594 174.5 Z M 50.058594 174.5 " clip-rule="nonzero"/></clipPath><clipPath id="0a146c2ff8"><path d="M 0.105469 0.5 L 18.011719 0.5 L 18.011719 18.40625 L 0.105469 18.40625 Z M 0.105469 0.5 " clip-rule="nonzero"/></clipPath><clipPath id="693eb33721"><path d="M 9.058594 0.5 C 4.113281 0.5 0.105469 4.507812 0.105469 9.453125 C 0.105469 14.398438 4.113281 18.40625 9.058594 18.40625 C 14.003906 18.40625 18.011719 14.398438 18.011719 9.453125 C 18.011719 4.507812 14.003906 0.5 9.058594 0.5 Z M 9.058594 0.5 " clip-rule="nonzero"/></clipPath><clipPath id="b0e37ec7df"><rect x="0" width="19" y="0" height="19"/></clipPath><clipPath id="e1ec8a9ca2"><path d="M 60.746094 178.582031 L 74.570312 178.582031 L 74.570312 192.40625 L 60.746094 192.40625 Z M 60.746094 178.582031 " clip-rule="nonzero"/></clipPath><clipPath id="3ee4db626a"><path d="M 67.65625 178.582031 C 63.839844 178.582031 60.746094 181.675781 60.746094 185.496094 C 60.746094 189.3125 63.839844 192.40625 67.65625 192.40625 C 71.472656 192.40625 74.570312 189.3125 74.570312 185.496094 C 74.570312 181.675781 71.472656 178.582031 67.65625 178.582031 Z M 67.65625 178.582031 " clip-rule="nonzero"/></clipPath><clipPath id="71ce2ca471"><path d="M 0.746094 0.582031 L 14.570312 0.582031 L 14.570312 14.40625 L 0.746094 14.40625 Z M 0.746094 0.582031 " clip-rule="nonzero"/></clipPath><clipPath id="b9b8996cde"><path d="M 7.65625 0.582031 C 3.839844 0.582031 0.746094 3.675781 0.746094 7.496094 C 0.746094 11.3125 3.839844 14.40625 7.65625 14.40625 C 11.472656 14.40625 14.570312 11.3125 14.570312 7.496094 C 14.570312 3.675781 11.472656 0.582031 7.65625 0.582031 Z M 7.65625 0.582031 " clip-rule="nonzero"/></clipPath><clipPath id="f20bc6185b"><rect x="0" width="15" y="0" height="15"/></clipPath><clipPath id="d644322bed"><path d="M 88.382812 160.046875 L 105.421875 160.046875 L 105.421875 177.085938 L 88.382812 177.085938 Z M 88.382812 160.046875 " clip-rule="nonzero"/></clipPath><clipPath id="8fb09faa77"><path d="M 96.902344 160.046875 C 92.195312 160.046875 88.382812 163.859375 88.382812 168.566406 C 88.382812 173.269531 92.195312 177.085938 96.902344 177.085938 C 101.605469 177.085938 105.421875 173.269531 105.421875 168.566406 C 105.421875 163.859375 101.605469 160.046875 96.902344 160.046875 Z M 96.902344 160.046875 " clip-rule="nonzero"/></clipPath><clipPath id="02fad9ec31"><path d="M 0.382812 0.046875 L 17.421875 0.046875 L 17.421875 17.085938 L 0.382812 17.085938 Z M 0.382812 0.046875 " clip-rule="nonzero"/></clipPath><clipPath id="9a5f36b43c"><path d="M 8.902344 0.046875 C 4.195312 0.046875 0.382812 3.859375 0.382812 8.566406 C 0.382812 13.269531 4.195312 17.085938 8.902344 17.085938 C 13.605469 17.085938 17.421875 13.269531 17.421875 8.566406 C 17.421875 3.859375 13.605469 0.046875 8.902344 0.046875 Z M 8.902344 0.046875 " clip-rule="nonzero"/></clipPath><clipPath id="45a3503847"><rect x="0" width="18" y="0" height="18"/></clipPath><clipPath id="22cd4560e6"><path d="M 74.570312 172.847656 L 89.878906 172.847656 L 89.878906 188.15625 L 74.570312 188.15625 Z M 74.570312 172.847656 " clip-rule="nonzero"/></clipPath><clipPath id="22cef4eaf5"><path d="M 82.222656 172.847656 C 77.996094 172.847656 74.570312 176.273438 74.570312 180.5 C 74.570312 184.726562 77.996094 188.15625 82.222656 188.15625 C 86.449219 188.15625 89.878906 184.726562 89.878906 180.5 C 89.878906 176.273438 86.449219 172.847656 82.222656 172.847656 Z M 82.222656 172.847656 " clip-rule="nonzero"/></clipPath><clipPath id="c6a6b53aff"><path d="M 0.570312 0.847656 L 15.878906 0.847656 L 15.878906 16.15625 L 0.570312 16.15625 Z M 0.570312 0.847656 " clip-rule="nonzero"/></clipPath><clipPath id="ebf40fccc5"><path d="M 8.222656 0.847656 C 3.996094 0.847656 0.570312 4.273438 0.570312 8.5 C 0.570312 12.726562 3.996094 16.15625 8.222656 16.15625 C 12.449219 16.15625 15.878906 12.726562 15.878906 8.5 C 15.878906 4.273438 12.449219 0.847656 8.222656 0.847656 Z M 8.222656 0.847656 " clip-rule="nonzero"/></clipPath><clipPath id="7cf82548c6"><rect x="0" width="16" y="0" height="17"/></clipPath><clipPath id="1ecf860f78"><path d="M 100.96875 145.851562 L 115.164062 145.851562 L 115.164062 160.046875 L 100.96875 160.046875 Z M 100.96875 145.851562 " clip-rule="nonzero"/></clipPath><clipPath id="2cc4fa019d"><path d="M 108.066406 145.851562 C 104.148438 145.851562 100.96875 149.027344 100.96875 152.949219 C 100.96875 156.867188 104.148438 160.046875 108.066406 160.046875 C 111.988281 160.046875 115.164062 156.867188 115.164062 152.949219 C 115.164062 149.027344 111.988281 145.851562 108.066406 145.851562 Z M 108.066406 145.851562 " clip-rule="nonzero"/></clipPath><clipPath id="4ee6cc8319"><path d="M 0.96875 0.851562 L 15.164062 0.851562 L 15.164062 15.046875 L 0.96875 15.046875 Z M 0.96875 0.851562 " clip-rule="nonzero"/></clipPath><clipPath id="83093b8bf6"><path d="M 8.066406 0.851562 C 4.148438 0.851562 0.96875 4.027344 0.96875 7.949219 C 0.96875 11.867188 4.148438 15.046875 8.066406 15.046875 C 11.988281 15.046875 15.164062 11.867188 15.164062 7.949219 C 15.164062 4.027344 11.988281 0.851562 8.066406 0.851562 Z M 8.066406 0.851562 " clip-rule="nonzero"/></clipPath><clipPath id="8903d5256a"><rect x="0" width="16" y="0" height="16"/></clipPath><clipPath id="83380c6874"><path d="M 109.625 133.015625 L 122.460938 133.015625 L 122.460938 145.851562 L 109.625 145.851562 Z M 109.625 133.015625 " clip-rule="nonzero"/></clipPath><clipPath id="c3a44b8b40"><path d="M 116.042969 133.015625 C 112.5 133.015625 109.625 135.886719 109.625 139.433594 C 109.625 142.976562 112.5 145.851562 116.042969 145.851562 C 119.589844 145.851562 122.460938 142.976562 122.460938 139.433594 C 122.460938 135.886719 119.589844 133.015625 116.042969 133.015625 Z M 116.042969 133.015625 " clip-rule="nonzero"/></clipPath><clipPath id="4d4d35399a"><path d="M 0.625 0.015625 L 13.460938 0.015625 L 13.460938 12.851562 L 0.625 12.851562 Z M 0.625 0.015625 " clip-rule="nonzero"/></clipPath><clipPath id="9417158fe5"><path d="M 7.042969 0.015625 C 3.5 0.015625 0.625 2.886719 0.625 6.433594 C 0.625 9.976562 3.5 12.851562 7.042969 12.851562 C 10.589844 12.851562 13.460938 9.976562 13.460938 6.433594 C 13.460938 2.886719 10.589844 0.015625 7.042969 0.015625 Z M 7.042969 0.015625 " clip-rule="nonzero"/></clipPath><clipPath id="c0904b3ae4"><rect x="0" width="14" y="0" height="13"/></clipPath><clipPath id="c1ef5c420f"><path d="M 109.625 119.019531 L 121.582031 119.019531 L 121.582031 130.976562 L 109.625 130.976562 Z M 109.625 119.019531 " clip-rule="nonzero"/></clipPath><clipPath id="9753297f78"><path d="M 115.605469 119.019531 C 112.304688 119.019531 109.625 121.695312 109.625 124.996094 C 109.625 128.300781 112.304688 130.976562 115.605469 130.976562 C 118.90625 130.976562 121.582031 128.300781 121.582031 124.996094 C 121.582031 121.695312 118.90625 119.019531 115.605469 119.019531 Z M 115.605469 119.019531 " clip-rule="nonzero"/></clipPath><clipPath id="97862f2b9a"><path d="M 0.625 0.0195312 L 12.582031 0.0195312 L 12.582031 11.976562 L 0.625 11.976562 Z M 0.625 0.0195312 " clip-rule="nonzero"/></clipPath><clipPath id="91885a1a6f"><path d="M 6.605469 0.0195312 C 3.304688 0.0195312 0.625 2.695312 0.625 5.996094 C 0.625 9.300781 3.304688 11.976562 6.605469 11.976562 C 9.90625 11.976562 12.582031 9.300781 12.582031 5.996094 C 12.582031 2.695312 9.90625 0.0195312 6.605469 0.0195312 Z M 6.605469 0.0195312 " clip-rule="nonzero"/></clipPath><clipPath id="3261f9d6a0"><rect x="0" width="13" y="0" height="12"/></clipPath><clipPath id="1040051267"><path d="M 93.261719 133.015625 L 103.925781 133.015625 L 103.925781 143.679688 L 93.261719 143.679688 Z M 93.261719 133.015625 " clip-rule="nonzero"/></clipPath><clipPath id="10fcf3d7b7"><path d="M 98.59375 133.015625 C 95.648438 133.015625 93.261719 135.402344 93.261719 138.347656 C 93.261719 141.292969 95.648438 143.679688 98.59375 143.679688 C 101.539062 143.679688 103.925781 141.292969 103.925781 138.347656 C 103.925781 135.402344 101.539062 133.015625 98.59375 133.015625 Z M 98.59375 133.015625 " clip-rule="nonzero"/></clipPath><clipPath id="bb79a03c21"><path d="M 0.261719 0.015625 L 10.925781 0.015625 L 10.925781 10.679688 L 0.261719 10.679688 Z M 0.261719 0.015625 " clip-rule="nonzero"/></clipPath><clipPath id="a96ab7371e"><path d="M 5.59375 0.015625 C 2.648438 0.015625 0.261719 2.402344 0.261719 5.347656 C 0.261719 8.292969 2.648438 10.679688 5.59375 10.679688 C 8.539062 10.679688 10.925781 8.292969 10.925781 5.347656 C 10.925781 2.402344 8.539062 0.015625 5.59375 0.015625 Z M 5.59375 0.015625 " clip-rule="nonzero"/></clipPath><clipPath id="b588b3672c"><rect x="0" width="11" y="0" height="11"/></clipPath><clipPath id="71219d462a"><path d="M 84.066406 143.679688 L 96.902344 143.679688 L 96.902344 156.511719 L 84.066406 156.511719 Z M 84.066406 143.679688 " clip-rule="nonzero"/></clipPath><clipPath id="080b4f52dd"><path d="M 90.484375 143.679688 C 86.941406 143.679688 84.066406 146.550781 84.066406 150.09375 C 84.066406 153.640625 86.941406 156.511719 90.484375 156.511719 C 94.027344 156.511719 96.902344 153.640625 96.902344 150.09375 C 96.902344 146.550781 94.027344 143.679688 90.484375 143.679688 Z M 90.484375 143.679688 " clip-rule="nonzero"/></clipPath><clipPath id="58ff1c92ba"><path d="M 0.0664062 0.679688 L 12.902344 0.679688 L 12.902344 13.511719 L 0.0664062 13.511719 Z M 0.0664062 0.679688 " clip-rule="nonzero"/></clipPath><clipPath id="3316d4a12a"><path d="M 6.484375 0.679688 C 2.941406 0.679688 0.0664062 3.550781 0.0664062 7.09375 C 0.0664062 10.640625 2.941406 13.511719 6.484375 13.511719 C 10.027344 13.511719 12.902344 10.640625 12.902344 7.09375 C 12.902344 3.550781 10.027344 0.679688 6.484375 0.679688 Z M 6.484375 0.679688 " clip-rule="nonzero"/></clipPath><clipPath id="f57a449392"><rect x="0" width="13" y="0" height="14"/></clipPath><clipPath id="37c4737b2f"><path d="M 70.738281 155.234375 L 84.066406 155.234375 L 84.066406 168.566406 L 70.738281 168.566406 Z M 70.738281 155.234375 " clip-rule="nonzero"/></clipPath><clipPath id="565bbd639a"><path d="M 77.402344 155.234375 C 73.722656 155.234375 70.738281 158.21875 70.738281 161.902344 C 70.738281 165.582031 73.722656 168.566406 77.402344 168.566406 C 81.082031 168.566406 84.066406 165.582031 84.066406 161.902344 C 84.066406 158.21875 81.082031 155.234375 77.402344 155.234375 Z M 77.402344 155.234375 " clip-rule="nonzero"/></clipPath><clipPath id="0122cd402f"><path d="M 0.738281 0.234375 L 14.066406 0.234375 L 14.066406 13.566406 L 0.738281 13.566406 Z M 0.738281 0.234375 " clip-rule="nonzero"/></clipPath><clipPath id="c312c20647"><path d="M 7.402344 0.234375 C 3.722656 0.234375 0.738281 3.21875 0.738281 6.902344 C 0.738281 10.582031 3.722656 13.566406 7.402344 13.566406 C 11.082031 13.566406 14.066406 10.582031 14.066406 6.902344 C 14.066406 3.21875 11.082031 0.234375 7.402344 0.234375 Z M 7.402344 0.234375 " clip-rule="nonzero"/></clipPath><clipPath id="fc91315e0d"><rect x="0" width="15" y="0" height="14"/></clipPath><clipPath id="ec5a57368d"><path d="M 56.96875 163.175781 L 71.78125 163.175781 L 71.78125 177.988281 L 56.96875 177.988281 Z M 56.96875 163.175781 " clip-rule="nonzero"/></clipPath><clipPath id="5995f2996b"><path d="M 64.375 163.175781 C 60.285156 163.175781 56.96875 166.492188 56.96875 170.582031 C 56.96875 174.675781 60.285156 177.988281 64.375 177.988281 C 68.464844 177.988281 71.78125 174.675781 71.78125 170.582031 C 71.78125 166.492188 68.464844 163.175781 64.375 163.175781 Z M 64.375 163.175781 " clip-rule="nonzero"/></clipPath><clipPath id="005078f93c"><path d="M 0.96875 0.175781 L 15.78125 0.175781 L 15.78125 14.988281 L 0.96875 14.988281 Z M 0.96875 0.175781 " clip-rule="nonzero"/></clipPath><clipPath id="539520ef23"><path d="M 8.375 0.175781 C 4.285156 0.175781 0.96875 3.492188 0.96875 7.582031 C 0.96875 11.675781 4.285156 14.988281 8.375 14.988281 C 12.464844 14.988281 15.78125 11.675781 15.78125 7.582031 C 15.78125 3.492188 12.464844 0.175781 8.375 0.175781 Z M 8.375 0.175781 " clip-rule="nonzero"/></clipPath><clipPath id="b4d02e6f1c"><rect x="0" width="16" y="0" height="15"/></clipPath><clipPath id="07965aabbf"><path d="M 42.042969 160.046875 L 54.066406 160.046875 L 54.066406 172.066406 L 42.042969 172.066406 Z M 42.042969 160.046875 " clip-rule="nonzero"/></clipPath><clipPath id="ed3a97f1c9"><path d="M 48.054688 160.046875 C 44.734375 160.046875 42.042969 162.738281 42.042969 166.054688 C 42.042969 169.375 44.734375 172.066406 48.054688 172.066406 C 51.375 172.066406 54.066406 169.375 54.066406 166.054688 C 54.066406 162.738281 51.375 160.046875 48.054688 160.046875 Z M 48.054688 160.046875 " clip-rule="nonzero"/></clipPath><clipPath id="1f67ead31d"><path d="M 0.0429688 0.046875 L 12.066406 0.046875 L 12.066406 12.066406 L 0.0429688 12.066406 Z M 0.0429688 0.046875 " clip-rule="nonzero"/></clipPath><clipPath id="5d4484cb2b"><path d="M 6.054688 0.046875 C 2.734375 0.046875 0.0429688 2.738281 0.0429688 6.054688 C 0.0429688 9.375 2.734375 12.066406 6.054688 12.066406 C 9.375 12.066406 12.066406 9.375 12.066406 6.054688 C 12.066406 2.738281 9.375 0.046875 6.054688 0.046875 Z M 6.054688 0.046875 " clip-rule="nonzero"/></clipPath><clipPath id="e6e02d6e9c"><rect x="0" width="13" y="0" height="13"/></clipPath><clipPath id="0bb7485ed5"><path d="M 51.515625 149.019531 L 65.023438 149.019531 L 65.023438 162.523438 L 51.515625 162.523438 Z M 51.515625 149.019531 " clip-rule="nonzero"/></clipPath><clipPath id="c09818cb2c"><path d="M 58.269531 149.019531 C 54.539062 149.019531 51.515625 152.042969 51.515625 155.769531 C 51.515625 159.5 54.539062 162.523438 58.269531 162.523438 C 62 162.523438 65.023438 159.5 65.023438 155.769531 C 65.023438 152.042969 62 149.019531 58.269531 149.019531 Z M 58.269531 149.019531 " clip-rule="nonzero"/></clipPath><clipPath id="e89f47c2c9"><path d="M 0.515625 0.0195312 L 14.023438 0.0195312 L 14.023438 13.523438 L 0.515625 13.523438 Z M 0.515625 0.0195312 " clip-rule="nonzero"/></clipPath><clipPath id="804eee24a3"><path d="M 7.269531 0.0195312 C 3.539062 0.0195312 0.515625 3.042969 0.515625 6.769531 C 0.515625 10.5 3.539062 13.523438 7.269531 13.523438 C 11 13.523438 14.023438 10.5 14.023438 6.769531 C 14.023438 3.042969 11 0.0195312 7.269531 0.0195312 Z M 7.269531 0.0195312 " clip-rule="nonzero"/></clipPath><clipPath id="704585783b"><rect x="0" width="15" y="0" height="14"/></clipPath><clipPath id="8bc90e01d3"><path d="M 34.046875 143.679688 L 48.167969 143.679688 L 48.167969 157.800781 L 34.046875 157.800781 Z M 34.046875 143.679688 " clip-rule="nonzero"/></clipPath><clipPath id="4d5d14322c"><path d="M 41.105469 143.679688 C 37.207031 143.679688 34.046875 146.839844 34.046875 150.738281 C 34.046875 154.640625 37.207031 157.800781 41.105469 157.800781 C 45.007812 157.800781 48.167969 154.640625 48.167969 150.738281 C 48.167969 146.839844 45.007812 143.679688 41.105469 143.679688 Z M 41.105469 143.679688 " clip-rule="nonzero"/></clipPath><clipPath id="9399338dfa"><path d="M 0.046875 0.679688 L 14.167969 0.679688 L 14.167969 14.800781 L 0.046875 14.800781 Z M 0.046875 0.679688 " clip-rule="nonzero"/></clipPath><clipPath id="df0fd762a8"><path d="M 7.105469 0.679688 C 3.207031 0.679688 0.046875 3.839844 0.046875 7.738281 C 0.046875 11.640625 3.207031 14.800781 7.105469 14.800781 C 11.007812 14.800781 14.167969 11.640625 14.167969 7.738281 C 14.167969 3.839844 11.007812 0.679688 7.105469 0.679688 Z M 7.105469 0.679688 " clip-rule="nonzero"/></clipPath><clipPath id="e7986825b8"><rect x="0" width="15" y="0" height="15"/></clipPath><clipPath id="2c2071a464"><path d="M 22.949219 151.332031 L 34.792969 151.332031 L 34.792969 163.175781 L 22.949219 163.175781 Z M 22.949219 151.332031 " clip-rule="nonzero"/></clipPath><clipPath id="121e05b97f"><path d="M 28.871094 151.332031 C 25.601562 151.332031 22.949219 153.984375 22.949219 157.253906 C 22.949219 160.523438 25.601562 163.175781 28.871094 163.175781 C 32.140625 163.175781 34.792969 160.523438 34.792969 157.253906 C 34.792969 153.984375 32.140625 151.332031 28.871094 151.332031 Z M 28.871094 151.332031 " clip-rule="nonzero"/></clipPath><clipPath id="0a6bfaef0d"><path d="M 0.949219 0.332031 L 12.792969 0.332031 L 12.792969 12.175781 L 0.949219 12.175781 Z M 0.949219 0.332031 " clip-rule="nonzero"/></clipPath><clipPath id="76eb200dd1"><path d="M 6.871094 0.332031 C 3.601562 0.332031 0.949219 2.984375 0.949219 6.253906 C 0.949219 9.523438 3.601562 12.175781 6.871094 12.175781 C 10.140625 12.175781 12.792969 9.523438 12.792969 6.253906 C 12.792969 2.984375 10.140625 0.332031 6.871094 0.332031 Z M 6.871094 0.332031 " clip-rule="nonzero"/></clipPath><clipPath id="4953f7f3a9"><rect x="0" width="13" y="0" height="13"/></clipPath><clipPath id="aedf2f62e7"><path d="M 9.074219 155.769531 L 22.949219 155.769531 L 22.949219 169.644531 L 9.074219 169.644531 Z M 9.074219 155.769531 " clip-rule="nonzero"/></clipPath><clipPath id="13771b2df0"><path d="M 16.011719 155.769531 C 12.179688 155.769531 9.074219 158.875 9.074219 162.707031 C 9.074219 166.539062 12.179688 169.644531 16.011719 169.644531 C 19.84375 169.644531 22.949219 166.539062 22.949219 162.707031 C 22.949219 158.875 19.84375 155.769531 16.011719 155.769531 Z M 16.011719 155.769531 " clip-rule="nonzero"/></clipPath><clipPath id="8f0598d11e"><path d="M 0.0742188 0.769531 L 13.949219 0.769531 L 13.949219 14.644531 L 0.0742188 14.644531 Z M 0.0742188 0.769531 " clip-rule="nonzero"/></clipPath><clipPath id="02ccc9894c"><path d="M 7.011719 0.769531 C 3.179688 0.769531 0.0742188 3.875 0.0742188 7.707031 C 0.0742188 11.539062 3.179688 14.644531 7.011719 14.644531 C 10.84375 14.644531 13.949219 11.539062 13.949219 7.707031 C 13.949219 3.875 10.84375 0.769531 7.011719 0.769531 Z M 7.011719 0.769531 " clip-rule="nonzero"/></clipPath><clipPath id="46a36143c3"><rect x="0" width="14" y="0" height="15"/></clipPath><clipPath id="afa070f434"><path d="M 0.160156 135.863281 L 17.992188 135.863281 L 17.992188 153.695312 L 0.160156 153.695312 Z M 0.160156 135.863281 " clip-rule="nonzero"/></clipPath><clipPath id="bfc78ba8f4"><path d="M 9.074219 135.863281 C 4.152344 135.863281 0.160156 139.855469 0.160156 144.78125 C 0.160156 149.703125 4.152344 153.695312 9.074219 153.695312 C 14 153.695312 17.992188 149.703125 17.992188 144.78125 C 17.992188 139.855469 14 135.863281 9.074219 135.863281 Z M 9.074219 135.863281 " clip-rule="nonzero"/></clipPath><clipPath id="99124b2128"><path d="M 0.160156 0.863281 L 17.992188 0.863281 L 17.992188 18.695312 L 0.160156 18.695312 Z M 0.160156 0.863281 " clip-rule="nonzero"/></clipPath><clipPath id="59581702ce"><path d="M 9.074219 0.863281 C 4.152344 0.863281 0.160156 4.855469 0.160156 9.78125 C 0.160156 14.703125 4.152344 18.695312 9.074219 18.695312 C 14 18.695312 17.992188 14.703125 17.992188 9.78125 C 17.992188 4.855469 14 0.863281 9.074219 0.863281 Z M 9.074219 0.863281 " clip-rule="nonzero"/></clipPath><clipPath id="9362432a5e"><rect x="0" width="18" y="0" height="19"/></clipPath><clipPath id="a0bd681c40"><path d="M 0.160156 115.183594 L 17.992188 115.183594 L 17.992188 133.015625 L 0.160156 133.015625 Z M 0.160156 115.183594 " clip-rule="nonzero"/></clipPath><clipPath id="78a6e26331"><path d="M 9.074219 115.183594 C 4.152344 115.183594 0.160156 119.175781 0.160156 124.097656 C 0.160156 129.023438 4.152344 133.015625 9.074219 133.015625 C 14 133.015625 17.992188 129.023438 17.992188 124.097656 C 17.992188 119.175781 14 115.183594 9.074219 115.183594 Z M 9.074219 115.183594 " clip-rule="nonzero"/></clipPath><clipPath id="0195e69461"><path d="M 0.160156 0.183594 L 17.992188 0.183594 L 17.992188 18.015625 L 0.160156 18.015625 Z M 0.160156 0.183594 " clip-rule="nonzero"/></clipPath><clipPath id="baabfe5507"><path d="M 9.074219 0.183594 C 4.152344 0.183594 0.160156 4.175781 0.160156 9.097656 C 0.160156 14.023438 4.152344 18.015625 9.074219 18.015625 C 14 18.015625 17.992188 14.023438 17.992188 9.097656 C 17.992188 4.175781 14 0.183594 9.074219 0.183594 Z M 9.074219 0.183594 " clip-rule="nonzero"/></clipPath><clipPath id="0a8aab24de"><rect x="0" width="18" y="0" height="19"/></clipPath><clipPath id="262cba277f"><path d="M 19.421875 134.394531 L 34.046875 134.394531 L 34.046875 149.019531 L 19.421875 149.019531 Z M 19.421875 134.394531 " clip-rule="nonzero"/></clipPath><clipPath id="ed371b71f8"><path d="M 26.734375 134.394531 C 22.695312 134.394531 19.421875 137.667969 19.421875 141.707031 C 19.421875 145.746094 22.695312 149.019531 26.734375 149.019531 C 30.773438 149.019531 34.046875 145.746094 34.046875 141.707031 C 34.046875 137.667969 30.773438 134.394531 26.734375 134.394531 Z M 26.734375 134.394531 " clip-rule="nonzero"/></clipPath><clipPath id="e6ce3c2c46"><path d="M 0.421875 0.394531 L 15.046875 0.394531 L 15.046875 15.019531 L 0.421875 15.019531 Z M 0.421875 0.394531 " clip-rule="nonzero"/></clipPath><clipPath id="6db2cae653"><path d="M 7.734375 0.394531 C 3.695312 0.394531 0.421875 3.667969 0.421875 7.707031 C 0.421875 11.746094 3.695312 15.019531 7.734375 15.019531 C 11.773438 15.019531 15.046875 11.746094 15.046875 7.707031 C 15.046875 3.667969 11.773438 0.394531 7.734375 0.394531 Z M 7.734375 0.394531 " clip-rule="nonzero"/></clipPath><clipPath id="97a2090920"><rect x="0" width="16" y="0" height="16"/></clipPath><clipPath id="615462f715"><path d="M 48.167969 136.136719 L 58.269531 136.136719 L 58.269531 146.238281 L 48.167969 146.238281 Z M 48.167969 136.136719 " clip-rule="nonzero"/></clipPath><clipPath id="97bcdfeae9"><path d="M 53.21875 136.136719 C 50.429688 136.136719 48.167969 138.398438 48.167969 141.1875 C 48.167969 143.976562 50.429688 146.238281 53.21875 146.238281 C 56.007812 146.238281 58.269531 143.976562 58.269531 141.1875 C 58.269531 138.398438 56.007812 136.136719 53.21875 136.136719 Z M 53.21875 136.136719 " clip-rule="nonzero"/></clipPath><clipPath id="c6f07a0a9d"><path d="M 0.167969 0.136719 L 10.269531 0.136719 L 10.269531 10.238281 L 0.167969 10.238281 Z M 0.167969 0.136719 " clip-rule="nonzero"/></clipPath><clipPath id="68e56c4d14"><path d="M 5.21875 0.136719 C 2.429688 0.136719 0.167969 2.398438 0.167969 5.1875 C 0.167969 7.976562 2.429688 10.238281 5.21875 10.238281 C 8.007812 10.238281 10.269531 7.976562 10.269531 5.1875 C 10.269531 2.398438 8.007812 0.136719 5.21875 0.136719 Z M 5.21875 0.136719 " clip-rule="nonzero"/></clipPath><clipPath id="f7968fb88e"><rect x="0" width="11" y="0" height="11"/></clipPath><clipPath id="ca3b6cb503"><path d="M 34.046875 127.335938 L 46.15625 127.335938 L 46.15625 139.445312 L 34.046875 139.445312 Z M 34.046875 127.335938 " clip-rule="nonzero"/></clipPath><clipPath id="14ae579291"><path d="M 40.101562 127.335938 C 36.757812 127.335938 34.046875 130.046875 34.046875 133.390625 C 34.046875 136.734375 36.757812 139.445312 40.101562 139.445312 C 43.445312 139.445312 46.15625 136.734375 46.15625 133.390625 C 46.15625 130.046875 43.445312 127.335938 40.101562 127.335938 Z M 40.101562 127.335938 " clip-rule="nonzero"/></clipPath><clipPath id="08357860e4"><path d="M 0.046875 0.335938 L 12.15625 0.335938 L 12.15625 12.445312 L 0.046875 12.445312 Z M 0.046875 0.335938 " clip-rule="nonzero"/></clipPath><clipPath id="7f77e51cc4"><path d="M 6.101562 0.335938 C 2.757812 0.335938 0.046875 3.046875 0.046875 6.390625 C 0.046875 9.734375 2.757812 12.445312 6.101562 12.445312 C 9.445312 12.445312 12.15625 9.734375 12.15625 6.390625 C 12.15625 3.046875 9.445312 0.335938 6.101562 0.335938 Z M 6.101562 0.335938 " clip-rule="nonzero"/></clipPath><clipPath id="a709cc44ef"><rect x="0" width="13" y="0" height="13"/></clipPath><clipPath id="d7b6af09cd"><path d="M 67.300781 141.707031 L 78.539062 141.707031 L 78.539062 152.949219 L 67.300781 152.949219 Z M 67.300781 141.707031 " clip-rule="nonzero"/></clipPath><clipPath id="ee8a73b199"><path d="M 72.917969 141.707031 C 69.816406 141.707031 67.300781 144.222656 67.300781 147.328125 C 67.300781 150.429688 69.816406 152.949219 72.917969 152.949219 C 76.023438 152.949219 78.539062 150.429688 78.539062 147.328125 C 78.539062 144.222656 76.023438 141.707031 72.917969 141.707031 Z M 72.917969 141.707031 " clip-rule="nonzero"/></clipPath><clipPath id="25860af3c8"><path d="M 0.300781 0.707031 L 11.539062 0.707031 L 11.539062 11.949219 L 0.300781 11.949219 Z M 0.300781 0.707031 " clip-rule="nonzero"/></clipPath><clipPath id="56537f2a9b"><path d="M 5.917969 0.707031 C 2.816406 0.707031 0.300781 3.222656 0.300781 6.328125 C 0.300781 9.429688 2.816406 11.949219 5.917969 11.949219 C 9.023438 11.949219 11.539062 9.429688 11.539062 6.328125 C 11.539062 3.222656 9.023438 0.707031 5.917969 0.707031 Z M 5.917969 0.707031 " clip-rule="nonzero"/></clipPath><clipPath id="bbc150f474"><rect x="0" width="12" y="0" height="12"/></clipPath><clipPath id="742001f349"><path d="M 78.328125 128.988281 L 89.570312 128.988281 L 89.570312 140.230469 L 78.328125 140.230469 Z M 78.328125 128.988281 " clip-rule="nonzero"/></clipPath><clipPath id="9e911e12bc"><path d="M 83.949219 128.988281 C 80.84375 128.988281 78.328125 131.503906 78.328125 134.609375 C 78.328125 137.714844 80.84375 140.230469 83.949219 140.230469 C 87.054688 140.230469 89.570312 137.714844 89.570312 134.609375 C 89.570312 131.503906 87.054688 128.988281 83.949219 128.988281 Z M 83.949219 128.988281 " clip-rule="nonzero"/></clipPath><clipPath id="28e16d3a8d"><path d="M 0.328125 0.988281 L 11.570312 0.988281 L 11.570312 12.230469 L 0.328125 12.230469 Z M 0.328125 0.988281 " clip-rule="nonzero"/></clipPath><clipPath id="ff8944ad58"><path d="M 5.949219 0.988281 C 2.84375 0.988281 0.328125 3.503906 0.328125 6.609375 C 0.328125 9.714844 2.84375 12.230469 5.949219 12.230469 C 9.054688 12.230469 11.570312 9.714844 11.570312 6.609375 C 11.570312 3.503906 9.054688 0.988281 5.949219 0.988281 Z M 5.949219 0.988281 " clip-rule="nonzero"/></clipPath><clipPath id="102bfb516b"><rect x="0" width="12" y="0" height="13"/></clipPath><clipPath id="d7cd59a0d0"><path d="M 87.632812 118.8125 L 96.152344 118.8125 L 96.152344 127.335938 L 87.632812 127.335938 Z M 87.632812 118.8125 " clip-rule="nonzero"/></clipPath><clipPath id="f1eb4f773f"><path d="M 91.894531 118.8125 C 89.539062 118.8125 87.632812 120.722656 87.632812 123.074219 C 87.632812 125.425781 89.539062 127.335938 91.894531 127.335938 C 94.246094 127.335938 96.152344 125.425781 96.152344 123.074219 C 96.152344 120.722656 94.246094 118.8125 91.894531 118.8125 Z M 91.894531 118.8125 " clip-rule="nonzero"/></clipPath><clipPath id="c365dabb72"><path d="M 0.632812 0.8125 L 9.152344 0.8125 L 9.152344 9.335938 L 0.632812 9.335938 Z M 0.632812 0.8125 " clip-rule="nonzero"/></clipPath><clipPath id="50cf9cc14c"><path d="M 4.894531 0.8125 C 2.539062 0.8125 0.632812 2.722656 0.632812 5.074219 C 0.632812 7.425781 2.539062 9.335938 4.894531 9.335938 C 7.246094 9.335938 9.152344 7.425781 9.152344 5.074219 C 9.152344 2.722656 7.246094 0.8125 4.894531 0.8125 Z M 4.894531 0.8125 " clip-rule="nonzero"/></clipPath><clipPath id="67919f08dc"><rect x="0" width="10" y="0" height="10"/></clipPath><clipPath id="ff48613aef"><path d="M 100.96875 123.878906 L 108.066406 123.878906 L 108.066406 130.976562 L 100.96875 130.976562 Z M 100.96875 123.878906 " clip-rule="nonzero"/></clipPath><clipPath id="9591b37687"><path d="M 104.519531 123.878906 C 102.558594 123.878906 100.96875 125.464844 100.96875 127.425781 C 100.96875 129.386719 102.558594 130.976562 104.519531 130.976562 C 106.476562 130.976562 108.066406 129.386719 108.066406 127.425781 C 108.066406 125.464844 106.476562 123.878906 104.519531 123.878906 Z M 104.519531 123.878906 " clip-rule="nonzero"/></clipPath><clipPath id="298ce76d06"><path d="M 0.96875 0.878906 L 8.066406 0.878906 L 8.066406 7.976562 L 0.96875 7.976562 Z M 0.96875 0.878906 " clip-rule="nonzero"/></clipPath><clipPath id="2f4bc07f90"><path d="M 4.519531 0.878906 C 2.558594 0.878906 0.96875 2.464844 0.96875 4.425781 C 0.96875 6.386719 2.558594 7.976562 4.519531 7.976562 C 6.476562 7.976562 8.066406 6.386719 8.066406 4.425781 C 8.066406 2.464844 6.476562 0.878906 4.519531 0.878906 Z M 4.519531 0.878906 " clip-rule="nonzero"/></clipPath><clipPath id="bd678299dc"><rect x="0" width="9" y="0" height="8"/></clipPath><clipPath id="d6bc29d9dc"><path d="M 103.925781 111.003906 L 111.734375 111.003906 L 111.734375 118.8125 L 103.925781 118.8125 Z M 103.925781 111.003906 " clip-rule="nonzero"/></clipPath><clipPath id="08c97d19cb"><path d="M 107.828125 111.003906 C 105.671875 111.003906 103.925781 112.753906 103.925781 114.910156 C 103.925781 117.066406 105.671875 118.8125 107.828125 118.8125 C 109.984375 118.8125 111.734375 117.066406 111.734375 114.910156 C 111.734375 112.753906 109.984375 111.003906 107.828125 111.003906 Z M 107.828125 111.003906 " clip-rule="nonzero"/></clipPath><clipPath id="a74362b43a"><path d="M 0.925781 0.00390625 L 8.734375 0.00390625 L 8.734375 7.8125 L 0.925781 7.8125 Z M 0.925781 0.00390625 " clip-rule="nonzero"/></clipPath><clipPath id="e039081063"><path d="M 4.828125 0.00390625 C 2.671875 0.00390625 0.925781 1.753906 0.925781 3.910156 C 0.925781 6.066406 2.671875 7.8125 4.828125 7.8125 C 6.984375 7.8125 8.734375 6.066406 8.734375 3.910156 C 8.734375 1.753906 6.984375 0.00390625 4.828125 0.00390625 Z M 4.828125 0.00390625 " clip-rule="nonzero"/></clipPath><clipPath id="05158c325c"><rect x="0" width="9" y="0" height="8"/></clipPath><clipPath id="a0a88044b1"><path d="M 114.3125 110.257812 L 120.832031 110.257812 L 120.832031 116.777344 L 114.3125 116.777344 Z M 114.3125 110.257812 " clip-rule="nonzero"/></clipPath><clipPath id="c77a18e22c"><path d="M 117.574219 110.257812 C 115.773438 110.257812 114.3125 111.714844 114.3125 113.515625 C 114.3125 115.316406 115.773438 116.777344 117.574219 116.777344 C 119.375 116.777344 120.832031 115.316406 120.832031 113.515625 C 120.832031 111.714844 119.375 110.257812 117.574219 110.257812 Z M 117.574219 110.257812 " clip-rule="nonzero"/></clipPath><clipPath id="e7b3f38611"><path d="M 0.3125 0.257812 L 6.832031 0.257812 L 6.832031 6.777344 L 0.3125 6.777344 Z M 0.3125 0.257812 " clip-rule="nonzero"/></clipPath><clipPath id="f1b0514613"><path d="M 3.574219 0.257812 C 1.773438 0.257812 0.3125 1.714844 0.3125 3.515625 C 0.3125 5.316406 1.773438 6.777344 3.574219 6.777344 C 5.375 6.777344 6.832031 5.316406 6.832031 3.515625 C 6.832031 1.714844 5.375 0.257812 3.574219 0.257812 Z M 3.574219 0.257812 " clip-rule="nonzero"/></clipPath><clipPath id="c32bc811b9"><rect x="0" width="7" y="0" height="7"/></clipPath><clipPath id="98eda0425c"><path d="M 104.519531 98.128906 L 113.53125 98.128906 L 113.53125 107.144531 L 104.519531 107.144531 Z M 104.519531 98.128906 " clip-rule="nonzero"/></clipPath><clipPath id="5f8ceb7532"><path d="M 109.023438 98.128906 C 106.535156 98.128906 104.519531 100.148438 104.519531 102.636719 C 104.519531 105.125 106.535156 107.144531 109.023438 107.144531 C 111.511719 107.144531 113.53125 105.125 113.53125 102.636719 C 113.53125 100.148438 111.511719 98.128906 109.023438 98.128906 Z M 109.023438 98.128906 " clip-rule="nonzero"/></clipPath><clipPath id="6e817f9abe"><path d="M 0.519531 0.128906 L 9.53125 0.128906 L 9.53125 9.144531 L 0.519531 9.144531 Z M 0.519531 0.128906 " clip-rule="nonzero"/></clipPath><clipPath id="21fb5e9379"><path d="M 5.023438 0.128906 C 2.535156 0.128906 0.519531 2.148438 0.519531 4.636719 C 0.519531 7.125 2.535156 9.144531 5.023438 9.144531 C 7.511719 9.144531 9.53125 7.125 9.53125 4.636719 C 9.53125 2.148438 7.511719 0.128906 5.023438 0.128906 Z M 5.023438 0.128906 " clip-rule="nonzero"/></clipPath><clipPath id="ea1a93e91d"><rect x="0" width="10" y="0" height="10"/></clipPath><clipPath id="ac9465fb86"><path d="M 87.632812 101.988281 L 93.742188 101.988281 L 93.742188 108.097656 L 87.632812 108.097656 Z M 87.632812 101.988281 " clip-rule="nonzero"/></clipPath><clipPath id="8afe683fb3"><path d="M 90.6875 101.988281 C 89 101.988281 87.632812 103.355469 87.632812 105.042969 C 87.632812 106.730469 89 108.097656 90.6875 108.097656 C 92.375 108.097656 93.742188 106.730469 93.742188 105.042969 C 93.742188 103.355469 92.375 101.988281 90.6875 101.988281 Z M 90.6875 101.988281 " clip-rule="nonzero"/></clipPath><clipPath id="dfe09c907f"><path d="M 0.632812 0.988281 L 6.742188 0.988281 L 6.742188 7.097656 L 0.632812 7.097656 Z M 0.632812 0.988281 " clip-rule="nonzero"/></clipPath><clipPath id="d9e1b6f3b4"><path d="M 3.6875 0.988281 C 2 0.988281 0.632812 2.355469 0.632812 4.042969 C 0.632812 5.730469 2 7.097656 3.6875 7.097656 C 5.375 7.097656 6.742188 5.730469 6.742188 4.042969 C 6.742188 2.355469 5.375 0.988281 3.6875 0.988281 Z M 3.6875 0.988281 " clip-rule="nonzero"/></clipPath><clipPath id="0b661e20d7"><rect x="0" width="7" y="0" height="8"/></clipPath><clipPath id="3569b32057"><path d="M 104.519531 88.578125 L 110.328125 88.578125 L 110.328125 94.390625 L 104.519531 94.390625 Z M 104.519531 88.578125 " clip-rule="nonzero"/></clipPath><clipPath id="c75e51adbd"><path d="M 107.421875 88.578125 C 105.820312 88.578125 104.519531 89.878906 104.519531 91.484375 C 104.519531 93.089844 105.820312 94.390625 107.421875 94.390625 C 109.027344 94.390625 110.328125 93.089844 110.328125 91.484375 C 110.328125 89.878906 109.027344 88.578125 107.421875 88.578125 Z M 107.421875 88.578125 " clip-rule="nonzero"/></clipPath><clipPath id="5f7189b4f4"><path d="M 0.519531 0.578125 L 6.328125 0.578125 L 6.328125 6.390625 L 0.519531 6.390625 Z M 0.519531 0.578125 " clip-rule="nonzero"/></clipPath><clipPath id="74981326fc"><path d="M 3.421875 0.578125 C 1.820312 0.578125 0.519531 1.878906 0.519531 3.484375 C 0.519531 5.089844 1.820312 6.390625 3.421875 6.390625 C 5.027344 6.390625 6.328125 5.089844 6.328125 3.484375 C 6.328125 1.878906 5.027344 0.578125 3.421875 0.578125 Z M 3.421875 0.578125 " clip-rule="nonzero"/></clipPath><clipPath id="9c6701c669"><rect x="0" width="7" y="0" height="7"/></clipPath><clipPath id="9435f5170e"><path d="M 50.058594 119.363281 L 60.746094 119.363281 L 60.746094 130.050781 L 50.058594 130.050781 Z M 50.058594 119.363281 " clip-rule="nonzero"/></clipPath><clipPath id="62959ac911"><path d="M 55.402344 119.363281 C 52.453125 119.363281 50.058594 121.757812 50.058594 124.707031 C 50.058594 127.65625 52.453125 130.050781 55.402344 130.050781 C 58.351562 130.050781 60.746094 127.65625 60.746094 124.707031 C 60.746094 121.757812 58.351562 119.363281 55.402344 119.363281 Z M 55.402344 119.363281 " clip-rule="nonzero"/></clipPath><clipPath id="66587d9a6d"><path d="M 0.0585938 0.363281 L 10.746094 0.363281 L 10.746094 11.050781 L 0.0585938 11.050781 Z M 0.0585938 0.363281 " clip-rule="nonzero"/></clipPath><clipPath id="00c2fe2c25"><path d="M 5.402344 0.363281 C 2.453125 0.363281 0.0585938 2.757812 0.0585938 5.707031 C 0.0585938 8.65625 2.453125 11.050781 5.402344 11.050781 C 8.351562 11.050781 10.746094 8.65625 10.746094 5.707031 C 10.746094 2.757812 8.351562 0.363281 5.402344 0.363281 Z M 5.402344 0.363281 " clip-rule="nonzero"/></clipPath><clipPath id="d7a544dcce"><rect x="0" width="11" y="0" height="12"/></clipPath><clipPath id="11585e3091"><path d="M 20.679688 119.363281 L 33.464844 119.363281 L 33.464844 132.152344 L 20.679688 132.152344 Z M 20.679688 119.363281 " clip-rule="nonzero"/></clipPath><clipPath id="1746290923"><path d="M 27.074219 119.363281 C 23.542969 119.363281 20.679688 122.226562 20.679688 125.757812 C 20.679688 129.289062 23.542969 132.152344 27.074219 132.152344 C 30.605469 132.152344 33.464844 129.289062 33.464844 125.757812 C 33.464844 122.226562 30.605469 119.363281 27.074219 119.363281 Z M 27.074219 119.363281 " clip-rule="nonzero"/></clipPath><clipPath id="1491313686"><path d="M 0.679688 0.363281 L 13.464844 0.363281 L 13.464844 13.152344 L 0.679688 13.152344 Z M 0.679688 0.363281 " clip-rule="nonzero"/></clipPath><clipPath id="beb2662cc6"><path d="M 7.074219 0.363281 C 3.542969 0.363281 0.679688 3.226562 0.679688 6.757812 C 0.679688 10.289062 3.542969 13.152344 7.074219 13.152344 C 10.605469 13.152344 13.464844 10.289062 13.464844 6.757812 C 13.464844 3.226562 10.605469 0.363281 7.074219 0.363281 Z M 7.074219 0.363281 " clip-rule="nonzero"/></clipPath><clipPath id="65c99076e9"><rect x="0" width="14" y="0" height="14"/></clipPath><clipPath id="9a46e4a921"><path d="M 34.757812 113.597656 L 46.15625 113.597656 L 46.15625 124.996094 L 34.757812 124.996094 Z M 34.757812 113.597656 " clip-rule="nonzero"/></clipPath><clipPath id="52e309c0b2"><path d="M 40.457031 113.597656 C 37.3125 113.597656 34.757812 116.152344 34.757812 119.296875 C 34.757812 122.445312 37.3125 124.996094 40.457031 124.996094 C 43.605469 124.996094 46.15625 122.445312 46.15625 119.296875 C 46.15625 116.152344 43.605469 113.597656 40.457031 113.597656 Z M 40.457031 113.597656 " clip-rule="nonzero"/></clipPath><clipPath id="97ca36a061"><path d="M 0.757812 0.597656 L 12.15625 0.597656 L 12.15625 11.996094 L 0.757812 11.996094 Z M 0.757812 0.597656 " clip-rule="nonzero"/></clipPath><clipPath id="c34ce27071"><path d="M 6.457031 0.597656 C 3.3125 0.597656 0.757812 3.152344 0.757812 6.296875 C 0.757812 9.445312 3.3125 11.996094 6.457031 11.996094 C 9.605469 11.996094 12.15625 9.445312 12.15625 6.296875 C 12.15625 3.152344 9.605469 0.597656 6.457031 0.597656 Z M 6.457031 0.597656 " clip-rule="nonzero"/></clipPath><clipPath id="7be6492daa"><rect x="0" width="13" y="0" height="12"/></clipPath><clipPath id="3007732b5d"><path d="M 22.066406 102.933594 L 34.046875 102.933594 L 34.046875 114.910156 L 22.066406 114.910156 Z M 22.066406 102.933594 " clip-rule="nonzero"/></clipPath><clipPath id="c1fec83477"><path d="M 28.054688 102.933594 C 24.75 102.933594 22.066406 105.613281 22.066406 108.921875 C 22.066406 112.226562 24.75 114.910156 28.054688 114.910156 C 31.363281 114.910156 34.046875 112.226562 34.046875 108.921875 C 34.046875 105.613281 31.363281 102.933594 28.054688 102.933594 Z M 28.054688 102.933594 " clip-rule="nonzero"/></clipPath><clipPath id="656d46ad1f"><path d="M 0.0664062 0.933594 L 12.046875 0.933594 L 12.046875 12.910156 L 0.0664062 12.910156 Z M 0.0664062 0.933594 " clip-rule="nonzero"/></clipPath><clipPath id="d615984d1c"><path d="M 6.054688 0.933594 C 2.75 0.933594 0.0664062 3.613281 0.0664062 6.921875 C 0.0664062 10.226562 2.75 12.910156 6.054688 12.910156 C 9.363281 12.910156 12.046875 10.226562 12.046875 6.921875 C 12.046875 3.613281 9.363281 0.933594 6.054688 0.933594 Z M 6.054688 0.933594 " clip-rule="nonzero"/></clipPath><clipPath id="dd89b83260"><rect x="0" width="13" y="0" height="13"/></clipPath><clipPath id="5461d2a0db"><path d="M 6.011719 97.195312 L 19.824219 97.195312 L 19.824219 111.003906 L 6.011719 111.003906 Z M 6.011719 97.195312 " clip-rule="nonzero"/></clipPath><clipPath id="7d27aa18be"><path d="M 12.917969 97.195312 C 9.105469 97.195312 6.011719 100.285156 6.011719 104.101562 C 6.011719 107.914062 9.105469 111.003906 12.917969 111.003906 C 16.730469 111.003906 19.824219 107.914062 19.824219 104.101562 C 19.824219 100.285156 16.730469 97.195312 12.917969 97.195312 Z M 12.917969 97.195312 " clip-rule="nonzero"/></clipPath><clipPath id="5f45aefe9d"><path d="M 0.0117188 0.195312 L 13.824219 0.195312 L 13.824219 14.003906 L 0.0117188 14.003906 Z M 0.0117188 0.195312 " clip-rule="nonzero"/></clipPath><clipPath id="d10e45d60b"><path d="M 6.917969 0.195312 C 3.105469 0.195312 0.0117188 3.285156 0.0117188 7.101562 C 0.0117188 10.914062 3.105469 14.003906 6.917969 14.003906 C 10.730469 14.003906 13.824219 10.914062 13.824219 7.101562 C 13.824219 3.285156 10.730469 0.195312 6.917969 0.195312 Z M 6.917969 0.195312 " clip-rule="nonzero"/></clipPath><clipPath id="3c489bc9f8"><rect x="0" width="14" y="0" height="15"/></clipPath><clipPath id="8d2868d365"><path d="M 42.667969 100.703125 L 54.066406 100.703125 L 54.066406 112.101562 L 42.667969 112.101562 Z M 42.667969 100.703125 " clip-rule="nonzero"/></clipPath><clipPath id="59073411cb"><path d="M 48.367188 100.703125 C 45.21875 100.703125 42.667969 103.257812 42.667969 106.402344 C 42.667969 109.550781 45.21875 112.101562 48.367188 112.101562 C 51.515625 112.101562 54.066406 109.550781 54.066406 106.402344 C 54.066406 103.257812 51.515625 100.703125 48.367188 100.703125 Z M 48.367188 100.703125 " clip-rule="nonzero"/></clipPath><clipPath id="20f20b9f42"><path d="M 0.667969 0.703125 L 12.066406 0.703125 L 12.066406 12.101562 L 0.667969 12.101562 Z M 0.667969 0.703125 " clip-rule="nonzero"/></clipPath><clipPath id="e76f400300"><path d="M 6.367188 0.703125 C 3.21875 0.703125 0.667969 3.257812 0.667969 6.402344 C 0.667969 9.550781 3.21875 12.101562 6.367188 12.101562 C 9.515625 12.101562 12.066406 9.550781 12.066406 6.402344 C 12.066406 3.257812 9.515625 0.703125 6.367188 0.703125 Z M 6.367188 0.703125 " clip-rule="nonzero"/></clipPath><clipPath id="9c91cf53f9"><rect x="0" width="13" y="0" height="13"/></clipPath><clipPath id="ed05e9f234"><path d="M 58.269531 106.402344 L 71.363281 106.402344 L 71.363281 119.496094 L 58.269531 119.496094 Z M 58.269531 106.402344 " clip-rule="nonzero"/></clipPath><clipPath id="3bff24b696"><path d="M 64.816406 106.402344 C 61.203125 106.402344 58.269531 109.335938 58.269531 112.949219 C 58.269531 116.566406 61.203125 119.496094 64.816406 119.496094 C 68.433594 119.496094 71.363281 116.566406 71.363281 112.949219 C 71.363281 109.335938 68.433594 106.402344 64.816406 106.402344 Z M 64.816406 106.402344 " clip-rule="nonzero"/></clipPath><clipPath id="b79be083c9"><path d="M 0.269531 0.402344 L 13.363281 0.402344 L 13.363281 13.496094 L 0.269531 13.496094 Z M 0.269531 0.402344 " clip-rule="nonzero"/></clipPath><clipPath id="87f2bb1ac3"><path d="M 6.816406 0.402344 C 3.203125 0.402344 0.269531 3.335938 0.269531 6.949219 C 0.269531 10.566406 3.203125 13.496094 6.816406 13.496094 C 10.433594 13.496094 13.363281 10.566406 13.363281 6.949219 C 13.363281 3.335938 10.433594 0.402344 6.816406 0.402344 Z M 6.816406 0.402344 " clip-rule="nonzero"/></clipPath><clipPath id="b654bf44b6"><rect x="0" width="14" y="0" height="14"/></clipPath><clipPath id="a60e68ba86"><path d="M 31.265625 89.839844 L 45.304688 89.839844 L 45.304688 103.875 L 31.265625 103.875 Z M 31.265625 89.839844 " clip-rule="nonzero"/></clipPath><clipPath id="8ce27cbb68"><path d="M 38.285156 89.839844 C 34.410156 89.839844 31.265625 92.980469 31.265625 96.855469 C 31.265625 100.730469 34.410156 103.875 38.285156 103.875 C 42.160156 103.875 45.304688 100.730469 45.304688 96.855469 C 45.304688 92.980469 42.160156 89.839844 38.285156 89.839844 Z M 38.285156 89.839844 " clip-rule="nonzero"/></clipPath><clipPath id="e843d02f2f"><path d="M 0.265625 0.839844 L 14.304688 0.839844 L 14.304688 14.875 L 0.265625 14.875 Z M 0.265625 0.839844 " clip-rule="nonzero"/></clipPath><clipPath id="0b9173e6ed"><path d="M 7.285156 0.839844 C 3.410156 0.839844 0.265625 3.980469 0.265625 7.855469 C 0.265625 11.730469 3.410156 14.875 7.285156 14.875 C 11.160156 14.875 14.304688 11.730469 14.304688 7.855469 C 14.304688 3.980469 11.160156 0.839844 7.285156 0.839844 Z M 7.285156 0.839844 " clip-rule="nonzero"/></clipPath><clipPath id="b634cf9c0d"><rect x="0" width="15" y="0" height="15"/></clipPath><clipPath id="a22b7111f0"><path d="M 16.65625 81.242188 L 28.871094 81.242188 L 28.871094 93.453125 L 16.65625 93.453125 Z M 16.65625 81.242188 " clip-rule="nonzero"/></clipPath><clipPath id="91e324360b"><path d="M 22.765625 81.242188 C 19.390625 81.242188 16.65625 83.976562 16.65625 87.347656 C 16.65625 90.722656 19.390625 93.453125 22.765625 93.453125 C 26.136719 93.453125 28.871094 90.722656 28.871094 87.347656 C 28.871094 83.976562 26.136719 81.242188 22.765625 81.242188 Z M 22.765625 81.242188 " clip-rule="nonzero"/></clipPath><clipPath id="61943305ea"><path d="M 0.65625 0.242188 L 12.871094 0.242188 L 12.871094 12.453125 L 0.65625 12.453125 Z M 0.65625 0.242188 " clip-rule="nonzero"/></clipPath><clipPath id="1feb4056ed"><path d="M 6.765625 0.242188 C 3.390625 0.242188 0.65625 2.976562 0.65625 6.347656 C 0.65625 9.722656 3.390625 12.453125 6.765625 12.453125 C 10.136719 12.453125 12.871094 9.722656 12.871094 6.347656 C 12.871094 2.976562 10.136719 0.242188 6.765625 0.242188 Z M 6.765625 0.242188 " clip-rule="nonzero"/></clipPath><clipPath id="fd2ac0a3fa"><rect x="0" width="13" y="0" height="13"/></clipPath><clipPath id="1e38a87009"><path d="M 69.210938 93.453125 L 80.609375 93.453125 L 80.609375 104.855469 L 69.210938 104.855469 Z M 69.210938 93.453125 " clip-rule="nonzero"/></clipPath><clipPath id="5da7f758c4"><path d="M 74.910156 93.453125 C 71.761719 93.453125 69.210938 96.007812 69.210938 99.152344 C 69.210938 102.300781 71.761719 104.855469 74.910156 104.855469 C 78.058594 104.855469 80.609375 102.300781 80.609375 99.152344 C 80.609375 96.007812 78.058594 93.453125 74.910156 93.453125 Z M 74.910156 93.453125 " clip-rule="nonzero"/></clipPath><clipPath id="4f59f13e1e"><path d="M 0.210938 0.453125 L 11.609375 0.453125 L 11.609375 11.855469 L 0.210938 11.855469 Z M 0.210938 0.453125 " clip-rule="nonzero"/></clipPath><clipPath id="4c81166a29"><path d="M 5.910156 0.453125 C 2.761719 0.453125 0.210938 3.007812 0.210938 6.152344 C 0.210938 9.300781 2.761719 11.855469 5.910156 11.855469 C 9.058594 11.855469 11.609375 9.300781 11.609375 6.152344 C 11.609375 3.007812 9.058594 0.453125 5.910156 0.453125 Z M 5.910156 0.453125 " clip-rule="nonzero"/></clipPath><clipPath id="4ec390824f"><rect x="0" width="12" y="0" height="12"/></clipPath><clipPath id="587b122802"><path d="M 50.410156 86.089844 L 65.023438 86.089844 L 65.023438 100.703125 L 50.410156 100.703125 Z M 50.410156 86.089844 " clip-rule="nonzero"/></clipPath><clipPath id="2126254292"><path d="M 57.714844 86.089844 C 53.679688 86.089844 50.410156 89.359375 50.410156 93.398438 C 50.410156 97.433594 53.679688 100.703125 57.714844 100.703125 C 61.75 100.703125 65.023438 97.433594 65.023438 93.398438 C 65.023438 89.359375 61.75 86.089844 57.714844 86.089844 Z M 57.714844 86.089844 " clip-rule="nonzero"/></clipPath><clipPath id="97c94b8e50"><path d="M 0.410156 0.0898438 L 15.023438 0.0898438 L 15.023438 14.703125 L 0.410156 14.703125 Z M 0.410156 0.0898438 " clip-rule="nonzero"/></clipPath><clipPath id="4399f24b82"><path d="M 7.714844 0.0898438 C 3.679688 0.0898438 0.410156 3.359375 0.410156 7.398438 C 0.410156 11.433594 3.679688 14.703125 7.714844 14.703125 C 11.75 14.703125 15.023438 11.433594 15.023438 7.398438 C 15.023438 3.359375 11.75 0.0898438 7.714844 0.0898438 Z M 7.714844 0.0898438 " clip-rule="nonzero"/></clipPath><clipPath id="261fbf2ef6"><rect x="0" width="16" y="0" height="15"/></clipPath><clipPath id="6daf78c1a4"><path d="M 78.328125 80.640625 L 92.945312 80.640625 L 92.945312 95.253906 L 78.328125 95.253906 Z M 78.328125 80.640625 " clip-rule="nonzero"/></clipPath><clipPath id="6c09aea74d"><path d="M 85.636719 80.640625 C 81.601562 80.640625 78.328125 83.910156 78.328125 87.949219 C 78.328125 91.984375 81.601562 95.253906 85.636719 95.253906 C 89.671875 95.253906 92.945312 91.984375 92.945312 87.949219 C 92.945312 83.910156 89.671875 80.640625 85.636719 80.640625 Z M 85.636719 80.640625 " clip-rule="nonzero"/></clipPath><clipPath id="d3167b0644"><path d="M 0.328125 0.640625 L 14.945312 0.640625 L 14.945312 15.253906 L 0.328125 15.253906 Z M 0.328125 0.640625 " clip-rule="nonzero"/></clipPath><clipPath id="6b5df5a860"><path d="M 7.636719 0.640625 C 3.601562 0.640625 0.328125 3.910156 0.328125 7.949219 C 0.328125 11.984375 3.601562 15.253906 7.636719 15.253906 C 11.671875 15.253906 14.945312 11.984375 14.945312 7.949219 C 14.945312 3.910156 11.671875 0.640625 7.636719 0.640625 Z M 7.636719 0.640625 " clip-rule="nonzero"/></clipPath><clipPath id="9d9408ab9c"><rect x="0" width="15" y="0" height="16"/></clipPath><clipPath id="df7ca8f529"><path d="M 61.519531 77.179688 L 72.917969 77.179688 L 72.917969 88.578125 L 61.519531 88.578125 Z M 61.519531 77.179688 " clip-rule="nonzero"/></clipPath><clipPath id="73c136bcea"><path d="M 67.21875 77.179688 C 64.074219 77.179688 61.519531 79.730469 61.519531 82.878906 C 61.519531 86.027344 64.074219 88.578125 67.21875 88.578125 C 70.367188 88.578125 72.917969 86.027344 72.917969 82.878906 C 72.917969 79.730469 70.367188 77.179688 67.21875 77.179688 Z M 67.21875 77.179688 " clip-rule="nonzero"/></clipPath><clipPath id="424f728345"><path d="M 0.519531 0.179688 L 11.917969 0.179688 L 11.917969 11.578125 L 0.519531 11.578125 Z M 0.519531 0.179688 " clip-rule="nonzero"/></clipPath><clipPath id="1b1bd96b55"><path d="M 6.21875 0.179688 C 3.074219 0.179688 0.519531 2.730469 0.519531 5.878906 C 0.519531 9.027344 3.074219 11.578125 6.21875 11.578125 C 9.367188 11.578125 11.917969 9.027344 11.917969 5.878906 C 11.917969 2.730469 9.367188 0.179688 6.21875 0.179688 Z M 6.21875 0.179688 " clip-rule="nonzero"/></clipPath><clipPath id="378b2ee657"><rect x="0" width="12" y="0" height="12"/></clipPath><clipPath id="b103d6b23e"><path d="M 72.628906 67.746094 L 83.949219 67.746094 L 83.949219 79.066406 L 72.628906 79.066406 Z M 72.628906 67.746094 " clip-rule="nonzero"/></clipPath><clipPath id="a6f3913e7f"><path d="M 78.289062 67.746094 C 75.164062 67.746094 72.628906 70.28125 72.628906 73.40625 C 72.628906 76.53125 75.164062 79.066406 78.289062 79.066406 C 81.414062 79.066406 83.949219 76.53125 83.949219 73.40625 C 83.949219 70.28125 81.414062 67.746094 78.289062 67.746094 Z M 78.289062 67.746094 " clip-rule="nonzero"/></clipPath><clipPath id="346dd48187"><path d="M 0.628906 0.746094 L 11.949219 0.746094 L 11.949219 12.066406 L 0.628906 12.066406 Z M 0.628906 0.746094 " clip-rule="nonzero"/></clipPath><clipPath id="dff5b9778f"><path d="M 6.289062 0.746094 C 3.164062 0.746094 0.628906 3.28125 0.628906 6.40625 C 0.628906 9.53125 3.164062 12.066406 6.289062 12.066406 C 9.414062 12.066406 11.949219 9.53125 11.949219 6.40625 C 11.949219 3.28125 9.414062 0.746094 6.289062 0.746094 Z M 6.289062 0.746094 " clip-rule="nonzero"/></clipPath><clipPath id="13d1de3d97"><rect x="0" width="12" y="0" height="13"/></clipPath><clipPath id="e6ca610766"><path d="M 88.082031 69.921875 L 99.402344 69.921875 L 99.402344 81.242188 L 88.082031 81.242188 Z M 88.082031 69.921875 " clip-rule="nonzero"/></clipPath><clipPath id="68e79d15c0"><path d="M 93.742188 69.921875 C 90.617188 69.921875 88.082031 72.457031 88.082031 75.582031 C 88.082031 78.707031 90.617188 81.242188 93.742188 81.242188 C 96.871094 81.242188 99.402344 78.707031 99.402344 75.582031 C 99.402344 72.457031 96.871094 69.921875 93.742188 69.921875 Z M 93.742188 69.921875 " clip-rule="nonzero"/></clipPath><clipPath id="dcac86a362"><path d="M 0.0820312 0.921875 L 11.402344 0.921875 L 11.402344 12.242188 L 0.0820312 12.242188 Z M 0.0820312 0.921875 " clip-rule="nonzero"/></clipPath><clipPath id="4c81745c43"><path d="M 5.742188 0.921875 C 2.617188 0.921875 0.0820312 3.457031 0.0820312 6.582031 C 0.0820312 9.707031 2.617188 12.242188 5.742188 12.242188 C 8.871094 12.242188 11.402344 9.707031 11.402344 6.582031 C 11.402344 3.457031 8.871094 0.921875 5.742188 0.921875 Z M 5.742188 0.921875 " clip-rule="nonzero"/></clipPath><clipPath id="65655a9170"><rect x="0" width="12" y="0" height="13"/></clipPath><clipPath id="3596051732"><path d="M 41.105469 79.066406 L 49.394531 79.066406 L 49.394531 87.351562 L 41.105469 87.351562 Z M 41.105469 79.066406 " clip-rule="nonzero"/></clipPath><clipPath id="c77548da92"><path d="M 45.25 79.066406 C 42.960938 79.066406 41.105469 80.921875 41.105469 83.207031 C 41.105469 85.496094 42.960938 87.351562 45.25 87.351562 C 47.539062 87.351562 49.394531 85.496094 49.394531 83.207031 C 49.394531 80.921875 47.539062 79.066406 45.25 79.066406 Z M 45.25 79.066406 " clip-rule="nonzero"/></clipPath><clipPath id="d46f21b68e"><path d="M 0.105469 0.0664062 L 8.394531 0.0664062 L 8.394531 8.351562 L 0.105469 8.351562 Z M 0.105469 0.0664062 " clip-rule="nonzero"/></clipPath><clipPath id="5ee8acf01c"><path d="M 4.25 0.0664062 C 1.960938 0.0664062 0.105469 1.921875 0.105469 4.207031 C 0.105469 6.496094 1.960938 8.351562 4.25 8.351562 C 6.539062 8.351562 8.394531 6.496094 8.394531 4.207031 C 8.394531 1.921875 6.539062 0.0664062 4.25 0.0664062 Z M 4.25 0.0664062 " clip-rule="nonzero"/></clipPath><clipPath id="0d88bbd8cf"><rect x="0" width="9" y="0" height="9"/></clipPath><clipPath id="46d15a9f23"><path d="M 48.40625 69.921875 L 59.011719 69.921875 L 59.011719 80.527344 L 48.40625 80.527344 Z M 48.40625 69.921875 " clip-rule="nonzero"/></clipPath><clipPath id="fc5f4842b6"><path d="M 53.710938 69.921875 C 50.78125 69.921875 48.40625 72.296875 48.40625 75.222656 C 48.40625 78.152344 50.78125 80.527344 53.710938 80.527344 C 56.636719 80.527344 59.011719 78.152344 59.011719 75.222656 C 59.011719 72.296875 56.636719 69.921875 53.710938 69.921875 Z M 53.710938 69.921875 " clip-rule="nonzero"/></clipPath><clipPath id="3822492447"><path d="M 0.40625 0.921875 L 11.011719 0.921875 L 11.011719 11.527344 L 0.40625 11.527344 Z M 0.40625 0.921875 " clip-rule="nonzero"/></clipPath><clipPath id="cc2948448f"><path d="M 5.710938 0.921875 C 2.78125 0.921875 0.40625 3.296875 0.40625 6.222656 C 0.40625 9.152344 2.78125 11.527344 5.710938 11.527344 C 8.636719 11.527344 11.011719 9.152344 11.011719 6.222656 C 11.011719 3.296875 8.636719 0.921875 5.710938 0.921875 Z M 5.710938 0.921875 " clip-rule="nonzero"/></clipPath><clipPath id="fd6d890c36"><rect x="0" width="12" y="0" height="12"/></clipPath><clipPath id="0b08c42352"><path d="M 93.996094 58.890625 L 100.96875 58.890625 L 100.96875 65.863281 L 93.996094 65.863281 Z M 93.996094 58.890625 " clip-rule="nonzero"/></clipPath><clipPath id="2a0fec52ea"><path d="M 97.480469 58.890625 C 95.558594 58.890625 93.996094 60.449219 93.996094 62.375 C 93.996094 64.300781 95.558594 65.863281 97.480469 65.863281 C 99.40625 65.863281 100.96875 64.300781 100.96875 62.375 C 100.96875 60.449219 99.40625 58.890625 97.480469 58.890625 Z M 97.480469 58.890625 " clip-rule="nonzero"/></clipPath><clipPath id="e3b43b69ff"><path d="M 0.996094 0.890625 L 7.96875 0.890625 L 7.96875 7.863281 L 0.996094 7.863281 Z M 0.996094 0.890625 " clip-rule="nonzero"/></clipPath><clipPath id="59717cd0aa"><path d="M 4.480469 0.890625 C 2.558594 0.890625 0.996094 2.449219 0.996094 4.375 C 0.996094 6.300781 2.558594 7.863281 4.480469 7.863281 C 6.40625 7.863281 7.96875 6.300781 7.96875 4.375 C 7.96875 2.449219 6.40625 0.890625 4.480469 0.890625 Z M 4.480469 0.890625 " clip-rule="nonzero"/></clipPath><clipPath id="efef090182"><rect x="0" width="8" y="0" height="8"/></clipPath><clipPath id="ed66518d2c"><path d="M 28.386719 69.167969 L 40.457031 69.167969 L 40.457031 81.242188 L 28.386719 81.242188 Z M 28.386719 69.167969 " clip-rule="nonzero"/></clipPath><clipPath id="c1604fc6ee"><path d="M 34.421875 69.167969 C 31.085938 69.167969 28.386719 71.871094 28.386719 75.203125 C 28.386719 78.539062 31.085938 81.242188 34.421875 81.242188 C 37.753906 81.242188 40.457031 78.539062 40.457031 75.203125 C 40.457031 71.871094 37.753906 69.167969 34.421875 69.167969 Z M 34.421875 69.167969 " clip-rule="nonzero"/></clipPath><clipPath id="1535c18077"><path d="M 0.386719 0.167969 L 12.457031 0.167969 L 12.457031 12.242188 L 0.386719 12.242188 Z M 0.386719 0.167969 " clip-rule="nonzero"/></clipPath><clipPath id="6731970dec"><path d="M 6.421875 0.167969 C 3.085938 0.167969 0.386719 2.871094 0.386719 6.203125 C 0.386719 9.539062 3.085938 12.242188 6.421875 12.242188 C 9.753906 12.242188 12.457031 9.539062 12.457031 6.203125 C 12.457031 2.871094 9.753906 0.167969 6.421875 0.167969 Z M 6.421875 0.167969 " clip-rule="nonzero"/></clipPath><clipPath id="384cb397a9"><rect x="0" width="13" y="0" height="13"/></clipPath><clipPath id="b2b07aaba1"><path d="M 41.105469 55.074219 L 53.710938 55.074219 L 53.710938 67.675781 L 41.105469 67.675781 Z M 41.105469 55.074219 " clip-rule="nonzero"/></clipPath><clipPath id="d851bcd13a"><path d="M 47.40625 55.074219 C 43.929688 55.074219 41.105469 57.894531 41.105469 61.375 C 41.105469 64.855469 43.929688 67.675781 47.40625 67.675781 C 50.886719 67.675781 53.710938 64.855469 53.710938 61.375 C 53.710938 57.894531 50.886719 55.074219 47.40625 55.074219 Z M 47.40625 55.074219 " clip-rule="nonzero"/></clipPath><clipPath id="0d7e5142ab"><path d="M 0.105469 0.0742188 L 12.710938 0.0742188 L 12.710938 12.675781 L 0.105469 12.675781 Z M 0.105469 0.0742188 " clip-rule="nonzero"/></clipPath><clipPath id="64f2b720a3"><path d="M 6.40625 0.0742188 C 2.929688 0.0742188 0.105469 2.894531 0.105469 6.375 C 0.105469 9.855469 2.929688 12.675781 6.40625 12.675781 C 9.886719 12.675781 12.710938 9.855469 12.710938 6.375 C 12.710938 2.894531 9.886719 0.0742188 6.40625 0.0742188 Z M 6.40625 0.0742188 " clip-rule="nonzero"/></clipPath><clipPath id="cc7b490c65"><rect x="0" width="13" y="0" height="13"/></clipPath><clipPath id="65525df0e7"><path d="M 52.054688 43.339844 L 62.683594 43.339844 L 62.683594 53.96875 L 52.054688 53.96875 Z M 52.054688 43.339844 " clip-rule="nonzero"/></clipPath><clipPath id="301741fae2"><path d="M 57.371094 43.339844 C 54.433594 43.339844 52.054688 45.71875 52.054688 48.652344 C 52.054688 51.589844 54.433594 53.96875 57.371094 53.96875 C 60.304688 53.96875 62.683594 51.589844 62.683594 48.652344 C 62.683594 45.71875 60.304688 43.339844 57.371094 43.339844 Z M 57.371094 43.339844 " clip-rule="nonzero"/></clipPath><clipPath id="5809bdd013"><path d="M 0.0546875 0.339844 L 10.683594 0.339844 L 10.683594 10.96875 L 0.0546875 10.96875 Z M 0.0546875 0.339844 " clip-rule="nonzero"/></clipPath><clipPath id="6a51b5f8a2"><path d="M 5.371094 0.339844 C 2.433594 0.339844 0.0546875 2.71875 0.0546875 5.652344 C 0.0546875 8.589844 2.433594 10.96875 5.371094 10.96875 C 8.304688 10.96875 10.683594 8.589844 10.683594 5.652344 C 10.683594 2.71875 8.304688 0.339844 5.371094 0.339844 Z M 5.371094 0.339844 " clip-rule="nonzero"/></clipPath><clipPath id="20e988be38"><rect x="0" width="11" y="0" height="11"/></clipPath><clipPath id="a1daf53613"><path d="M 56.96875 55.832031 L 72.332031 55.832031 L 72.332031 71.195312 L 56.96875 71.195312 Z M 56.96875 55.832031 " clip-rule="nonzero"/></clipPath><clipPath id="ea1ba65084"><path d="M 64.648438 55.832031 C 60.40625 55.832031 56.96875 59.269531 56.96875 63.515625 C 56.96875 67.757812 60.40625 71.195312 64.648438 71.195312 C 68.890625 71.195312 72.332031 67.757812 72.332031 63.515625 C 72.332031 59.269531 68.890625 55.832031 64.648438 55.832031 Z M 64.648438 55.832031 " clip-rule="nonzero"/></clipPath><clipPath id="ab6542cd25"><path d="M 0.96875 0.832031 L 16.332031 0.832031 L 16.332031 16.195312 L 0.96875 16.195312 Z M 0.96875 0.832031 " clip-rule="nonzero"/></clipPath><clipPath id="7b4924d549"><path d="M 8.648438 0.832031 C 4.40625 0.832031 0.96875 4.269531 0.96875 8.515625 C 0.96875 12.757812 4.40625 16.195312 8.648438 16.195312 C 12.890625 16.195312 16.332031 12.757812 16.332031 8.515625 C 16.332031 4.269531 12.890625 0.832031 8.648438 0.832031 Z M 8.648438 0.832031 " clip-rule="nonzero"/></clipPath><clipPath id="572fb7afaa"><rect x="0" width="17" y="0" height="17"/></clipPath><clipPath id="005716e01a"><path d="M 76.5625 53.46875 L 88.382812 53.46875 L 88.382812 65.289062 L 76.5625 65.289062 Z M 76.5625 53.46875 " clip-rule="nonzero"/></clipPath><clipPath id="1dcd19b6de"><path d="M 82.472656 53.46875 C 79.207031 53.46875 76.5625 56.113281 76.5625 59.378906 C 76.5625 62.640625 79.207031 65.289062 82.472656 65.289062 C 85.734375 65.289062 88.382812 62.640625 88.382812 59.378906 C 88.382812 56.113281 85.734375 53.46875 82.472656 53.46875 Z M 82.472656 53.46875 " clip-rule="nonzero"/></clipPath><clipPath id="c981bbdbf1"><path d="M 0.5625 0.46875 L 12.382812 0.46875 L 12.382812 12.289062 L 0.5625 12.289062 Z M 0.5625 0.46875 " clip-rule="nonzero"/></clipPath><clipPath id="da295b2378"><path d="M 6.472656 0.46875 C 3.207031 0.46875 0.5625 3.113281 0.5625 6.378906 C 0.5625 9.640625 3.207031 12.289062 6.472656 12.289062 C 9.734375 12.289062 12.382812 9.640625 12.382812 6.378906 C 12.382812 3.113281 9.734375 0.46875 6.472656 0.46875 Z M 6.472656 0.46875 " clip-rule="nonzero"/></clipPath><clipPath id="607ec23ce8"><rect x="0" width="13" y="0" height="13"/></clipPath><clipPath id="bad1f00297"><path d="M 59.761719 31.507812 L 66.734375 31.507812 L 66.734375 38.484375 L 59.761719 38.484375 Z M 59.761719 31.507812 " clip-rule="nonzero"/></clipPath><clipPath id="8d998529ee"><path d="M 63.246094 31.507812 C 61.320312 31.507812 59.761719 33.070312 59.761719 34.996094 C 59.761719 36.921875 61.320312 38.484375 63.246094 38.484375 C 65.171875 38.484375 66.734375 36.921875 66.734375 34.996094 C 66.734375 33.070312 65.171875 31.507812 63.246094 31.507812 Z M 63.246094 31.507812 " clip-rule="nonzero"/></clipPath><clipPath id="45e7a3aa5f"><path d="M 0.761719 0.507812 L 7.734375 0.507812 L 7.734375 7.484375 L 0.761719 7.484375 Z M 0.761719 0.507812 " clip-rule="nonzero"/></clipPath><clipPath id="26653ea896"><path d="M 4.246094 0.507812 C 2.320312 0.507812 0.761719 2.070312 0.761719 3.996094 C 0.761719 5.921875 2.320312 7.484375 4.246094 7.484375 C 6.171875 7.484375 7.734375 5.921875 7.734375 3.996094 C 7.734375 2.070312 6.171875 0.507812 4.246094 0.507812 Z M 4.246094 0.507812 " clip-rule="nonzero"/></clipPath><clipPath id="637e3d62bb"><rect x="0" width="8" y="0" height="8"/></clipPath><clipPath id="5637beb7f3"><path d="M 82.222656 41.679688 L 91.765625 41.679688 L 91.765625 51.226562 L 82.222656 51.226562 Z M 82.222656 41.679688 " clip-rule="nonzero"/></clipPath><clipPath id="348aaa6698"><path d="M 86.996094 41.679688 C 84.359375 41.679688 82.222656 43.816406 82.222656 46.453125 C 82.222656 49.089844 84.359375 51.226562 86.996094 51.226562 C 89.628906 51.226562 91.765625 49.089844 91.765625 46.453125 C 91.765625 43.816406 89.628906 41.679688 86.996094 41.679688 Z M 86.996094 41.679688 " clip-rule="nonzero"/></clipPath><clipPath id="5f47e7dafa"><path d="M 0.222656 0.679688 L 9.765625 0.679688 L 9.765625 10.226562 L 0.222656 10.226562 Z M 0.222656 0.679688 " clip-rule="nonzero"/></clipPath><clipPath id="89f7e912e8"><path d="M 4.996094 0.679688 C 2.359375 0.679688 0.222656 2.816406 0.222656 5.453125 C 0.222656 8.089844 2.359375 10.226562 4.996094 10.226562 C 7.628906 10.226562 9.765625 8.089844 9.765625 5.453125 C 9.765625 2.816406 7.628906 0.679688 4.996094 0.679688 Z M 4.996094 0.679688 " clip-rule="nonzero"/></clipPath><clipPath id="f27b7c7c9e"><rect x="0" width="10" y="0" height="11"/></clipPath><clipPath id="edff6666b6"><path d="M 66.59375 41.679688 L 76.136719 41.679688 L 76.136719 51.226562 L 66.59375 51.226562 Z M 66.59375 41.679688 " clip-rule="nonzero"/></clipPath><clipPath id="b71b70efe8"><path d="M 71.363281 41.679688 C 68.730469 41.679688 66.59375 43.816406 66.59375 46.453125 C 66.59375 49.089844 68.730469 51.226562 71.363281 51.226562 C 74 51.226562 76.136719 49.089844 76.136719 46.453125 C 76.136719 43.816406 74 41.679688 71.363281 41.679688 Z M 71.363281 41.679688 " clip-rule="nonzero"/></clipPath><clipPath id="940e298c9e"><path d="M 0.59375 0.679688 L 10.136719 0.679688 L 10.136719 10.226562 L 0.59375 10.226562 Z M 0.59375 0.679688 " clip-rule="nonzero"/></clipPath><clipPath id="b14d190eab"><path d="M 5.363281 0.679688 C 2.730469 0.679688 0.59375 2.816406 0.59375 5.453125 C 0.59375 8.089844 2.730469 10.226562 5.363281 10.226562 C 8 10.226562 10.136719 8.089844 10.136719 5.453125 C 10.136719 2.816406 8 0.679688 5.363281 0.679688 Z M 5.363281 0.679688 " clip-rule="nonzero"/></clipPath><clipPath id="b4df48b726"><rect x="0" width="11" y="0" height="11"/></clipPath><clipPath id="395906b2bb"><path d="M 77.402344 29.890625 L 87.246094 29.890625 L 87.246094 39.734375 L 77.402344 39.734375 Z M 77.402344 29.890625 " clip-rule="nonzero"/></clipPath><clipPath id="d0b642f186"><path d="M 82.324219 29.890625 C 79.605469 29.890625 77.402344 32.09375 77.402344 34.8125 C 77.402344 37.53125 79.605469 39.734375 82.324219 39.734375 C 85.039062 39.734375 87.246094 37.53125 87.246094 34.8125 C 87.246094 32.09375 85.039062 29.890625 82.324219 29.890625 Z M 82.324219 29.890625 " clip-rule="nonzero"/></clipPath><clipPath id="1615896053"><path d="M 0.402344 0.890625 L 10.246094 0.890625 L 10.246094 10.734375 L 0.402344 10.734375 Z M 0.402344 0.890625 " clip-rule="nonzero"/></clipPath><clipPath id="8575ef725f"><path d="M 5.324219 0.890625 C 2.605469 0.890625 0.402344 3.09375 0.402344 5.8125 C 0.402344 8.53125 2.605469 10.734375 5.324219 10.734375 C 8.039062 10.734375 10.246094 8.53125 10.246094 5.8125 C 10.246094 3.09375 8.039062 0.890625 5.324219 0.890625 Z M 5.324219 0.890625 " clip-rule="nonzero"/></clipPath><clipPath id="ff443bebb1"><rect x="0" width="11" y="0" height="11"/></clipPath><clipPath id="742b04b73d"><path d="M 65.023438 21.542969 L 71.363281 21.542969 L 71.363281 27.886719 L 65.023438 27.886719 Z M 65.023438 21.542969 " clip-rule="nonzero"/></clipPath><clipPath id="689a6afa5e"><path d="M 68.195312 21.542969 C 66.441406 21.542969 65.023438 22.964844 65.023438 24.714844 C 65.023438 26.464844 66.441406 27.886719 68.195312 27.886719 C 69.945312 27.886719 71.363281 26.464844 71.363281 24.714844 C 71.363281 22.964844 69.945312 21.542969 68.195312 21.542969 Z M 68.195312 21.542969 " clip-rule="nonzero"/></clipPath><clipPath id="29fa2ef072"><path d="M 0.0234375 0.542969 L 6.363281 0.542969 L 6.363281 6.886719 L 0.0234375 6.886719 Z M 0.0234375 0.542969 " clip-rule="nonzero"/></clipPath><clipPath id="8d52aa9284"><path d="M 3.195312 0.542969 C 1.441406 0.542969 0.0234375 1.964844 0.0234375 3.714844 C 0.0234375 5.464844 1.441406 6.886719 3.195312 6.886719 C 4.945312 6.886719 6.363281 5.464844 6.363281 3.714844 C 6.363281 1.964844 4.945312 0.542969 3.195312 0.542969 Z M 3.195312 0.542969 " clip-rule="nonzero"/></clipPath><clipPath id="8dc84f6bf2"><rect x="0" width="7" y="0" height="7"/></clipPath><clipPath id="9f4928ec5b"><path d="M 56.339844 0 L 61.683594 0 L 61.683594 5.34375 L 56.339844 5.34375 Z M 56.339844 0 " clip-rule="nonzero"/></clipPath><clipPath id="7fe9087c55"><path d="M 59.011719 0 C 57.539062 0 56.339844 1.195312 56.339844 2.671875 C 56.339844 4.144531 57.539062 5.34375 59.011719 5.34375 C 60.488281 5.34375 61.683594 4.144531 61.683594 2.671875 C 61.683594 1.195312 60.488281 0 59.011719 0 Z M 59.011719 0 " clip-rule="nonzero"/></clipPath><clipPath id="b6262f66d2"><path d="M 0.339844 0 L 5.683594 0 L 5.683594 5.34375 L 0.339844 5.34375 Z M 0.339844 0 " clip-rule="nonzero"/></clipPath><clipPath id="b620ecb80c"><path d="M 3.011719 0 C 1.539062 0 0.339844 1.195312 0.339844 2.671875 C 0.339844 4.144531 1.539062 5.34375 3.011719 5.34375 C 4.488281 5.34375 5.683594 4.144531 5.683594 2.671875 C 5.683594 1.195312 4.488281 0 3.011719 0 Z M 3.011719 0 " clip-rule="nonzero"/></clipPath><clipPath id="71bcb35ad6"><rect x="0" width="6" y="0" height="6"/></clipPath><clipPath id="b22fd35a80"><path d="M 61.925781 8.472656 L 70.511719 8.472656 L 70.511719 17.054688 L 61.925781 17.054688 Z M 61.925781 8.472656 " clip-rule="nonzero"/></clipPath><clipPath id="da73fb6a4d"><path d="M 66.21875 8.472656 C 63.847656 8.472656 61.925781 10.394531 61.925781 12.761719 C 61.925781 15.132812 63.847656 17.054688 66.21875 17.054688 C 68.589844 17.054688 70.511719 15.132812 70.511719 12.761719 C 70.511719 10.394531 68.589844 8.472656 66.21875 8.472656 Z M 66.21875 8.472656 " clip-rule="nonzero"/></clipPath><clipPath id="815120b4e1"><path d="M 0.925781 0.472656 L 9.511719 0.472656 L 9.511719 9.054688 L 0.925781 9.054688 Z M 0.925781 0.472656 " clip-rule="nonzero"/></clipPath><clipPath id="a205d24439"><path d="M 5.21875 0.472656 C 2.847656 0.472656 0.925781 2.394531 0.925781 4.761719 C 0.925781 7.132812 2.847656 9.054688 5.21875 9.054688 C 7.589844 9.054688 9.511719 7.132812 9.511719 4.761719 C 9.511719 2.394531 7.589844 0.472656 5.21875 0.472656 Z M 5.21875 0.472656 " clip-rule="nonzero"/></clipPath><clipPath id="1518048f78"><rect x="0" width="10" y="0" height="10"/></clipPath><clipPath id="dc35f3ef77"><path d="M 72.917969 18.523438 L 81.054688 18.523438 L 81.054688 26.660156 L 72.917969 26.660156 Z M 72.917969 18.523438 " clip-rule="nonzero"/></clipPath><clipPath id="23fa1301e6"><path d="M 76.988281 18.523438 C 74.742188 18.523438 72.917969 20.34375 72.917969 22.589844 C 72.917969 24.839844 74.742188 26.660156 76.988281 26.660156 C 79.234375 26.660156 81.054688 24.839844 81.054688 22.589844 C 81.054688 20.34375 79.234375 18.523438 76.988281 18.523438 Z M 76.988281 18.523438 " clip-rule="nonzero"/></clipPath><clipPath id="0b456df789"><path d="M 0.917969 0.523438 L 9.054688 0.523438 L 9.054688 8.660156 L 0.917969 8.660156 Z M 0.917969 0.523438 " clip-rule="nonzero"/></clipPath><clipPath id="1ec5b73d7f"><path d="M 4.988281 0.523438 C 2.742188 0.523438 0.917969 2.34375 0.917969 4.589844 C 0.917969 6.839844 2.742188 8.660156 4.988281 8.660156 C 7.234375 8.660156 9.054688 6.839844 9.054688 4.589844 C 9.054688 2.34375 7.234375 0.523438 4.988281 0.523438 Z M 4.988281 0.523438 " clip-rule="nonzero"/></clipPath><clipPath id="846935f95b"><rect x="0" width="10" y="0" height="9"/></clipPath></defs><g clip-path="url(#703122bd4b)"><path fill="transparent" d="M 0.160156 0 L 122.839844 0 L 122.839844 193 L 0.160156 193 Z M 0.160156 0 " fill-opacity="1" fill-rule="nonzero"/></g><g clip-path="url(#637c403b91)"><g clip-path="url(#b71ee6ec09)"><g transform="matrix(1, 0, 0, 1, 20, 164)"><g clip-path="url(#8837499ceb)"><g clip-path="url(#3a8008b240)"><g clip-path="url(#c998a72294)"><path fill="#dc2625" d="M 0.679688 0.660156 L 21.855469 0.660156 L 21.855469 21.835938 L 0.679688 21.835938 Z M 0.679688 0.660156 " fill-opacity="1" fill-rule="nonzero"/></g></g></g></g></g></g><g clip-path="url(#5f6b8f0fb0)"><g clip-path="url(#e5c0d7a439)"><g transform="matrix(1, 0, 0, 1, 41, 174)"><g clip-path="url(#b0e37ec7df)"><g clip-path="url(#0a146c2ff8)"><g clip-path="url(#693eb33721)"><path fill="#dc2625" d="M 0.105469 0.5 L 18.011719 0.5 L 18.011719 18.40625 L 0.105469 18.40625 Z M 0.105469 0.5 " fill-opacity="1" fill-rule="nonzero"/></g></g></g></g></g></g><g clip-path="url(#e1ec8a9ca2)"><g clip-path="url(#3ee4db626a)"><g transform="matrix(1, 0, 0, 1, 60, 178)"><g clip-path="url(#f20bc6185b)"><g clip-path="url(#71ce2ca471)"><g clip-path="url(#b9b8996cde)"><path fill="#dc2625" d="M 0.746094 0.582031 L 14.570312 0.582031 L 14.570312 14.40625 L 0.746094 14.40625 Z M 0.746094 0.582031 " fill-opacity="1" fill-rule="nonzero"/></g></g></g></g></g></g><g clip-path="url(#d644322bed)"><g clip-path="url(#8fb09faa77)"><g transform="matrix(1, 0, 0, 1, 88, 160)"><g clip-path="url(#45a3503847)"><g clip-path="url(#02fad9ec31)"><g clip-path="url(#9a5f36b43c)"><path fill="#dc2625" d="M 0.382812 0.046875 L 17.421875 0.046875 L 17.421875 17.085938 L 0.382812 17.085938 Z M 0.382812 0.046875 " fill-opacity="1" fill-rule="nonzero"/></g></g></g></g></g></g><g clip-path="url(#22cd4560e6)"><g clip-path="url(#22cef4eaf5)"><g transform="matrix(1, 0, 0, 1, 74, 172)"><g clip-path="url(#7cf82548c6)"><g clip-path="url(#c6a6b53aff)"><g clip-path="url(#ebf40fccc5)"><path fill="#dc2625" d="M 0.570312 0.847656 L 15.878906 0.847656 L 15.878906 16.15625 L 0.570312 16.15625 Z M 0.570312 0.847656 " fill-opacity="1" fill-rule="nonzero"/></g></g></g></g></g></g><g clip-path="url(#1ecf860f78)"><g clip-path="url(#2cc4fa019d)"><g transform="matrix(1, 0, 0, 1, 100, 145)"><g clip-path="url(#8903d5256a)"><g clip-path="url(#4ee6cc8319)"><g clip-path="url(#83093b8bf6)"><path fill="#db6525" d="M 0.96875 0.851562 L 15.164062 0.851562 L 15.164062 15.046875 L 0.96875 15.046875 Z M 0.96875 0.851562 " fill-opacity="1" fill-rule="nonzero"/></g></g></g></g></g></g><g clip-path="url(#83380c6874)"><g clip-path="url(#c3a44b8b40)"><g transform="matrix(1, 0, 0, 1, 109, 133)"><g clip-path="url(#c0904b3ae4)"><g clip-path="url(#4d4d35399a)"><g clip-path="url(#9417158fe5)"><path fill="#dea22c" d="M 0.625 0.015625 L 13.460938 0.015625 L 13.460938 12.851562 L 0.625 12.851562 Z M 0.625 0.015625 " fill-opacity="1" fill-rule="nonzero"/></g></g></g></g></g></g><g clip-path="url(#c1ef5c420f)"><g clip-path="url(#9753297f78)"><g transform="matrix(1, 0, 0, 1, 109, 119)"><g clip-path="url(#3261f9d6a0)"><g clip-path="url(#97862f2b9a)"><g clip-path="url(#91885a1a6f)"><path fill="#dea22c" d="M 0.625 0.0195312 L 12.582031 0.0195312 L 12.582031 11.976562 L 0.625 11.976562 Z M 0.625 0.0195312 " fill-opacity="1" fill-rule="nonzero"/></g></g></g></g></g></g><g clip-path="url(#1040051267)"><g clip-path="url(#10fcf3d7b7)"><g transform="matrix(1, 0, 0, 1, 93, 133)"><g clip-path="url(#b588b3672c)"><g clip-path="url(#bb79a03c21)"><g clip-path="url(#a96ab7371e)"><path fill="#dea22c" d="M 0.261719 0.015625 L 10.925781 0.015625 L 10.925781 10.679688 L 0.261719 10.679688 Z M 0.261719 0.015625 " fill-opacity="1" fill-rule="nonzero"/></g></g></g></g></g></g><g clip-path="url(#71219d462a)"><g clip-path="url(#080b4f52dd)"><g transform="matrix(1, 0, 0, 1, 84, 143)"><g clip-path="url(#f57a449392)"><g clip-path="url(#58ff1c92ba)"><g clip-path="url(#3316d4a12a)"><path fill="#db6525" d="M 0.0664062 0.679688 L 12.902344 0.679688 L 12.902344 13.511719 L 0.0664062 13.511719 Z M 0.0664062 0.679688 " fill-opacity="1" fill-rule="nonzero"/></g></g></g></g></g></g><g clip-path="url(#37c4737b2f)"><g clip-path="url(#565bbd639a)"><g transform="matrix(1, 0, 0, 1, 70, 155)"><g clip-path="url(#fc91315e0d)"><g clip-path="url(#0122cd402f)"><g clip-path="url(#c312c20647)"><path fill="#db6525" d="M 0.738281 0.234375 L 14.066406 0.234375 L 14.066406 13.566406 L 0.738281 13.566406 Z M 0.738281 0.234375 " fill-opacity="1" fill-rule="nonzero"/></g></g></g></g></g></g><g clip-path="url(#ec5a57368d)"><g clip-path="url(#5995f2996b)"><g transform="matrix(1, 0, 0, 1, 56, 163)"><g clip-path="url(#b4d02e6f1c)"><g clip-path="url(#005078f93c)"><g clip-path="url(#539520ef23)"><path fill="#dc2625" d="M 0.96875 0.175781 L 15.78125 0.175781 L 15.78125 14.988281 L 0.96875 14.988281 Z M 0.96875 0.175781 " fill-opacity="1" fill-rule="nonzero"/></g></g></g></g></g></g><g clip-path="url(#07965aabbf)"><g clip-path="url(#ed3a97f1c9)"><g transform="matrix(1, 0, 0, 1, 42, 160)"><g clip-path="url(#e6e02d6e9c)"><g clip-path="url(#1f67ead31d)"><g clip-path="url(#5d4484cb2b)"><path fill="#dc2625" d="M 0.0429688 0.046875 L 12.066406 0.046875 L 12.066406 12.066406 L 0.0429688 12.066406 Z M 0.0429688 0.046875 " fill-opacity="1" fill-rule="nonzero"/></g></g></g></g></g></g><g clip-path="url(#0bb7485ed5)"><g clip-path="url(#c09818cb2c)"><g transform="matrix(1, 0, 0, 1, 51, 149)"><g clip-path="url(#704585783b)"><g clip-path="url(#e89f47c2c9)"><g clip-path="url(#804eee24a3)"><path fill="#db6525" d="M 0.515625 0.0195312 L 14.023438 0.0195312 L 14.023438 13.523438 L 0.515625 13.523438 Z M 0.515625 0.0195312 " fill-opacity="1" fill-rule="nonzero"/></g></g></g></g></g></g><g clip-path="url(#8bc90e01d3)"><g clip-path="url(#4d5d14322c)"><g transform="matrix(1, 0, 0, 1, 34, 143)"><g clip-path="url(#e7986825b8)"><g clip-path="url(#9399338dfa)"><g clip-path="url(#df0fd762a8)"><path fill="#db6525" d="M 0.046875 0.679688 L 14.167969 0.679688 L 14.167969 14.800781 L 0.046875 14.800781 Z M 0.046875 0.679688 " fill-opacity="1" fill-rule="nonzero"/></g></g></g></g></g></g><g clip-path="url(#2c2071a464)"><g clip-path="url(#121e05b97f)"><g transform="matrix(1, 0, 0, 1, 22, 151)"><g clip-path="url(#4953f7f3a9)"><g clip-path="url(#0a6bfaef0d)"><g clip-path="url(#76eb200dd1)"><path fill="#dc2625" d="M 0.949219 0.332031 L 12.792969 0.332031 L 12.792969 12.175781 L 0.949219 12.175781 Z M 0.949219 0.332031 " fill-opacity="1" fill-rule="nonzero"/></g></g></g></g></g></g><g clip-path="url(#aedf2f62e7)"><g clip-path="url(#13771b2df0)"><g transform="matrix(1, 0, 0, 1, 9, 155)"><g clip-path="url(#46a36143c3)"><g clip-path="url(#8f0598d11e)"><g clip-path="url(#02ccc9894c)"><path fill="#dc2625" d="M 0.0742188 0.769531 L 13.949219 0.769531 L 13.949219 14.644531 L 0.0742188 14.644531 Z M 0.0742188 0.769531 " fill-opacity="1" fill-rule="nonzero"/></g></g></g></g></g></g><g clip-path="url(#afa070f434)"><g clip-path="url(#bfc78ba8f4)"><g transform="matrix(1, 0, 0, 1, -0.000000000000000028, 135)"><g clip-path="url(#9362432a5e)"><g clip-path="url(#99124b2128)"><g clip-path="url(#59581702ce)"><path fill="#dc2625" d="M 0.160156 0.863281 L 17.992188 0.863281 L 17.992188 18.695312 L 0.160156 18.695312 Z M 0.160156 0.863281 " fill-opacity="1" fill-rule="nonzero"/></g></g></g></g></g></g><g clip-path="url(#a0bd681c40)"><g clip-path="url(#78a6e26331)"><g transform="matrix(1, 0, 0, 1, -0.000000000000000028, 115)"><g clip-path="url(#0a8aab24de)"><g clip-path="url(#0195e69461)"><g clip-path="url(#baabfe5507)"><path fill="#dc2625" d="M 0.160156 0.183594 L 17.992188 0.183594 L 17.992188 18.015625 L 0.160156 18.015625 Z M 0.160156 0.183594 " fill-opacity="1" fill-rule="nonzero"/></g></g></g></g></g></g><g clip-path="url(#262cba277f)"><g clip-path="url(#ed371b71f8)"><g transform="matrix(1, 0, 0, 1, 19, 134)"><g clip-path="url(#97a2090920)"><g clip-path="url(#e6ce3c2c46)"><g clip-path="url(#6db2cae653)"><path fill="#dc2625" d="M 0.421875 0.394531 L 15.046875 0.394531 L 15.046875 15.019531 L 0.421875 15.019531 Z M 0.421875 0.394531 " fill-opacity="1" fill-rule="nonzero"/></g></g></g></g></g></g><g clip-path="url(#615462f715)"><g clip-path="url(#97bcdfeae9)"><g transform="matrix(1, 0, 0, 1, 48, 136)"><g clip-path="url(#f7968fb88e)"><g clip-path="url(#c6f07a0a9d)"><g clip-path="url(#68e56c4d14)"><path fill="#db6525" d="M 0.167969 0.136719 L 10.269531 0.136719 L 10.269531 10.238281 L 0.167969 10.238281 Z M 0.167969 0.136719 " fill-opacity="1" fill-rule="nonzero"/></g></g></g></g></g></g><g clip-path="url(#ca3b6cb503)"><g clip-path="url(#14ae579291)"><g transform="matrix(1, 0, 0, 1, 34, 127)"><g clip-path="url(#a709cc44ef)"><g clip-path="url(#08357860e4)"><g clip-path="url(#7f77e51cc4)"><path fill="#db6525" d="M 0.046875 0.335938 L 12.15625 0.335938 L 12.15625 12.445312 L 0.046875 12.445312 Z M 0.046875 0.335938 " fill-opacity="1" fill-rule="nonzero"/></g></g></g></g></g></g><g clip-path="url(#d7b6af09cd)"><g clip-path="url(#ee8a73b199)"><g transform="matrix(1, 0, 0, 1, 67, 141)"><g clip-path="url(#bbc150f474)"><g clip-path="url(#25860af3c8)"><g clip-path="url(#56537f2a9b)"><path fill="#db6525" d="M 0.300781 0.707031 L 11.539062 0.707031 L 11.539062 11.949219 L 0.300781 11.949219 Z M 0.300781 0.707031 " fill-opacity="1" fill-rule="nonzero"/></g></g></g></g></g></g><g clip-path="url(#742001f349)"><g clip-path="url(#9e911e12bc)"><g transform="matrix(1, 0, 0, 1, 78, 128)"><g clip-path="url(#102bfb516b)"><g clip-path="url(#28e16d3a8d)"><g clip-path="url(#ff8944ad58)"><path fill="#dea22c" d="M 0.328125 0.988281 L 11.570312 0.988281 L 11.570312 12.230469 L 0.328125 12.230469 Z M 0.328125 0.988281 " fill-opacity="1" fill-rule="nonzero"/></g></g></g></g></g></g><g clip-path="url(#d7cd59a0d0)"><g clip-path="url(#f1eb4f773f)"><g transform="matrix(1, 0, 0, 1, 87, 118)"><g clip-path="url(#67919f08dc)"><g clip-path="url(#c365dabb72)"><g clip-path="url(#50cf9cc14c)"><path fill="#dea22c" d="M 0.632812 0.8125 L 9.152344 0.8125 L 9.152344 9.335938 L 0.632812 9.335938 Z M 0.632812 0.8125 " fill-opacity="1" fill-rule="nonzero"/></g></g></g></g></g></g><g clip-path="url(#ff48613aef)"><g clip-path="url(#9591b37687)"><g transform="matrix(1, 0, 0, 1, 100, 123)"><g clip-path="url(#bd678299dc)"><g clip-path="url(#298ce76d06)"><g clip-path="url(#2f4bc07f90)"><path fill="#dea22c" d="M 0.96875 0.878906 L 8.066406 0.878906 L 8.066406 7.976562 L 0.96875 7.976562 Z M 0.96875 0.878906 " fill-opacity="1" fill-rule="nonzero"/></g></g></g></g></g></g><g clip-path="url(#d6bc29d9dc)"><g clip-path="url(#08c97d19cb)"><g transform="matrix(1, 0, 0, 1, 103, 111)"><g clip-path="url(#05158c325c)"><g clip-path="url(#a74362b43a)"><g clip-path="url(#e039081063)"><path fill="#dea22c" d="M 0.925781 0.00390625 L 8.734375 0.00390625 L 8.734375 7.8125 L 0.925781 7.8125 Z M 0.925781 0.00390625 " fill-opacity="1" fill-rule="nonzero"/></g></g></g></g></g></g><g clip-path="url(#a0a88044b1)"><g clip-path="url(#c77a18e22c)"><g transform="matrix(1, 0, 0, 1, 114, 110)"><g clip-path="url(#c32bc811b9)"><g clip-path="url(#e7b3f38611)"><g clip-path="url(#f1b0514613)"><path fill="#dea22c" d="M 0.3125 0.257812 L 6.832031 0.257812 L 6.832031 6.777344 L 0.3125 6.777344 Z M 0.3125 0.257812 " fill-opacity="1" fill-rule="nonzero"/></g></g></g></g></g></g><g clip-path="url(#98eda0425c)"><g clip-path="url(#5f8ceb7532)"><g transform="matrix(1, 0, 0, 1, 104, 98)"><g clip-path="url(#ea1a93e91d)"><g clip-path="url(#6e817f9abe)"><g clip-path="url(#21fb5e9379)"><path fill="#dea22c" d="M 0.519531 0.128906 L 9.53125 0.128906 L 9.53125 9.144531 L 0.519531 9.144531 Z M 0.519531 0.128906 " fill-opacity="1" fill-rule="nonzero"/></g></g></g></g></g></g><g clip-path="url(#ac9465fb86)"><g clip-path="url(#8afe683fb3)"><g transform="matrix(1, 0, 0, 1, 87, 101)"><g clip-path="url(#0b661e20d7)"><g clip-path="url(#dfe09c907f)"><g clip-path="url(#d9e1b6f3b4)"><path fill="#dea22c" d="M 0.632812 0.988281 L 6.742188 0.988281 L 6.742188 7.097656 L 0.632812 7.097656 Z M 0.632812 0.988281 " fill-opacity="1" fill-rule="nonzero"/></g></g></g></g></g></g><g clip-path="url(#3569b32057)"><g clip-path="url(#c75e51adbd)"><g transform="matrix(1, 0, 0, 1, 104, 88)"><g clip-path="url(#9c6701c669)"><g clip-path="url(#5f7189b4f4)"><g clip-path="url(#74981326fc)"><path fill="#dea22c" d="M 0.519531 0.578125 L 6.328125 0.578125 L 6.328125 6.390625 L 0.519531 6.390625 Z M 0.519531 0.578125 " fill-opacity="1" fill-rule="nonzero"/></g></g></g></g></g></g><g clip-path="url(#9435f5170e)"><g clip-path="url(#62959ac911)"><g transform="matrix(1, 0, 0, 1, 50, 119)"><g clip-path="url(#d7a544dcce)"><g clip-path="url(#66587d9a6d)"><g clip-path="url(#00c2fe2c25)"><path fill="#db6525" d="M 0.0585938 0.363281 L 10.746094 0.363281 L 10.746094 11.050781 L 0.0585938 11.050781 Z M 0.0585938 0.363281 " fill-opacity="1" fill-rule="nonzero"/></g></g></g></g></g></g><g clip-path="url(#11585e3091)"><g clip-path="url(#1746290923)"><g transform="matrix(1, 0, 0, 1, 20, 119)"><g clip-path="url(#65c99076e9)"><g clip-path="url(#1491313686)"><g clip-path="url(#beb2662cc6)"><path fill="#dc2625" d="M 0.679688 0.363281 L 13.464844 0.363281 L 13.464844 13.152344 L 0.679688 13.152344 Z M 0.679688 0.363281 " fill-opacity="1" fill-rule="nonzero"/></g></g></g></g></g></g><g clip-path="url(#9a46e4a921)"><g clip-path="url(#52e309c0b2)"><g transform="matrix(1, 0, 0, 1, 34, 113)"><g clip-path="url(#7be6492daa)"><g clip-path="url(#97ca36a061)"><g clip-path="url(#c34ce27071)"><path fill="#db6525" d="M 0.757812 0.597656 L 12.15625 0.597656 L 12.15625 11.996094 L 0.757812 11.996094 Z M 0.757812 0.597656 " fill-opacity="1" fill-rule="nonzero"/></g></g></g></g></g></g><g clip-path="url(#3007732b5d)"><g clip-path="url(#c1fec83477)"><g transform="matrix(1, 0, 0, 1, 22, 102)"><g clip-path="url(#dd89b83260)"><g clip-path="url(#656d46ad1f)"><g clip-path="url(#d615984d1c)"><path fill="#db6525" d="M 0.0664062 0.933594 L 12.046875 0.933594 L 12.046875 12.910156 L 0.0664062 12.910156 Z M 0.0664062 0.933594 " fill-opacity="1" fill-rule="nonzero"/></g></g></g></g></g></g><g clip-path="url(#5461d2a0db)"><g clip-path="url(#7d27aa18be)"><g transform="matrix(1, 0, 0, 1, 6, 97)"><g clip-path="url(#3c489bc9f8)"><g clip-path="url(#5f45aefe9d)"><g clip-path="url(#d10e45d60b)"><path fill="#dc2625" d="M 0.0117188 0.195312 L 13.824219 0.195312 L 13.824219 14.003906 L 0.0117188 14.003906 Z M 0.0117188 0.195312 " fill-opacity="1" fill-rule="nonzero"/></g></g></g></g></g></g><g clip-path="url(#8d2868d365)"><g clip-path="url(#59073411cb)"><g transform="matrix(1, 0, 0, 1, 42, 100)"><g clip-path="url(#9c91cf53f9)"><g clip-path="url(#20f20b9f42)"><g clip-path="url(#e76f400300)"><path fill="#db6525" d="M 0.667969 0.703125 L 12.066406 0.703125 L 12.066406 12.101562 L 0.667969 12.101562 Z M 0.667969 0.703125 " fill-opacity="1" fill-rule="nonzero"/></g></g></g></g></g></g><g clip-path="url(#ed05e9f234)"><g clip-path="url(#3bff24b696)"><g transform="matrix(1, 0, 0, 1, 58, 106)"><g clip-path="url(#b654bf44b6)"><g clip-path="url(#b79be083c9)"><g clip-path="url(#87f2bb1ac3)"><path fill="#dea22c" d="M 0.269531 0.402344 L 13.363281 0.402344 L 13.363281 13.496094 L 0.269531 13.496094 Z M 0.269531 0.402344 " fill-opacity="1" fill-rule="nonzero"/></g></g></g></g></g></g><g clip-path="url(#a60e68ba86)"><g clip-path="url(#8ce27cbb68)"><g transform="matrix(1, 0, 0, 1, 31, 89)"><g clip-path="url(#b634cf9c0d)"><g clip-path="url(#e843d02f2f)"><g clip-path="url(#0b9173e6ed)"><path fill="#db6525" d="M 0.265625 0.839844 L 14.304688 0.839844 L 14.304688 14.875 L 0.265625 14.875 Z M 0.265625 0.839844 " fill-opacity="1" fill-rule="nonzero"/></g></g></g></g></g></g><g clip-path="url(#a22b7111f0)"><g clip-path="url(#91e324360b)"><g transform="matrix(1, 0, 0, 1, 16, 81)"><g clip-path="url(#fd2ac0a3fa)"><g clip-path="url(#61943305ea)"><g clip-path="url(#1feb4056ed)"><path fill="#dc2625" d="M 0.65625 0.242188 L 12.871094 0.242188 L 12.871094 12.453125 L 0.65625 12.453125 Z M 0.65625 0.242188 " fill-opacity="1" fill-rule="nonzero"/></g></g></g></g></g></g><g clip-path="url(#1e38a87009)"><g clip-path="url(#5da7f758c4)"><g transform="matrix(1, 0, 0, 1, 69, 93)"><g clip-path="url(#4ec390824f)"><g clip-path="url(#4f59f13e1e)"><g clip-path="url(#4c81166a29)"><path fill="#dea22c" d="M 0.210938 0.453125 L 11.609375 0.453125 L 11.609375 11.855469 L 0.210938 11.855469 Z M 0.210938 0.453125 " fill-opacity="1" fill-rule="nonzero"/></g></g></g></g></g></g><g clip-path="url(#587b122802)"><g clip-path="url(#2126254292)"><g transform="matrix(1, 0, 0, 1, 50, 86)"><g clip-path="url(#261fbf2ef6)"><g clip-path="url(#97c94b8e50)"><g clip-path="url(#4399f24b82)"><path fill="#db6525" d="M 0.410156 0.0898438 L 15.023438 0.0898438 L 15.023438 14.703125 L 0.410156 14.703125 Z M 0.410156 0.0898438 " fill-opacity="1" fill-rule="nonzero"/></g></g></g></g></g></g><g clip-path="url(#6daf78c1a4)"><g clip-path="url(#6c09aea74d)"><g transform="matrix(1, 0, 0, 1, 78, 80)"><g clip-path="url(#9d9408ab9c)"><g clip-path="url(#d3167b0644)"><g clip-path="url(#6b5df5a860)"><path fill="#dea22c" d="M 0.328125 0.640625 L 14.945312 0.640625 L 14.945312 15.253906 L 0.328125 15.253906 Z M 0.328125 0.640625 " fill-opacity="1" fill-rule="nonzero"/></g></g></g></g></g></g><g clip-path="url(#df7ca8f529)"><g clip-path="url(#73c136bcea)"><g transform="matrix(1, 0, 0, 1, 61, 77)"><g clip-path="url(#378b2ee657)"><g clip-path="url(#424f728345)"><g clip-path="url(#1b1bd96b55)"><path fill="#dea22c" d="M 0.519531 0.179688 L 11.917969 0.179688 L 11.917969 11.578125 L 0.519531 11.578125 Z M 0.519531 0.179688 " fill-opacity="1" fill-rule="nonzero"/></g></g></g></g></g></g><g clip-path="url(#b103d6b23e)"><g clip-path="url(#a6f3913e7f)"><g transform="matrix(1, 0, 0, 1, 72, 67)"><g clip-path="url(#13d1de3d97)"><g clip-path="url(#346dd48187)"><g clip-path="url(#dff5b9778f)"><path fill="#dea22c" d="M 0.628906 0.746094 L 11.949219 0.746094 L 11.949219 12.066406 L 0.628906 12.066406 Z M 0.628906 0.746094 " fill-opacity="1" fill-rule="nonzero"/></g></g></g></g></g></g><g clip-path="url(#e6ca610766)"><g clip-path="url(#68e79d15c0)"><g transform="matrix(1, 0, 0, 1, 88, 69)"><g clip-path="url(#65655a9170)"><g clip-path="url(#dcac86a362)"><g clip-path="url(#4c81745c43)"><path fill="#dea22c" d="M 0.0820312 0.921875 L 11.402344 0.921875 L 11.402344 12.242188 L 0.0820312 12.242188 Z M 0.0820312 0.921875 " fill-opacity="1" fill-rule="nonzero"/></g></g></g></g></g></g><g clip-path="url(#3596051732)"><g clip-path="url(#c77548da92)"><g transform="matrix(1, 0, 0, 1, 41, 79)"><g clip-path="url(#0d88bbd8cf)"><g clip-path="url(#d46f21b68e)"><g clip-path="url(#5ee8acf01c)"><path fill="#db6525" d="M 0.105469 0.0664062 L 8.394531 0.0664062 L 8.394531 8.351562 L 0.105469 8.351562 Z M 0.105469 0.0664062 " fill-opacity="1" fill-rule="nonzero"/></g></g></g></g></g></g><g clip-path="url(#46d15a9f23)"><g clip-path="url(#fc5f4842b6)"><g transform="matrix(1, 0, 0, 1, 48, 69)"><g clip-path="url(#fd6d890c36)"><g clip-path="url(#3822492447)"><g clip-path="url(#cc2948448f)"><path fill="#db6525" d="M 0.40625 0.921875 L 11.011719 0.921875 L 11.011719 11.527344 L 0.40625 11.527344 Z M 0.40625 0.921875 " fill-opacity="1" fill-rule="nonzero"/></g></g></g></g></g></g><g clip-path="url(#0b08c42352)"><g clip-path="url(#2a0fec52ea)"><g transform="matrix(1, 0, 0, 1, 93, 58)"><g clip-path="url(#efef090182)"><g clip-path="url(#e3b43b69ff)"><g clip-path="url(#59717cd0aa)"><path fill="#dea22c" d="M 0.996094 0.890625 L 7.96875 0.890625 L 7.96875 7.863281 L 0.996094 7.863281 Z M 0.996094 0.890625 " fill-opacity="1" fill-rule="nonzero"/></g></g></g></g></g></g><g clip-path="url(#ed66518d2c)"><g clip-path="url(#c1604fc6ee)"><g transform="matrix(1, 0, 0, 1, 28, 69)"><g clip-path="url(#384cb397a9)"><g clip-path="url(#1535c18077)"><g clip-path="url(#6731970dec)"><path fill="#db6525" d="M 0.386719 0.167969 L 12.457031 0.167969 L 12.457031 12.242188 L 0.386719 12.242188 Z M 0.386719 0.167969 " fill-opacity="1" fill-rule="nonzero"/></g></g></g></g></g></g><g clip-path="url(#b2b07aaba1)"><g clip-path="url(#d851bcd13a)"><g transform="matrix(1, 0, 0, 1, 41, 55)"><g clip-path="url(#cc7b490c65)"><g clip-path="url(#0d7e5142ab)"><g clip-path="url(#64f2b720a3)"><path fill="#db6525" d="M 0.105469 0.0742188 L 12.710938 0.0742188 L 12.710938 12.675781 L 0.105469 12.675781 Z M 0.105469 0.0742188 " fill-opacity="1" fill-rule="nonzero"/></g></g></g></g></g></g><g clip-path="url(#65525df0e7)"><g clip-path="url(#301741fae2)"><g transform="matrix(1, 0, 0, 1, 52, 43)"><g clip-path="url(#20e988be38)"><g clip-path="url(#5809bdd013)"><g clip-path="url(#6a51b5f8a2)"><path fill="#dea22c" d="M 0.0546875 0.339844 L 10.683594 0.339844 L 10.683594 10.96875 L 0.0546875 10.96875 Z M 0.0546875 0.339844 " fill-opacity="1" fill-rule="nonzero"/></g></g></g></g></g></g><g clip-path="url(#a1daf53613)"><g clip-path="url(#ea1ba65084)"><g transform="matrix(1, 0, 0, 1, 56, 55)"><g clip-path="url(#572fb7afaa)"><g clip-path="url(#ab6542cd25)"><g clip-path="url(#7b4924d549)"><path fill="#dea22c" d="M 0.96875 0.832031 L 16.332031 0.832031 L 16.332031 16.195312 L 0.96875 16.195312 Z M 0.96875 0.832031 " fill-opacity="1" fill-rule="nonzero"/></g></g></g></g></g></g><g clip-path="url(#005716e01a)"><g clip-path="url(#1dcd19b6de)"><g transform="matrix(1, 0, 0, 1, 76, 53)"><g clip-path="url(#607ec23ce8)"><g clip-path="url(#c981bbdbf1)"><g clip-path="url(#da295b2378)"><path fill="#dea22c" d="M 0.5625 0.46875 L 12.382812 0.46875 L 12.382812 12.289062 L 0.5625 12.289062 Z M 0.5625 0.46875 " fill-opacity="1" fill-rule="nonzero"/></g></g></g></g></g></g><g clip-path="url(#bad1f00297)"><g clip-path="url(#8d998529ee)"><g transform="matrix(1, 0, 0, 1, 59, 31)"><g clip-path="url(#637e3d62bb)"><g clip-path="url(#45e7a3aa5f)"><g clip-path="url(#26653ea896)"><path fill="#dea22c" d="M 0.761719 0.507812 L 7.734375 0.507812 L 7.734375 7.484375 L 0.761719 7.484375 Z M 0.761719 0.507812 " fill-opacity="1" fill-rule="nonzero"/></g></g></g></g></g></g><g clip-path="url(#5637beb7f3)"><g clip-path="url(#348aaa6698)"><g transform="matrix(1, 0, 0, 1, 82, 41)"><g clip-path="url(#f27b7c7c9e)"><g clip-path="url(#5f47e7dafa)"><g clip-path="url(#89f7e912e8)"><path fill="#dea22c" d="M 0.222656 0.679688 L 9.765625 0.679688 L 9.765625 10.226562 L 0.222656 10.226562 Z M 0.222656 0.679688 " fill-opacity="1" fill-rule="nonzero"/></g></g></g></g></g></g><g clip-path="url(#edff6666b6)"><g clip-path="url(#b71b70efe8)"><g transform="matrix(1, 0, 0, 1, 66, 41)"><g clip-path="url(#b4df48b726)"><g clip-path="url(#940e298c9e)"><g clip-path="url(#b14d190eab)"><path fill="#dea22c" d="M 0.59375 0.679688 L 10.136719 0.679688 L 10.136719 10.226562 L 0.59375 10.226562 Z M 0.59375 0.679688 " fill-opacity="1" fill-rule="nonzero"/></g></g></g></g></g></g><g clip-path="url(#395906b2bb)"><g clip-path="url(#d0b642f186)"><g transform="matrix(1, 0, 0, 1, 77, 29)"><g clip-path="url(#ff443bebb1)"><g clip-path="url(#1615896053)"><g clip-path="url(#8575ef725f)"><path fill="#dea22c" d="M 0.402344 0.890625 L 10.246094 0.890625 L 10.246094 10.734375 L 0.402344 10.734375 Z M 0.402344 0.890625 " fill-opacity="1" fill-rule="nonzero"/></g></g></g></g></g></g><g clip-path="url(#742b04b73d)"><g clip-path="url(#689a6afa5e)"><g transform="matrix(1, 0, 0, 1, 65, 21)"><g clip-path="url(#8dc84f6bf2)"><g clip-path="url(#29fa2ef072)"><g clip-path="url(#8d52aa9284)"><path fill="#dea22c" d="M 0.0234375 0.542969 L 6.363281 0.542969 L 6.363281 6.886719 L 0.0234375 6.886719 Z M 0.0234375 0.542969 " fill-opacity="1" fill-rule="nonzero"/></g></g></g></g></g></g><g clip-path="url(#9f4928ec5b)"><g clip-path="url(#7fe9087c55)"><g transform="matrix(1, 0, 0, 1, 56, 0)"><g clip-path="url(#71bcb35ad6)"><g clip-path="url(#b6262f66d2)"><g clip-path="url(#b620ecb80c)"><path fill="#dea22c" d="M 0.339844 0 L 5.683594 0 L 5.683594 5.34375 L 0.339844 5.34375 Z M 0.339844 0 " fill-opacity="1" fill-rule="nonzero"/></g></g></g></g></g></g><g clip-path="url(#b22fd35a80)"><g clip-path="url(#da73fb6a4d)"><g transform="matrix(1, 0, 0, 1, 61, 8)"><g clip-path="url(#1518048f78)"><g clip-path="url(#815120b4e1)"><g clip-path="url(#a205d24439)"><path fill="#dea22c" d="M 0.925781 0.472656 L 9.511719 0.472656 L 9.511719 9.054688 L 0.925781 9.054688 Z M 0.925781 0.472656 " fill-opacity="1" fill-rule="nonzero"/></g></g></g></g></g></g><g clip-path="url(#dc35f3ef77)"><g clip-path="url(#23fa1301e6)"><g transform="matrix(1, 0, 0, 1, 72, 18)"><g clip-path="url(#846935f95b)"><g clip-path="url(#0b456df789)"><g clip-path="url(#1ec5b73d7f)"><path fill="#dea22c" d="M 0.917969 0.523438 L 9.054688 0.523438 L 9.054688 8.660156 L 0.917969 8.660156 Z M 0.917969 0.523438 " fill-opacity="1" fill-rule="nonzero"/></g></g></g></g></g></g></svg>